{
DisplayStrings = (
" f f fogg/si_KhI ajj/si_Ssa lkvtwxyz",
"cCQQ/si_Ka.half C/si_Ka.half TNOQ",
cTnCCC
);
copyright = "(c) 1997 Pushpananda Ekanayake(http://isiwara.lk), 2013 Path Nirvana(http://pathnirvana.org/), 2014 mooniak(mooniak.com). All Rights Reserved.";
customParameters = (
{
name = description;
value = "Pushpananda Ekanayake and mooniak";
},
{
name = license;
value = "Licensed under OFL";
},
{
name = licenseURL;
value = "http://www.apache.org/licenses/LICENSE-2.0";
},
{
name = vendorID;
value = "MS  ";
},
{
name = glyphOrder;
value = (
    ".notdef",
    uni0000,
    uni000D,
    space,
    exclaim,
    percentage,
    apostrophe,
    parenleft,
    parenright,
    asterisk,
    plus,
    comma,
    "short_dash1",
    dot,
    slash,
    zero,
    one,
    two,
    three,
    four,
    five,
    six,
    seven,
    eight,
    nine,
    colon,
    semicolon,
    equals,
    question,
    braceleft,
    braceright,
    "next_page",
    multiply,
    divide,
    "top_white_circle",
    anusvara,
    visarga,
    "si_A",
    "si_Aa",
    "si_Ae",
    "si_Aee",
    "si_I",
    "si_Ii",
    "si_U",
    "si_Uu",
    "si_vocalicR",
    "si_vocalicRr",
    "si_vocalicU",
    "si_vocalicUu",
    "si_E",
    "si_Ee",
    "si_Ei",
    "si_O",
    "si_Oo",
    "si_Ou",
    "si_Ka",
    "si_Kha",
    "si_Ga",
    "si_Gha",
    "si_Nga",
    "si_Nnga",
    "si_Ca",
    "si_Cha",
    "si_Ja",
    "si_Jha",
    "si_Nya",
    "si_Jnya",
    "si_Ndja",
    "si_Tta",
    "si_Ttha",
    "si_Dda",
    "si_Ddha",
    "si_Nna",
    "si_Ndda",
    "si_Ta",
    "si_Tha",
    "si_Da",
    "si_Dha",
    "si_Na",
    "si_Nda",
    "si_Pa",
    "si_Pha",
    "si_Ba",
    "si_Bha",
    "si_Ma",
    "si_Mba",
    "si_Ya",
    "si_Ra",
    "si_La",
    "si_Va",
    "si_Sha",
    "si_Ssa",
    "si_Sa",
    "si_Ha",
    "si_Lla",
    "si_Fa",
    "si_Halant",
    "si_MatraAa",
    "si_MatraAe",
    "si_MatraAee",
    "si_MatraI",
    "si_MatraIi",
    "si_MatraU",
    "si_matraUu",

glyphs = (
{
export = 0;
glyphname = .notdef;
lastChange = "2015-06-22 15:06:21 +0000";
layers = (
{
layerId = "C18F3EFD-FA9C-4751-AD2F-5B966120D1A5";
name = Regular;
paths = (
{
closed = 1;
nodes = (
"120 -81 OFFCURVE",
"89 -105 OFFCURVE",
"89 -142 CURVE SMOOTH",
"89 -183 OFFCURVE",
"115 -203 OFFCURVE",
"168 -203 CURVE SMOOTH",
"169 -203 OFFCURVE",
"169 -203 OFFCURVE",
"169 -203 CURVE",
"548 -202 LINE",
"548 132 LINE",
"581 189 LINE",
"581 -235 LINE",
"158 -235 LINE SMOOTH",
"94 -235 OFFCURVE",
"52 -204 OFFCURVE",
"52 -147 CURVE SMOOTH",
"52 -95 OFFCURVE",
"99 -51 OFFCURVE",
"151 -51 CURVE SMOOTH",
"154 -51 OFFCURVE",
"156 -51 OFFCURVE",
"159 -51 CURVE SMOOTH",
"200 -51 OFFCURVE",
"229 -71 OFFCURVE",
"247 -110 CURVE",
"217 -122 LINE",
"207 -95 OFFCURVE",
"188 -81 OFFCURVE",
"159 -81 CURVE SMOOTH"
);
}
);
width = 629;
},
{
layerId = "AA78C373-A874-4B43-A7A1-B39102DDD1E4";
name = Bold;
width = 370;
}
);
},
{
export = 0;
glyphname = exclaim;
lastChange = "2015-06-22 15:06:21 +0000";
layers = (
{
layerId = "C18F3EFD-FA9C-4751-AD2F-5B966120D1A5";
name = Regular;
paths = (
{
closed = 1;
nodes = (
"78 119 LINE",
"77 129 OFFCURVE",
"75 178 OFFCURVE",
"71 267 CURVE SMOOTH",
"67 356 OFFCURVE",
"63 435 OFFCURVE",
"60 505 CURVE SMOOTH",
"57 575 OFFCURVE",
"55 615 OFFCURVE",
"55 624 CURVE SMOOTH",
"55 663 OFFCURVE",
"68 682 OFFCURVE",
"93 682 CURVE SMOOTH",
"116 682 OFFCURVE",
"127 664 OFFCURVE",
"127 629 CURVE SMOOTH",
"127 623 LINE SMOOTH",
"127 585 OFFCURVE",
"122 491 OFFCURVE",
"113 340 CURVE",
"112 295 OFFCURVE",
"108 222 OFFCURVE",
"102 119 CURVE"
);
},
{
closed = 1;
nodes = (
"46 60 OFFCURVE",
"65 79 OFFCURVE",
"89 79 CURVE SMOOTH",
"112 79 OFFCURVE",
"133 61 OFFCURVE",
"133 38 CURVE SMOOTH",
"133 15 OFFCURVE",
"112 -6 OFFCURVE",
"89 -6 CURVE SMOOTH",
"65 -6 OFFCURVE",
"46 13 OFFCURVE",
"46 36 CURVE SMOOTH"
);
}
);
width = 185;
},
{
layerId = "AA78C373-A874-4B43-A7A1-B39102DDD1E4";
name = Bold;
paths = (
{
closed = 1;
nodes = (
"90 185 LINE",
"87 210 OFFCURVE",
"82 263 OFFCURVE",
"74 345 CURVE SMOOTH",
"73 354 OFFCURVE",
"68 405 OFFCURVE",
"58 499 CURVE SMOOTH",
"53 554 OFFCURVE",
"50 595 OFFCURVE",
"50 624 CURVE SMOOTH",
"50 656 OFFCURVE",
"71 682 OFFCURVE",
"107 682 CURVE SMOOTH",
"143 682 OFFCURVE",
"160 662 OFFCURVE",
"159 623 CURVE SMOOTH",
"158 587 OFFCURVE",
"150 497 OFFCURVE",
"136 354 CURVE SMOOTH",
"133 325 OFFCURVE",
"128 268 OFFCURVE",
"120 185 CURVE"
);
},
{
closed = 1;
nodes = (
"140 121 OFFCURVE",
"172 94 OFFCURVE",
"172 57 CURVE SMOOTH",
"172 24 OFFCURVE",
"144 -7 OFFCURVE",
"107 -7 CURVE SMOOTH",
"74 -7 OFFCURVE",
"42 20 OFFCURVE",
"42 57 CURVE SMOOTH",
"42 90 OFFCURVE",
"70 121 OFFCURVE",
"107 121 CURVE SMOOTH"
);
}
);
width = 228;
}
);
unicode = 0021;
},
{
export = 0;
glyphname = percentage;
lastChange = "2015-06-22 15:06:21 +0000";
layers = (
{
layerId = "C18F3EFD-FA9C-4751-AD2F-5B966120D1A5";
name = Regular;
paths = (
{
closed = 1;
nodes = (
"330 157 OFFCURVE",
"315 163 OFFCURVE",
"297 163 CURVE SMOOTH",
"261 163 OFFCURVE",
"232 136 OFFCURVE",
"232 100 CURVE SMOOTH",
"232 64 OFFCURVE",
"259 37 OFFCURVE",
"295 37 CURVE SMOOTH",
"330 37 OFFCURVE",
"361 63 OFFCURVE",
"361 99 CURVE SMOOTH",
"361 116 OFFCURVE",
"355 131 OFFCURVE",
"343 144 CURVE"
);
},
{
closed = 1;
nodes = (
"196 156 OFFCURVE",
"241 198 OFFCURVE",
"296 198 CURVE SMOOTH",
"353 198 OFFCURVE",
"399 154 OFFCURVE",
"399 98 CURVE SMOOTH",
"399 41 OFFCURVE",
"354 0 OFFCURVE",
"297 0 CURVE SMOOTH",
"240 0 OFFCURVE",
"196 45 OFFCURVE",
"196 100 CURVE SMOOTH"
);
},
{
closed = 1;
nodes = (
"188 637 OFFCURVE",
"157 611 OFFCURVE",
"157 575 CURVE SMOOTH",
"157 542 OFFCURVE",
"184 512 OFFCURVE",
"220 512 CURVE SMOOTH",
"255 512 OFFCURVE",
"286 538 OFFCURVE",
"286 574 CURVE SMOOTH",
"286 607 OFFCURVE",
"259 637 OFFCURVE",
"223 637 CURVE SMOOTH"
);
},
{
closed = 1;
nodes = (
"121 631 OFFCURVE",
"167 673 OFFCURVE",
"224 673 CURVE SMOOTH",
"281 673 OFFCURVE",
"324 630 OFFCURVE",
"324 574 CURVE SMOOTH",
"324 517 OFFCURVE",
"279 475 OFFCURVE",
"223 475 CURVE SMOOTH",
"166 475 OFFCURVE",
"121 518 OFFCURVE",
"121 574 CURVE SMOOTH"
);
},
{
closed = 1;
nodes = (
"39 0 LINE",
"435 677 LINE",
"475 677 LINE",
"80 0 LINE"
);
}
);
width = 556;
},
{
layerId = "AA78C373-A874-4B43-A7A1-B39102DDD1E4";
name = Bold;
paths = (
{
closed = 1;
nodes = (
"41 -1 LINE",
"441 677 LINE",
"492 677 LINE",
"94 -1 LINE"
);
},
{
closed = 1;
nodes = (
"168 661 OFFCURVE",
"195 673 OFFCURVE",
"228 673 CURVE SMOOTH",
"276 673 OFFCURVE",
"328 639 OFFCURVE",
"328 574 CURVE SMOOTH",
"328 526 OFFCURVE",
"292 475 OFFCURVE",
"227 475 CURVE SMOOTH",
"179 475 OFFCURVE",
"125 508 OFFCURVE",
"125 575 CURVE SMOOTH",
"125 598 OFFCURVE",
"132 619 OFFCURVE",
"147 636 CURVE SMOOTH"
);
},
{
closed = 1;
nodes = (
"241 186 OFFCURVE",
"267 198 OFFCURVE",
"300 198 CURVE SMOOTH",
"349 198 OFFCURVE",
"403 163 OFFCURVE",
"403 98 CURVE SMOOTH",
"403 51 OFFCURVE",
"369 0 OFFCURVE",
"301 0 CURVE SMOOTH",
"253 0 OFFCURVE",
"200 35 OFFCURVE",
"200 100 CURVE SMOOTH",
"200 123 OFFCURVE",
"207 144 OFFCURVE",
"222 162 CURVE SMOOTH"
);
},
{
closed = 1;
nodes = (
"176 550 OFFCURVE",
"198 528 OFFCURVE",
"225 528 CURVE SMOOTH",
"252 528 OFFCURVE",
"274 549 OFFCURVE",
"274 576 CURVE SMOOTH",
"274 603 OFFCURVE",
"253 624 OFFCURVE",
"226 624 CURVE SMOOTH",
"199 624 OFFCURVE",
"176 602 OFFCURVE",
"176 577 CURVE SMOOTH"
);
},
{
closed = 1;
nodes = (
"253 73 OFFCURVE",
"275 51 OFFCURVE",
"302 51 CURVE SMOOTH",
"329 51 OFFCURVE",
"351 73 OFFCURVE",
"351 98 CURVE SMOOTH",
"351 125 OFFCURVE",
"329 147 OFFCURVE",
"302 147 CURVE SMOOTH",
"275 147 OFFCURVE",
"253 125 OFFCURVE",
"253 100 CURVE SMOOTH"
);
}
);
width = 554;
}
);
unicode = 0025;
},
{
export = 0;
glyphname = apostrophe;
lastChange = "2015-06-22 15:06:21 +0000";
layers = (
{
layerId = "C18F3EFD-FA9C-4751-AD2F-5B966120D1A5";
name = Regular;
paths = (
{
closed = 1;
nodes = (
"18 522 LINE",
"159 522 LINE",
"159 349 LINE",
"18 349 LINE"
);
}
);
width = 60;
},
{
layerId = "AA78C373-A874-4B43-A7A1-B39102DDD1E4";
name = Bold;
paths = (
{
closed = 1;
nodes = (
"18 522 LINE",
"159 522 LINE",
"159 349 LINE",
"18 349 LINE"
);
}
);
width = 60;
}
);
unicode = 0027;
},
{
export = 0;
glyphname = parenleft;
lastChange = "2015-06-22 15:06:21 +0000";
layers = (
{
layerId = "C18F3EFD-FA9C-4751-AD2F-5B966120D1A5";
name = Regular;
paths = (
{
closed = 1;
nodes = (
"236 618 LINE",
"135 494 OFFCURVE",
"95 403 OFFCURVE",
"95 263 CURVE",
"95 263 OFFCURVE",
"95 261 OFFCURVE",
"95 257 CURVE SMOOTH",
"95 118 OFFCURVE",
"135 6 OFFCURVE",
"234 -111 CURVE",
"234 -122 LINE",
"102 -32 OFFCURVE",
"36 91 OFFCURVE",
"36 248 CURVE",
"36 248 OFFCURVE",
"36 251 OFFCURVE",
"36 258 CURVE SMOOTH",
"36 261 OFFCURVE",
"36 264 OFFCURVE",
"36 267 CURVE SMOOTH",
"36 414 OFFCURVE",
"96 531 OFFCURVE",
"236 627 CURVE"
);
}
);
width = 261;
},
{
layerId = "AA78C373-A874-4B43-A7A1-B39102DDD1E4";
name = Bold;
width = 600;
}
);
unicode = 0028;
},
{
export = 0;
glyphname = parenright;
lastChange = "2015-06-22 15:06:21 +0000";
layers = (
{
layerId = "C18F3EFD-FA9C-4751-AD2F-5B966120D1A5";
name = Regular;
paths = (
{
closed = 1;
nodes = (
"236 267 OFFCURVE",
"236 264 OFFCURVE",
"236 259 CURVE SMOOTH",
"236 254 OFFCURVE",
"236 251 OFFCURVE",
"236 248 CURVE SMOOTH",
"233 91 OFFCURVE",
"166 -33 OFFCURVE",
"37 -122 CURVE",
"37 -111 LINE",
"136 5 OFFCURVE",
"175 117 OFFCURVE",
"175 257 CURVE SMOOTH",
"175 263 LINE SMOOTH",
"175 265 OFFCURVE",
"175 267 OFFCURVE",
"175 269 CURVE SMOOTH",
"175 401 OFFCURVE",
"133 498 OFFCURVE",
"36 618 CURVE",
"36 627 LINE",
"169 531 OFFCURVE",
"236 412 OFFCURVE",
"236 270 CURVE SMOOTH"
);
}
);
width = 261;
},
{
layerId = "AA78C373-A874-4B43-A7A1-B39102DDD1E4";
name = Bold;
width = 600;
}
);
unicode = 0029;
},
{
export = 0;
glyphname = asterisk;
lastChange = "2015-06-22 15:06:21 +0000";
layers = (
{
layerId = "C18F3EFD-FA9C-4751-AD2F-5B966120D1A5";
name = Regular;
paths = (
{
closed = 1;
nodes = (
"182 320 OFFCURVE",
"173 324 OFFCURVE",
"167 332 CURVE",
"161 339 OFFCURVE",
"158 351 OFFCURVE",
"158 364 CURVE SMOOTH",
"158 372 OFFCURVE",
"162 387 OFFCURVE",
"167 399 CURVE SMOOTH",
"169 404 OFFCURVE",
"171 410 OFFCURVE",
"174 415 CURVE",
"176 420 OFFCURVE",
"177 423 OFFCURVE",
"177 424 CURVE",
"180 434 OFFCURVE",
"183 449 OFFCURVE",
"186 469 CURVE",
"171 464 OFFCURVE",
"157 454 OFFCURVE",
"146 440 CURVE SMOOTH",
"137 429 OFFCURVE",
"122 412 OFFCURVE",
"99 391 CURVE",
"92 387 OFFCURVE",
"85 385 OFFCURVE",
"77 385 CURVE SMOOTH",
"56 385 OFFCURVE",
"46 395 OFFCURVE",
"46 414 CURVE SMOOTH",
"46 438 OFFCURVE",
"62 452 OFFCURVE",
"95 456 CURVE SMOOTH",
"129 460 LINE SMOOTH",
"138 461 OFFCURVE",
"156 468 OFFCURVE",
"182 480 CURVE",
"161 493 OFFCURVE",
"133 502 OFFCURVE",
"99 505 CURVE SMOOTH",
"63 508 OFFCURVE",
"45 522 OFFCURVE",
"45 546 CURVE SMOOTH",
"45 566 OFFCURVE",
"56 576 OFFCURVE",
"77 576 CURVE SMOOTH",
"90 576 OFFCURVE",
"101 572 OFFCURVE",
"108 564 CURVE SMOOTH",
"127 541 OFFCURVE",
"147 516 OFFCURVE",
"186 489 CURVE",
"186 493 OFFCURVE",
"186 497 OFFCURVE",
"186 502 CURVE SMOOTH",
"186 527 OFFCURVE",
"180 550 OFFCURVE",
"168 571 CURVE",
"163 581 OFFCURVE",
"160 591 OFFCURVE",
"160 602 CURVE SMOOTH",
"160 628 OFFCURVE",
"171 641 OFFCURVE",
"193 641 CURVE SMOOTH",
"214 641 OFFCURVE",
"224 628 OFFCURVE",
"224 603 CURVE SMOOTH",
"224 596 OFFCURVE",
"221 584 OFFCURVE",
"215 568 CURVE",
"208 552 OFFCURVE",
"205 544 OFFCURVE",
"205 543 CURVE",
"200 523 OFFCURVE",
"198 505 OFFCURVE",
"197 489 CURVE",
"205 494 OFFCURVE",
"218 504 OFFCURVE",
"236 520 CURVE",
"242 529 OFFCURVE",
"255 544 OFFCURVE",
"275 565 CURVE",
"283 572 OFFCURVE",
"293 575 OFFCURVE",
"305 575 CURVE SMOOTH",
"328 575 OFFCURVE",
"339 565 OFFCURVE",
"339 546 CURVE SMOOTH",
"339 530 OFFCURVE",
"334 521 OFFCURVE",
"319 514 CURVE SMOOTH",
"303 507 OFFCURVE",
"300 507 OFFCURVE",
"276 504 CURVE SMOOTH",
"263 502 OFFCURVE",
"256 501 OFFCURVE",
"254 500 CURVE",
"239 497 OFFCURVE",
"222 490 OFFCURVE",
"203 481 CURVE",
"214 474 OFFCURVE",
"244 466 OFFCURVE",
"294 456 CURVE SMOOTH",
"323 450 OFFCURVE",
"338 436 OFFCURVE",
"338 415 CURVE SMOOTH",
"338 394 OFFCURVE",
"328 383 OFFCURVE",
"307 383 CURVE SMOOTH",
"286 383 OFFCURVE",
"271 398 OFFCURVE",
"256 420 CURVE SMOOTH",
"248 431 OFFCURVE",
"242 438 OFFCURVE",
"238 441 CURVE",
"229 450 OFFCURVE",
"215 459 OFFCURVE",
"198 470 CURVE",
"198 467 OFFCURVE",
"198 465 OFFCURVE",
"198 463 CURVE SMOOTH",
"198 434 OFFCURVE",
"202 415 OFFCURVE",
"214 390 CURVE",
"220 379 OFFCURVE",
"223 369 OFFCURVE",
"223 360 CURVE SMOOTH",
"223 333 OFFCURVE",
"212 320 OFFCURVE",
"191 320 CURVE SMOOTH"
);
}
);
width = 383;
},
{
layerId = "AA78C373-A874-4B43-A7A1-B39102DDD1E4";
name = Bold;
paths = (
{
closed = 1;
nodes = (
"236 641 OFFCURVE",
"225 590 OFFCURVE",
"216 570 CURVE SMOOTH",
"210 557 OFFCURVE",
"206 548 OFFCURVE",
"205 543 CURVE",
"200 523 OFFCURVE",
"198 505 OFFCURVE",
"197 489 CURVE",
"205 494 OFFCURVE",
"218 504 OFFCURVE",
"236 520 CURVE",
"242 529 OFFCURVE",
"255 544 OFFCURVE",
"275 565 CURVE",
"283 572 OFFCURVE",
"293 575 OFFCURVE",
"305 575 CURVE SMOOTH",
"328 575 OFFCURVE",
"339 565 OFFCURVE",
"339 546 CURVE SMOOTH",
"339 521 OFFCURVE",
"319 509 OFFCURVE",
"292 506 CURVE",
"265 502 OFFCURVE",
"240 500 OFFCURVE",
"203 481 CURVE",
"216 473 OFFCURVE",
"233 467 OFFCURVE",
"254 463 CURVE",
"281 459 OFFCURVE",
"310 456 OFFCURVE",
"326 442 CURVE SMOOTH",
"334 435 OFFCURVE",
"338 426 OFFCURVE",
"338 415 CURVE SMOOTH",
"338 394 OFFCURVE",
"328 383 OFFCURVE",
"307 383 CURVE SMOOTH",
"284 383 OFFCURVE",
"273 397 OFFCURVE",
"258 418 CURVE SMOOTH",
"243 438 OFFCURVE",
"233 449 OFFCURVE",
"198 470 CURVE",
"197 441 OFFCURVE",
"201 418 OFFCURVE",
"214 390 CURVE",
"220 379 OFFCURVE",
"223 369 OFFCURVE",
"223 360 CURVE SMOOTH",
"223 308 OFFCURVE",
"163 306 OFFCURVE",
"158 358 CURVE SMOOTH",
"157 369 OFFCURVE",
"159 380 OFFCURVE",
"164 391 CURVE SMOOTH",
"179 427 OFFCURVE",
"179 429 OFFCURVE",
"186 469 CURVE",
"171 464 OFFCURVE",
"157 454 OFFCURVE",
"146 440 CURVE SMOOTH",
"137 429 OFFCURVE",
"122 412 OFFCURVE",
"99 391 CURVE",
"92 387 OFFCURVE",
"85 385 OFFCURVE",
"77 385 CURVE SMOOTH",
"56 385 OFFCURVE",
"46 395 OFFCURVE",
"46 414 CURVE SMOOTH",
"46 445 OFFCURVE",
"72 453 OFFCURVE",
"95 456 CURVE SMOOTH",
"118 459 OFFCURVE",
"130 456 OFFCURVE",
"182 480 CURVE",
"165 491 OFFCURVE",
"136 501 OFFCURVE",
"99 505 CURVE SMOOTH",
"68 508 OFFCURVE",
"45 519 OFFCURVE",
"45 546 CURVE SMOOTH",
"45 566 OFFCURVE",
"56 576 OFFCURVE",
"77 576 CURVE SMOOTH",
"90 576 OFFCURVE",
"101 572 OFFCURVE",
"108 564 CURVE SMOOTH",
"127 541 OFFCURVE",
"147 516 OFFCURVE",
"186 489 CURVE",
"187 508 OFFCURVE",
"186 527 OFFCURVE",
"181 544 CURVE",
"180 549 OFFCURVE",
"175 558 OFFCURVE",
"168 571 CURVE SMOOTH",
"163 581 OFFCURVE",
"160 591 OFFCURVE",
"160 602 CURVE SMOOTH",
"160 628 OFFCURVE",
"171 641 OFFCURVE",
"193 641 CURVE SMOOTH"
);
}
);
width = 383;
}
);
unicode = 002A;
},
{
export = 0;
glyphname = plus;
lastChange = "2015-06-22 15:06:21 +0000";
layers = (
{
layerId = "C18F3EFD-FA9C-4751-AD2F-5B966120D1A5";
name = Regular;
paths = (
{
closed = 1;
nodes = (
"58 226 LINE",
"200 226 LINE",
"200 354 LINE",
"250 354 LINE",
"250 226 LINE",
"394 226 LINE",
"394 185 LINE",
"250 185 LINE",
"250 60 LINE",
"200 60 LINE",
"200 185 LINE",
"58 185 LINE"
);
}
);
width = 470;
},
{
layerId = "AA78C373-A874-4B43-A7A1-B39102DDD1E4";
name = Bold;
paths = (
{
closed = 1;
nodes = (
"46 230 LINE",
"182 230 LINE",
"182 354 LINE",
"236 354 LINE",
"236 230 LINE",
"373 230 LINE",
"373 183 LINE",
"236 183 LINE",
"236 60 LINE",
"182 60 LINE",
"182 183 LINE",
"46 183 LINE"
);
}
);
width = 436;
}
);
unicode = 002B;
},
{
export = 0;
glyphname = comma;
lastChange = "2015-06-22 15:06:21 +0000";
layers = (
{
layerId = "C18F3EFD-FA9C-4751-AD2F-5B966120D1A5";
name = Regular;
paths = (
{
closed = 1;
nodes = (
"131 97 OFFCURVE",
"151 64 OFFCURVE",
"151 19 CURVE SMOOTH",
"151 -16 OFFCURVE",
"145 -30 OFFCURVE",
"124 -62 CURVE SMOOTH",
"112 -79 OFFCURVE",
"101 -92 OFFCURVE",
"91 -101 CURVE",
"57 -99 LINE",
"86 -70 OFFCURVE",
"101 -44 OFFCURVE",
"101 -21 CURVE SMOOTH",
"101 -2 OFFCURVE",
"91 9 OFFCURVE",
"72 12 CURVE",
"56 16 OFFCURVE",
"41 30 OFFCURVE",
"41 49 CURVE SMOOTH",
"41 74 OFFCURVE",
"65 97 OFFCURVE",
"92 97 CURVE SMOOTH"
);
}
);
width = 202;
},
{
layerId = "AA78C373-A874-4B43-A7A1-B39102DDD1E4";
name = Bold;
paths = (
{
closed = 1;
nodes = (
"39 47 OFFCURVE",
"38 53 OFFCURVE",
"38 60 CURVE SMOOTH",
"38 92 OFFCURVE",
"72 115 OFFCURVE",
"108 110 CURVE SMOOTH",
"145 104 OFFCURVE",
"163 74 OFFCURVE",
"163 20 CURVE SMOOTH",
"163 10 OFFCURVE",
"162 0 OFFCURVE",
"160 -9 CURVE",
"155 -37 OFFCURVE",
"118 -85 OFFCURVE",
"95 -105 CURVE",
"57 -99 LINE",
"86 -70 OFFCURVE",
"101 -44 OFFCURVE",
"101 -21 CURVE SMOOTH",
"101 -5 OFFCURVE",
"97 7 OFFCURVE",
"70 16 CURVE SMOOTH",
"57 20 OFFCURVE",
"47 28 OFFCURVE",
"42 41 CURVE"
);
}
);
width = 202;
}
);
unicode = 002C;
},
{
export = 0;
glyphname = short_dash1;
lastChange = "2015-06-22 15:06:21 +0000";
layers = (
{
layerId = "C18F3EFD-FA9C-4751-AD2F-5B966120D1A5";
name = Regular;
paths = (
{
closed = 1;
nodes = (
"43 234 LINE",
"271 234 LINE",
"271 187 LINE",
"43 187 LINE"
);
}
);
width = 344;
},
{
layerId = "AA78C373-A874-4B43-A7A1-B39102DDD1E4";
name = Bold;
paths = (
{
closed = 1;
nodes = (
"43 226 LINE",
"245 226 LINE",
"245 187 LINE",
"43 187 LINE"
);
}
);
width = 297;
}
);
unicode = 002D;
},
{
glyphname = dot;
lastChange = "2015-06-22 15:06:57 +0000";
layers = (
{
layerId = "C18F3EFD-FA9C-4751-AD2F-5B966120D1A5";
name = Regular;
paths = (
{
closed = 1;
nodes = (
"46 18 OFFCURVE",
"41 30 OFFCURVE",
"41 45 CURVE SMOOTH",
"41 74 OFFCURVE",
"67 99 OFFCURVE",
"96 99 CURVE SMOOTH",
"125 99 OFFCURVE",
"151 74 OFFCURVE",
"151 46 CURVE SMOOTH",
"151 15 OFFCURVE",
"126 -9 OFFCURVE",
"95 -9 CURVE SMOOTH",
"80 -9 OFFCURVE",
"68 -4 OFFCURVE",
"57 7 CURVE SMOOTH"
);
}
);
width = 208;
},
{
layerId = "AA78C373-A874-4B43-A7A1-B39102DDD1E4";
name = Bold;
paths = (
{
closed = 1;
nodes = (
"60 100 OFFCURVE",
"77 108 OFFCURVE",
"98 108 CURVE SMOOTH",
"125 108 OFFCURVE",
"157 91 OFFCURVE",
"157 50 CURVE SMOOTH",
"157 25 OFFCURVE",
"141 -8 OFFCURVE",
"98 -8 CURVE SMOOTH",
"71 -8 OFFCURVE",
"39 9 OFFCURVE",
"39 50 CURVE SMOOTH",
"39 63 OFFCURVE",
"42 74 OFFCURVE",
"49 84 CURVE SMOOTH"
);
}
);
width = 208;
}
);
unicode = 002E;
},
{
export = 0;
glyphname = slash;
lastChange = "2015-06-22 15:06:21 +0000";
layers = (
{
layerId = "C18F3EFD-FA9C-4751-AD2F-5B966120D1A5";
name = Regular;
paths = (
{
closed = 1;
nodes = (
"329 607 LINE",
"356 607 LINE",
"74 -32 LINE",
"49 -32 LINE"
);
}
);
width = 407;
},
{
layerId = "AA78C373-A874-4B43-A7A1-B39102DDD1E4";
name = Bold;
paths = (
{
closed = 1;
nodes = (
"315 607 LINE",
"356 607 LINE",
"89 -32 LINE",
"49 -32 LINE"
);
}
);
width = 407;
}
);
unicode = 002F;
},
{
glyphname = zero;
lastChange = "2015-06-26 16:50:30 +0000";
layers = (
{
background = {
paths = (
{
closed = 1;
nodes = (
"398 415 OFFCURVE",
"412 354 OFFCURVE",
"412 283 CURVE SMOOTH",
"412 170 OFFCURVE",
"377 -4 OFFCURVE",
"217 -4 CURVE SMOOTH",
"106 -4 OFFCURVE",
"27 98 OFFCURVE",
"27 281 CURVE SMOOTH",
"27 422 OFFCURVE",
"80 565 OFFCURVE",
"224 565 CURVE SMOOTH",
"287 565 OFFCURVE",
"336 532 OFFCURVE",
"371 466 CURVE SMOOTH"
);
},
{
closed = 1;
nodes = (
"169 540 OFFCURVE",
"135 509 OFFCURVE",
"119 453 CURVE SMOOTH",
"102 397 OFFCURVE",
"96 343 OFFCURVE",
"96 268 CURVE SMOOTH",
"96 157 OFFCURVE",
"110 25 OFFCURVE",
"223 25 CURVE SMOOTH",
"323 25 OFFCURVE",
"343 109 OFFCURVE",
"343 286 CURVE SMOOTH",
"343 401 OFFCURVE",
"333 540 OFFCURVE",
"220 540 CURVE SMOOTH"
);
}
);
};
layerId = "C18F3EFD-FA9C-4751-AD2F-5B966120D1A5";
name = Regular;
width = 454;
},
{
background = {
paths = (
{
closed = 1;
nodes = (
"314 165 OFFCURVE",
"314 355 OFFCURVE",
"296 434 CURVE SMOOTH",
"278 513 OFFCURVE",
"260 540 OFFCURVE",
"220 540 CURVE SMOOTH",
"179 540 OFFCURVE",
"160 508 OFFCURVE",
"141 427 CURVE SMOOTH",
"131 384 OFFCURVE",
"126 331 OFFCURVE",
"126 268 CURVE SMOOTH",
"126 209 OFFCURVE",
"131 159 OFFCURVE",
"141 120 CURVE SMOOTH",
"160 49 OFFCURVE",
"177 25 OFFCURVE",
"221 25 CURVE SMOOTH",
"257 25 OFFCURVE",
"269 39 OFFCURVE",
"286 86 CURVE SMOOTH"
);
},
{
closed = 1;
nodes = (
"398 415 OFFCURVE",
"412 354 OFFCURVE",
"412 283 CURVE SMOOTH",
"412 170 OFFCURVE",
"377 -4 OFFCURVE",
"217 -4 CURVE SMOOTH",
"106 -4 OFFCURVE",
"27 98 OFFCURVE",
"27 281 CURVE SMOOTH",
"27 422 OFFCURVE",
"79 564 OFFCURVE",
"222 565 CURVE SMOOTH",
"286 566 OFFCURVE",
"336 533 OFFCURVE",
"371 466 CURVE SMOOTH"
);
}
);
};
layerId = "AA78C373-A874-4B43-A7A1-B39102DDD1E4";
name = Bold;
width = 454;
}
);
unicode = 0030;
},
{
glyphname = one;
lastChange = "2015-06-26 16:49:30 +0000";
layers = (
{
background = {
paths = (
{
closed = 1;
nodes = (
"239 486 LINE",
"67 380 LINE",
"81 358 LINE",
"218 438 LINE",
"218 32 LINE",
"87 20 LINE",
"87 0 LINE",
"409 0 LINE",
"409 15 OFFCURVE",
"400 18 OFFCURVE",
"385 20 CURVE SMOOTH",
"292 32 LINE",
"292 486 LINE"
);
}
);
};
guideLines = (
{
position = "{380, 486}";
}
);
layerId = "C18F3EFD-FA9C-4751-AD2F-5B966120D1A5";
name = Regular;
paths = (
{
closed = 1;
nodes = (
"244 610 LINE",
"25 475 LINE",
"43 446 LINE",
"217 548 LINE",
"217 41 LINE",
"50 26 LINE",
"50 0 LINE",
"451 0 LINE",
"451 19 OFFCURVE",
"440 23 OFFCURVE",
"420 26 CURVE SMOOTH",
"302 41 LINE",
"302 610 LINE"
);
}
);
width = 471;
},
{
background = {
paths = (
{
closed = 1;
nodes = (
"226 487 LINE",
"54 380 LINE",
"68 358 LINE",
"205 438 LINE",
"205 32 LINE",
"74 20 LINE",
"74 0 LINE",
"396 0 LINE",
"396 15 OFFCURVE",
"387 18 OFFCURVE",
"372 20 CURVE SMOOTH",
"279 32 LINE",
"279 486 LINE"
);
}
);
};
layerId = "AA78C373-A874-4B43-A7A1-B39102DDD1E4";
name = Bold;
paths = (
{
closed = 1;
nodes = (
"243 610 LINE",
"25 475 LINE",
"43 447 LINE",
"192 534 LINE",
"192 41 LINE",
"50 26 LINE",
"50 0 LINE",
"443 0 LINE",
"443 19 OFFCURVE",
"432 22 OFFCURVE",
"412 26 CURVE SMOOTH",
"332 41 LINE",
"332 610 LINE"
);
}
);
width = 463;
}
);
unicode = 0031;
},
{
glyphname = two;
lastChange = "2015-06-26 16:50:18 +0000";
layers = (
{
background = {
paths = (
{
closed = 1;
nodes = (
"292 47 LINE SMOOTH",
"328 47 OFFCURVE",
"355 64 OFFCURVE",
"366 79 CURVE SMOOTH",
"371 86 OFFCURVE",
"380 99 OFFCURVE",
"392 118 CURVE",
"407 113 LINE",
"360 -1 LINE",
"28 -1 LINE",
"28 9 LINE",
"123 106 OFFCURVE",
"191 182 OFFCURVE",
"234 238 CURVE SMOOTH",
"276 293 OFFCURVE",
"297 341 OFFCURVE",
"297 380 CURVE SMOOTH",
"297 455 OFFCURVE",
"249 513 OFFCURVE",
"180 513 CURVE SMOOTH",
"109 513 OFFCURVE",
"68 461 OFFCURVE",
"55 392 CURVE",
"29 396 LINE",
"52 507 OFFCURVE",
"111 563 OFFCURVE",
"206 563 CURVE SMOOTH",
"295 563 OFFCURVE",
"362 502 OFFCURVE",
"362 414 CURVE SMOOTH",
"362 369 OFFCURVE",
"347 326 OFFCURVE",
"316 284 CURVE SMOOTH",
"275 229 OFFCURVE",
"204 150 OFFCURVE",
"101 47 CURVE"
);
}
);
};
layerId = "C18F3EFD-FA9C-4751-AD2F-5B966120D1A5";
name = Regular;
width = 447;
},
{
background = {
paths = (
{
closed = 1;
nodes = (
"28 9 LINE",
"132 115 OFFCURVE",
"198 192 OFFCURVE",
"227 240 CURVE SMOOTH",
"252 281 OFFCURVE",
"264 320 OFFCURVE",
"264 357 CURVE SMOOTH",
"264 429 OFFCURVE",
"211 481 OFFCURVE",
"151 481 CURVE SMOOTH",
"103 481 OFFCURVE",
"63 451 OFFCURVE",
"51 392 CURVE",
"29 396 LINE",
"52 507 OFFCURVE",
"111 563 OFFCURVE",
"206 563 CURVE SMOOTH",
"295 563 OFFCURVE",
"362 503 OFFCURVE",
"362 414 CURVE SMOOTH",
"362 369 OFFCURVE",
"346 326 OFFCURVE",
"315 283 CURVE SMOOTH",
"284 240 OFFCURVE",
"220 172 OFFCURVE",
"125 77 CURVE",
"300 77 LINE SMOOTH",
"326 77 OFFCURVE",
"346 81 OFFCURVE",
"359 90 CURVE",
"368 95 OFFCURVE",
"375 98 OFFCURVE",
"388 118 CURVE",
"407 113 LINE",
"360 -1 LINE",
"28 -1 LINE"
);
}
);
};
layerId = "AA78C373-A874-4B43-A7A1-B39102DDD1E4";
name = Bold;
paths = (
{
closed = 1;
nodes = (
"28 9 LINE",
"132 115 OFFCURVE",
"198 192 OFFCURVE",
"227 240 CURVE SMOOTH",
"252 281 OFFCURVE",
"264 320 OFFCURVE",
"264 357 CURVE SMOOTH",
"264 429 OFFCURVE",
"211 481 OFFCURVE",
"151 481 CURVE SMOOTH",
"103 481 OFFCURVE",
"63 451 OFFCURVE",
"51 392 CURVE",
"29 396 LINE",
"52 507 OFFCURVE",
"111 563 OFFCURVE",
"206 563 CURVE SMOOTH",
"295 563 OFFCURVE",
"362 503 OFFCURVE",
"362 414 CURVE SMOOTH",
"362 369 OFFCURVE",
"346 326 OFFCURVE",
"315 283 CURVE SMOOTH",
"284 240 OFFCURVE",
"220 172 OFFCURVE",
"125 77 CURVE",
"300 77 LINE SMOOTH",
"326 77 OFFCURVE",
"346 81 OFFCURVE",
"359 90 CURVE",
"368 95 OFFCURVE",
"375 98 OFFCURVE",
"388 118 CURVE",
"407 113 LINE",
"360 -1 LINE",
"28 -1 LINE"
);
}
);
width = 447;
}
);
unicode = 0032;
},
{
glyphname = three;
lastChange = "2015-06-26 16:50:34 +0000";
layers = (
{
background = {
paths = (
{
closed = 1;
nodes = (
"28 55 OFFCURVE",
"41 67 OFFCURVE",
"61 67 CURVE SMOOTH",
"78 67 OFFCURVE",
"97 60 OFFCURVE",
"118 47 CURVE SMOOTH",
"134 37 OFFCURVE",
"156 32 OFFCURVE",
"184 32 CURVE SMOOTH",
"255 32 OFFCURVE",
"297 79 OFFCURVE",
"297 156 CURVE SMOOTH",
"297 229 OFFCURVE",
"248 284 OFFCURVE",
"184 284 CURVE SMOOTH",
"182 284 OFFCURVE",
"180 284 OFFCURVE",
"177 284 CURVE",
"174 283 OFFCURVE",
"170 283 OFFCURVE",
"167 283 CURVE",
"164 282 OFFCURVE",
"160 282 OFFCURVE",
"157 281 CURVE SMOOTH",
"154 280 OFFCURVE",
"151 280 OFFCURVE",
"148 280 CURVE",
"145 279 OFFCURVE",
"142 279 OFFCURVE",
"140 278 CURVE",
"137 277 OFFCURVE",
"135 277 OFFCURVE",
"134 277 CURVE",
"132 276 OFFCURVE",
"131 276 OFFCURVE",
"131 276 CURVE SMOOTH",
"130 276 OFFCURVE",
"124 274 OFFCURVE",
"120 273 CURVE",
"119 293 LINE",
"222 328 OFFCURVE",
"267 357 OFFCURVE",
"267 437 CURVE SMOOTH",
"267 481 OFFCURVE",
"233 520 OFFCURVE",
"176 520 CURVE SMOOTH",
"143 520 OFFCURVE",
"121 510 OFFCURVE",
"88 479 CURVE SMOOTH",
"75 467 OFFCURVE",
"63 446 OFFCURVE",
"53 417 CURVE",
"29 427 LINE",
"42 479 OFFCURVE",
"72 520 OFFCURVE",
"120 545 CURVE SMOOTH",
"144 557 OFFCURVE",
"171 563 OFFCURVE",
"200 563 CURVE SMOOTH",
"273 563 OFFCURVE",
"329 518 OFFCURVE",
"329 449 CURVE SMOOTH",
"329 398 OFFCURVE",
"299 367 OFFCURVE",
"246 331 CURVE",
"303 320 OFFCURVE",
"360 263 OFFCURVE",
"360 184 CURVE SMOOTH",
"360 61 OFFCURVE",
"249 -9 OFFCURVE",
"120 -9 CURVE SMOOTH",
"87 -9 OFFCURVE",
"64 -4 OFFCURVE",
"50 5 CURVE SMOOTH",
"35 14 OFFCURVE",
"28 25 OFFCURVE",
"28 38 CURVE SMOOTH"
);
}
);
};
layerId = "C18F3EFD-FA9C-4751-AD2F-5B966120D1A5";
name = Regular;
width = 401;
},
{
background = {
paths = (
{
closed = 1;
nodes = (
"265 30 OFFCURVE",
"288 77 OFFCURVE",
"287 140 CURVE SMOOTH",
"284 216 OFFCURVE",
"231 268 OFFCURVE",
"164 276 CURVE",
"164 276 OFFCURVE",
"154 276 OFFCURVE",
"133 276 CURVE SMOOTH",
"132 276 OFFCURVE",
"128 275 OFFCURVE",
"120 273 CURVE",
"119 295 LINE",
"176 315 OFFCURVE",
"197 322 OFFCURVE",
"220 342 CURVE SMOOTH",
"253 371 OFFCURVE",
"261 428 OFFCURVE",
"224 471 CURVE SMOOTH",
"209 488 OFFCURVE",
"186 497 OFFCURVE",
"157 497 CURVE SMOOTH",
"101 497 OFFCURVE",
"70 471 OFFCURVE",
"47 419 CURVE",
"29 427 LINE",
"50 508 OFFCURVE",
"113 562 OFFCURVE",
"197 563 CURVE SMOOTH",
"270 564 OFFCURVE",
"329 521 OFFCURVE",
"329 449 CURVE SMOOTH",
"329 397 OFFCURVE",
"295 364 OFFCURVE",
"244 327 CURVE",
"309 311 OFFCURVE",
"359 274 OFFCURVE",
"360 186 CURVE SMOOTH",
"361 62 OFFCURVE",
"249 -9 OFFCURVE",
"120 -9 CURVE SMOOTH",
"87 -9 OFFCURVE",
"64 -4 OFFCURVE",
"50 5 CURVE SMOOTH",
"35 14 OFFCURVE",
"28 25 OFFCURVE",
"28 38 CURVE SMOOTH",
"28 44 OFFCURVE",
"30 50 OFFCURVE",
"34 57 CURVE",
"43 66 OFFCURVE",
"53 71 OFFCURVE",
"63 71 CURVE SMOOTH",
"76 71 OFFCURVE",
"94 64 OFFCURVE",
"117 51 CURVE SMOOTH",
"140 37 OFFCURVE",
"160 30 OFFCURVE",
"177 30 CURVE SMOOTH"
);
}
);
};
layerId = "AA78C373-A874-4B43-A7A1-B39102DDD1E4";
name = Bold;
width = 401;
}
);
unicode = 0033;
},
{
glyphname = four;
lastChange = "2015-06-26 16:50:38 +0000";
layers = (
{
background = {
paths = (
{
closed = 1;
nodes = (
"293 561 LINE",
"333 561 LINE",
"333 190 LINE",
"419 190 LINE",
"419 139 LINE",
"333 139 LINE",
"333 -1 LINE",
"262 -1 LINE",
"262 139 LINE",
"25 139 LINE",
"25 192 LINE"
);
},
{
closed = 1;
nodes = (
"260 464 LINE",
"63 190 LINE",
"260 190 LINE"
);
}
);
};
layerId = "C18F3EFD-FA9C-4751-AD2F-5B966120D1A5";
name = Regular;
width = 461;
},
{
background = {
paths = (
{
closed = 1;
nodes = (
"240 428 LINE",
"63 190 LINE",
"240 190 LINE"
);
},
{
closed = 1;
nodes = (
"293 561 LINE",
"333 561 LINE",
"333 190 LINE",
"419 190 LINE",
"419 139 LINE",
"333 139 LINE",
"333 -1 LINE",
"240 -1 LINE",
"240 139 LINE",
"25 139 LINE",
"25 192 LINE"
);
}
);
};
layerId = "AA78C373-A874-4B43-A7A1-B39102DDD1E4";
name = Bold;
width = 461;
}
);
unicode = 0034;
},
{
glyphname = five;
lastChange = "2015-06-26 16:50:43 +0000";
layers = (
{
background = {
paths = (
{
closed = 1;
nodes = (
"99 -8 OFFCURVE",
"69 -4 OFFCURVE",
"46 12 CURVE SMOOTH",
"34 20 OFFCURVE",
"28 30 OFFCURVE",
"28 43 CURVE SMOOTH",
"28 67 OFFCURVE",
"52 73 OFFCURVE",
"65 73 CURVE SMOOTH",
"67 73 OFFCURVE",
"69 73 OFFCURVE",
"71 72 CURVE",
"78 70 OFFCURVE",
"95 63 OFFCURVE",
"120 51 CURVE",
"138 41 OFFCURVE",
"157 36 OFFCURVE",
"178 36 CURVE SMOOTH",
"255 36 OFFCURVE",
"309 91 OFFCURVE",
"309 160 CURVE SMOOTH",
"309 245 OFFCURVE",
"274 302 OFFCURVE",
"203 331 CURVE SMOOTH",
"166 346 OFFCURVE",
"131 354 OFFCURVE",
"99 354 CURVE SMOOTH",
"88 354 OFFCURVE",
"79 353 OFFCURVE",
"71 351 CURVE",
"62 352 OFFCURVE",
"58 353 OFFCURVE",
"58 354 CURVE",
"57 354 OFFCURVE",
"57 356 OFFCURVE",
"58 359 CURVE",
"148 555 LINE",
"321 555 LINE SMOOTH",
"334 555 OFFCURVE",
"347 561 OFFCURVE",
"350 564 CURVE SMOOTH",
"351 565 OFFCURVE",
"356 569 OFFCURVE",
"364 576 CURVE",
"373 570 LINE",
"340 498 LINE",
"340 493 OFFCURVE",
"331 491 OFFCURVE",
"314 491 CURVE SMOOTH",
"152 491 LINE",
"114 411 LINE",
"191 408 OFFCURVE",
"255 388 OFFCURVE",
"301 349 CURVE SMOOTH",
"347 310 OFFCURVE",
"366 260 OFFCURVE",
"366 203 CURVE SMOOTH",
"366 79 OFFCURVE",
"266 -7 OFFCURVE",
"135 -8 CURVE SMOOTH"
);
}
);
};
layerId = "C18F3EFD-FA9C-4751-AD2F-5B966120D1A5";
name = Regular;
width = 407;
},
{
background = {
paths = (
{
closed = 1;
nodes = (
"173 26 OFFCURVE",
"236 24 OFFCURVE",
"263 72 CURVE SMOOTH",
"275 93 OFFCURVE",
"281 117 OFFCURVE",
"281 143 CURVE SMOOTH",
"281 198 OFFCURVE",
"252 262 OFFCURVE",
"211 293 CURVE SMOOTH",
"181 315 OFFCURVE",
"148 328 OFFCURVE",
"113 332 CURVE SMOOTH",
"105 333 OFFCURVE",
"88 330 OFFCURVE",
"63 323 CURVE",
"53 330 OFFCURVE",
"49 336 OFFCURVE",
"50 339 CURVE",
"148 555 LINE",
"327 555 LINE SMOOTH",
"341 555 OFFCURVE",
"354 562 OFFCURVE",
"366 576 CURVE",
"373 570 LINE",
"344 500 LINE SMOOTH",
"340 490 OFFCURVE",
"335 485 OFFCURVE",
"330 484 CURVE",
"329 484 OFFCURVE",
"326 483 OFFCURVE",
"321 480 CURVE SMOOTH",
"316 477 OFFCURVE",
"312 475 OFFCURVE",
"310 475 CURVE SMOOTH",
"146 475 LINE",
"112 405 LINE",
"193 409 OFFCURVE",
"264 385 OFFCURVE",
"306 345 CURVE SMOOTH",
"348 305 OFFCURVE",
"366 260 OFFCURVE",
"366 203 CURVE SMOOTH",
"366 76 OFFCURVE",
"264 -7 OFFCURVE",
"135 -8 CURVE SMOOTH",
"87 -8 OFFCURVE",
"27 1 OFFCURVE",
"28 45 CURVE SMOOTH",
"29 68 OFFCURVE",
"63 81 OFFCURVE",
"78 76 CURVE",
"83 74 OFFCURVE",
"98 67 OFFCURVE",
"122 55 CURVE"
);
}
);
};
layerId = "AA78C373-A874-4B43-A7A1-B39102DDD1E4";
name = Bold;
width = 407;
}
);
unicode = 0035;
},
{
glyphname = six;
lastChange = "2015-06-26 16:50:46 +0000";
layers = (
{
background = {
paths = (
{
closed = 1;
nodes = (
"141 308 OFFCURVE",
"98 270 OFFCURVE",
"98 206 CURVE SMOOTH",
"98 109 OFFCURVE",
"158 24 OFFCURVE",
"223 24 CURVE SMOOTH",
"290 24 OFFCURVE",
"321 94 OFFCURVE",
"321 153 CURVE SMOOTH",
"321 242 OFFCURVE",
"301 308 OFFCURVE",
"201 308 CURVE SMOOTH"
);
},
{
closed = 1;
nodes = (
"331 353 OFFCURVE",
"390 282 OFFCURVE",
"390 183 CURVE SMOOTH",
"390 82 OFFCURVE",
"317 -8 OFFCURVE",
"217 -8 CURVE SMOOTH",
"101 -8 OFFCURVE",
"28 113 OFFCURVE",
"28 234 CURVE SMOOTH",
"28 426 OFFCURVE",
"196 559 OFFCURVE",
"371 562 CURVE",
"373 542 LINE",
"352 539 OFFCURVE",
"323 532 OFFCURVE",
"286 522 CURVE",
"223 494 OFFCURVE",
"191 472 OFFCURVE",
"152 408 CURVE SMOOTH",
"132 376 OFFCURVE",
"118 343 OFFCURVE",
"110 309 CURVE",
"142 338 OFFCURVE",
"185 353 OFFCURVE",
"238 353 CURVE SMOOTH"
);
}
);
};
layerId = "C18F3EFD-FA9C-4751-AD2F-5B966120D1A5";
name = Regular;
width = 431;
},
{
background = {
paths = (
{
closed = 1;
nodes = (
"125 -8 OFFCURVE",
"31 85 OFFCURVE",
"31 234 CURVE SMOOTH",
"31 427 OFFCURVE",
"200 558 OFFCURVE",
"373 561 CURVE",
"378 540 LINE",
"357 537 OFFCURVE",
"327 530 OFFCURVE",
"288 520 CURVE",
"241 501 OFFCURVE",
"215 481 OFFCURVE",
"170 409 CURVE SMOOTH",
"155 385 OFFCURVE",
"150 351 OFFCURVE",
"145 323 CURVE",
"173 342 OFFCURVE",
"205 352 OFFCURVE",
"241 352 CURVE SMOOTH",
"337 352 OFFCURVE",
"393 281 OFFCURVE",
"393 182 CURVE SMOOTH",
"393 82 OFFCURVE",
"319 -8 OFFCURVE",
"220 -8 CURVE SMOOTH"
);
},
{
closed = 1;
nodes = (
"270 292 OFFCURVE",
"243 313 OFFCURVE",
"205 313 CURVE SMOOTH",
"165 313 OFFCURVE",
"145 256 OFFCURVE",
"142 191 CURVE SMOOTH",
"139 120 OFFCURVE",
"169 18 OFFCURVE",
"224 18 CURVE SMOOTH",
"253 18 OFFCURVE",
"263 32 OFFCURVE",
"279 67 CURVE SMOOTH",
"299 111 OFFCURVE",
"305 197 OFFCURVE",
"285 250 CURVE SMOOTH"
);
}
);
};
layerId = "AA78C373-A874-4B43-A7A1-B39102DDD1E4";
name = Bold;
width = 431;
}
);
unicode = 0036;
},
{
glyphname = seven;
lastChange = "2015-06-26 16:50:51 +0000";
layers = (
{
background = {
paths = (
{
closed = 1;
nodes = (
"22 428 LINE",
"39 467 OFFCURVE",
"56 507 OFFCURVE",
"72 549 CURVE",
"381 549 LINE",
"381 535 LINE",
"205 -1 LINE",
"154 -1 LINE",
"317 493 LINE",
"138 493 LINE SMOOTH",
"101 493 OFFCURVE",
"83 483 OFFCURVE",
"44 419 CURVE"
);
}
);
};
layerId = "C18F3EFD-FA9C-4751-AD2F-5B966120D1A5";
name = Regular;
width = 422;
},
{
background = {
paths = (
{
closed = 1;
nodes = (
"381 549 LINE",
"381 535 LINE",
"205 -1 LINE",
"154 -1 LINE",
"301 451 LINE",
"146 451 LINE SMOOTH",
"79 451 OFFCURVE",
"82 446 OFFCURVE",
"46 405 CURVE",
"22 418 LINE",
"31 441 OFFCURVE",
"42 468 OFFCURVE",
"54 498 CURVE",
"61 520 OFFCURVE",
"67 537 OFFCURVE",
"72 549 CURVE"
);
}
);
};
layerId = "AA78C373-A874-4B43-A7A1-B39102DDD1E4";
name = Bold;
width = 422;
}
);
unicode = 0037;
},
{
glyphname = eight;
lastChange = "2015-06-26 16:50:55 +0000";
layers = (
{
background = {
paths = (
{
closed = 1;
nodes = (
"101 -11 OFFCURVE",
"28 41 OFFCURVE",
"28 126 CURVE SMOOTH",
"28 191 OFFCURVE",
"77 241 OFFCURVE",
"137 280 CURVE",
"73 331 OFFCURVE",
"33 361 OFFCURVE",
"33 432 CURVE SMOOTH",
"33 511 OFFCURVE",
"106 562 OFFCURVE",
"197 562 CURVE SMOOTH",
"277 562 OFFCURVE",
"343 514 OFFCURVE",
"343 443 CURVE SMOOTH",
"343 379 OFFCURVE",
"289 339 OFFCURVE",
"222 303 CURVE",
"330 224 OFFCURVE",
"359 191 OFFCURVE",
"359 128 CURVE SMOOTH",
"359 44 OFFCURVE",
"287 -11 OFFCURVE",
"194 -11 CURVE SMOOTH"
);
},
{
closed = 1;
nodes = (
"169 531 OFFCURVE",
"155 528 OFFCURVE",
"143 523 CURVE SMOOTH",
"130 518 OFFCURVE",
"118 509 OFFCURVE",
"109 500 CURVE SMOOTH",
"100 491 OFFCURVE",
"93 480 OFFCURVE",
"90 468 CURVE SMOOTH",
"88 461 OFFCURVE",
"87 455 OFFCURVE",
"87 448 CURVE SMOOTH",
"87 404 OFFCURVE",
"145 347 OFFCURVE",
"194 316 CURVE",
"227 340 OFFCURVE",
"248 357 OFFCURVE",
"257 366 CURVE",
"274 389 OFFCURVE",
"282 413 OFFCURVE",
"282 438 CURVE SMOOTH",
"282 494 OFFCURVE",
"263 531 OFFCURVE",
"184 531 CURVE SMOOTH"
);
},
{
closed = 1;
nodes = (
"257 19 OFFCURVE",
"303 57 OFFCURVE",
"303 108 CURVE SMOOTH",
"303 135 OFFCURVE",
"293 158 OFFCURVE",
"273 179 CURVE SMOOTH",
"256 197 OFFCURVE",
"220 225 OFFCURVE",
"164 262 CURVE",
"97 217 OFFCURVE",
"88 177 OFFCURVE",
"88 134 CURVE SMOOTH",
"88 67 OFFCURVE",
"133 19 OFFCURVE",
"201 19 CURVE SMOOTH"
);
}
);
};
layerId = "C18F3EFD-FA9C-4751-AD2F-5B966120D1A5";
name = Regular;
width = 399;
},
{
background = {
paths = (
{
closed = 1;
nodes = (
"291 55 OFFCURVE",
"292 62 OFFCURVE",
"293 93 CURVE SMOOTH",
"294 138 OFFCURVE",
"235 199 OFFCURVE",
"154 254 CURVE",
"125 230 OFFCURVE",
"116 222 OFFCURVE",
"104 202 CURVE SMOOTH",
"92 181 OFFCURVE",
"86 158 OFFCURVE",
"86 132 CURVE SMOOTH",
"86 69 OFFCURVE",
"137 13 OFFCURVE",
"197 13 CURVE SMOOTH",
"229 13 OFFCURVE",
"254 21 OFFCURVE",
"272 38 CURVE SMOOTH"
);
},
{
closed = 1;
nodes = (
"292 412 OFFCURVE",
"295 478 OFFCURVE",
"259 514 CURVE",
"246 528 OFFCURVE",
"221 535 OFFCURVE",
"184 535 CURVE SMOOTH",
"136 535 OFFCURVE",
"96 499 OFFCURVE",
"96 470 CURVE SMOOTH",
"96 427 OFFCURVE",
"159 364 OFFCURVE",
"208 332 CURVE",
"221 340 OFFCURVE",
"237 352 OFFCURVE",
"257 368 CURVE"
);
},
{
closed = 1;
nodes = (
"43 364 OFFCURVE",
"33 394 OFFCURVE",
"33 432 CURVE SMOOTH",
"33 515 OFFCURVE",
"110 562 OFFCURVE",
"197 562 CURVE SMOOTH",
"274 562 OFFCURVE",
"343 518 OFFCURVE",
"343 443 CURVE SMOOTH",
"343 379 OFFCURVE",
"292 342 OFFCURVE",
"231 309 CURVE",
"310 252 OFFCURVE",
"359 196 OFFCURVE",
"359 128 CURVE SMOOTH",
"359 40 OFFCURVE",
"285 -11 OFFCURVE",
"194 -11 CURVE SMOOTH",
"101 -11 OFFCURVE",
"29 40 OFFCURVE",
"28 123 CURVE SMOOTH",
"27 191 OFFCURVE",
"76 239 OFFCURVE",
"133 276 CURVE",
"110 294 OFFCURVE",
"86 316 OFFCURVE",
"63 342 CURVE SMOOTH"
);
}
);
};
layerId = "AA78C373-A874-4B43-A7A1-B39102DDD1E4";
name = Bold;
width = 399;
}
);
unicode = 0038;
},
{
glyphname = nine;
lastChange = "2015-06-26 16:50:59 +0000";
layers = (
{
background = {
paths = (
{
closed = 1;
nodes = (
"97 297 OFFCURVE",
"139 243 OFFCURVE",
"215 243 CURVE SMOOTH",
"246 243 OFFCURVE",
"274 258 OFFCURVE",
"300 289 CURVE",
"305 296 OFFCURVE",
"310 306 OFFCURVE",
"313 318 CURVE SMOOTH",
"316 330 OFFCURVE",
"317 345 OFFCURVE",
"317 360 CURVE SMOOTH",
"317 439 OFFCURVE",
"279 530 OFFCURVE",
"196 530 CURVE SMOOTH",
"129 530 OFFCURVE",
"97 466 OFFCURVE",
"97 381 CURVE SMOOTH"
);
},
{
closed = 1;
nodes = (
"85 202 OFFCURVE",
"28 271 OFFCURVE",
"28 372 CURVE SMOOTH",
"28 472 OFFCURVE",
"101 562 OFFCURVE",
"200 562 CURVE SMOOTH",
"316 562 OFFCURVE",
"390 441 OFFCURVE",
"390 320 CURVE SMOOTH",
"390 128 OFFCURVE",
"220 -4 OFFCURVE",
"47 -7 CURVE",
"44 20 LINE",
"65 23 OFFCURVE",
"95 29 OFFCURVE",
"133 38 CURVE",
"164 50 OFFCURVE",
"186 62 OFFCURVE",
"201 74 CURVE SMOOTH",
"255 119 OFFCURVE",
"291 175 OFFCURVE",
"308 243 CURVE",
"275 216 OFFCURVE",
"233 202 OFFCURVE",
"180 202 CURVE SMOOTH"
);
}
);
};
layerId = "C18F3EFD-FA9C-4751-AD2F-5B966120D1A5";
name = Regular;
width = 431;
},
{
background = {
paths = (
{
closed = 1;
nodes = (
"316 562 OFFCURVE",
"390 441 OFFCURVE",
"390 320 CURVE SMOOTH",
"390 128 OFFCURVE",
"220 -4 OFFCURVE",
"47 -7 CURVE",
"42 14 LINE",
"64 17 OFFCURVE",
"94 24 OFFCURVE",
"133 34 CURVE",
"177 51 OFFCURVE",
"207 76 OFFCURVE",
"250 145 CURVE SMOOTH",
"265 169 OFFCURVE",
"270 203 OFFCURVE",
"275 231 CURVE",
"248 212 OFFCURVE",
"216 202 OFFCURVE",
"180 202 CURVE SMOOTH",
"83 202 OFFCURVE",
"28 272 OFFCURVE",
"28 372 CURVE SMOOTH",
"28 472 OFFCURVE",
"101 562 OFFCURVE",
"200 562 CURVE SMOOTH"
);
},
{
closed = 1;
nodes = (
"151 262 OFFCURVE",
"178 241 OFFCURVE",
"215 241 CURVE SMOOTH",
"255 241 OFFCURVE",
"275 298 OFFCURVE",
"278 363 CURVE SMOOTH",
"281 434 OFFCURVE",
"251 536 OFFCURVE",
"196 536 CURVE SMOOTH",
"167 536 OFFCURVE",
"156 522 OFFCURVE",
"141 487 CURVE SMOOTH",
"121 442 OFFCURVE",
"115 361 OFFCURVE",
"136 304 CURVE SMOOTH"
);
}
);
};
layerId = "AA78C373-A874-4B43-A7A1-B39102DDD1E4";
name = Bold;
width = 431;
}
);
unicode = 0039;
},
{
export = 0;
glyphname = colon;
lastChange = "2015-06-22 15:06:21 +0000";
layers = (
{
layerId = "C18F3EFD-FA9C-4751-AD2F-5B966120D1A5";
name = Regular;
paths = (
{
closed = 1;
nodes = (
"44 323 OFFCURVE",
"66 343 OFFCURVE",
"94 343 CURVE SMOOTH",
"122 343 OFFCURVE",
"143 320 OFFCURVE",
"143 293 CURVE SMOOTH",
"143 265 OFFCURVE",
"119 246 OFFCURVE",
"92 246 CURVE SMOOTH",
"64 246 OFFCURVE",
"44 267 OFFCURVE",
"44 294 CURVE SMOOTH"
);
},
{
closed = 1;
nodes = (
"49 103 OFFCURVE",
"44 115 OFFCURVE",
"44 129 CURVE SMOOTH",
"44 157 OFFCURVE",
"65 176 OFFCURVE",
"93 176 CURVE SMOOTH",
"122 176 OFFCURVE",
"143 153 OFFCURVE",
"143 126 CURVE SMOOTH",
"143 99 OFFCURVE",
"121 80 OFFCURVE",
"94 80 CURVE SMOOTH",
"80 80 OFFCURVE",
"68 85 OFFCURVE",
"59 94 CURVE"
);
}
);
width = 202;
},
{
layerId = "AA78C373-A874-4B43-A7A1-B39102DDD1E4";
name = Bold;
paths = (
{
closed = 1;
nodes = (
"62 170 OFFCURVE",
"76 176 OFFCURVE",
"93 176 CURVE SMOOTH",
"116 176 OFFCURVE",
"143 159 OFFCURVE",
"143 126 CURVE SMOOTH",
"143 99 OFFCURVE",
"121 80 OFFCURVE",
"94 80 CURVE SMOOTH",
"71 80 OFFCURVE",
"44 96 OFFCURVE",
"44 129 CURVE SMOOTH",
"44 140 OFFCURVE",
"47 149 OFFCURVE",
"53 157 CURVE"
);
},
{
closed = 1;
nodes = (
"63 336 OFFCURVE",
"77 343 OFFCURVE",
"94 343 CURVE SMOOTH",
"115 343 OFFCURVE",
"143 326 OFFCURVE",
"143 293 CURVE SMOOTH",
"143 272 OFFCURVE",
"125 246 OFFCURVE",
"92 246 CURVE SMOOTH",
"71 246 OFFCURVE",
"44 261 OFFCURVE",
"44 294 CURVE SMOOTH",
"44 305 OFFCURVE",
"47 315 OFFCURVE",
"53 323 CURVE SMOOTH"
);
}
);
width = 202;
}
);
unicode = 003A;
},
{
export = 0;
glyphname = semicolon;
lastChange = "2015-06-22 15:06:21 +0000";
layers = (
{
layerId = "C18F3EFD-FA9C-4751-AD2F-5B966120D1A5";
name = Regular;
paths = (
{
closed = 1;
nodes = (
"49 190 OFFCURVE",
"44 202 OFFCURVE",
"44 217 CURVE SMOOTH",
"44 246 OFFCURVE",
"70 271 OFFCURVE",
"99 271 CURVE SMOOTH",
"128 271 OFFCURVE",
"154 246 OFFCURVE",
"154 218 CURVE SMOOTH",
"154 187 OFFCURVE",
"129 163 OFFCURVE",
"98 163 CURVE SMOOTH",
"83 163 OFFCURVE",
"71 168 OFFCURVE",
"60 179 CURVE SMOOTH"
);
},
{
closed = 1;
nodes = (
"131 97 OFFCURVE",
"151 64 OFFCURVE",
"151 19 CURVE SMOOTH",
"151 -16 OFFCURVE",
"145 -30 OFFCURVE",
"124 -62 CURVE SMOOTH",
"112 -79 OFFCURVE",
"101 -92 OFFCURVE",
"91 -101 CURVE",
"57 -99 LINE",
"86 -70 OFFCURVE",
"101 -44 OFFCURVE",
"101 -21 CURVE SMOOTH",
"101 -2 OFFCURVE",
"91 9 OFFCURVE",
"72 12 CURVE",
"56 16 OFFCURVE",
"41 30 OFFCURVE",
"41 49 CURVE SMOOTH",
"41 74 OFFCURVE",
"65 97 OFFCURVE",
"92 97 CURVE SMOOTH"
);
}
);
width = 202;
},
{
layerId = "AA78C373-A874-4B43-A7A1-B39102DDD1E4";
name = Bold;
paths = (
{
closed = 1;
nodes = (
"39 47 OFFCURVE",
"38 53 OFFCURVE",
"38 60 CURVE SMOOTH",
"38 92 OFFCURVE",
"72 115 OFFCURVE",
"108 110 CURVE SMOOTH",
"145 104 OFFCURVE",
"163 74 OFFCURVE",
"163 20 CURVE SMOOTH",
"163 10 OFFCURVE",
"162 0 OFFCURVE",
"160 -9 CURVE",
"155 -37 OFFCURVE",
"118 -85 OFFCURVE",
"95 -105 CURVE",
"57 -99 LINE",
"86 -70 OFFCURVE",
"101 -44 OFFCURVE",
"101 -21 CURVE SMOOTH",
"101 -5 OFFCURVE",
"97 7 OFFCURVE",
"70 16 CURVE SMOOTH",
"57 20 OFFCURVE",
"47 28 OFFCURVE",
"42 41 CURVE"
);
},
{
closed = 1;
nodes = (
"136 290 OFFCURVE",
"163 263 OFFCURVE",
"163 231 CURVE SMOOTH",
"163 199 OFFCURVE",
"135 172 OFFCURVE",
"103 172 CURVE SMOOTH",
"71 172 OFFCURVE",
"43 199 OFFCURVE",
"43 232 CURVE SMOOTH",
"43 264 OFFCURVE",
"71 290 OFFCURVE",
"103 290 CURVE SMOOTH"
);
}
);
width = 202;
}
);
unicode = 003B;
},
{
export = 0;
glyphname = equals;
lastChange = "2015-06-22 15:06:21 +0000";
layers = (
{
layerId = "C18F3EFD-FA9C-4751-AD2F-5B966120D1A5";
name = Regular;
paths = (
{
closed = 1;
nodes = (
"52 285 LINE",
"305 285 LINE",
"305 248 LINE",
"52 248 LINE"
);
},
{
closed = 1;
nodes = (
"50 190 LINE",
"303 190 LINE",
"303 153 LINE",
"50 153 LINE"
);
}
);
width = 356;
},
{
layerId = "AA78C373-A874-4B43-A7A1-B39102DDD1E4";
name = Bold;
paths = (
{
closed = 1;
nodes = (
"42 184 LINE",
"315 184 LINE",
"315 139 LINE",
"42 139 LINE"
);
},
{
closed = 1;
nodes = (
"42 285 LINE",
"315 285 LINE",
"315 242 LINE",
"42 242 LINE"
);
}
);
width = 374;
}
);
unicode = 003D;
},
{
export = 0;
glyphname = question;
lastChange = "2015-06-22 15:06:21 +0000";
layers = (
{
layerId = "C18F3EFD-FA9C-4751-AD2F-5B966120D1A5";
name = Regular;
paths = (
{
closed = 1;
nodes = (
"146 11 OFFCURVE",
"142 21 OFFCURVE",
"142 32 CURVE SMOOTH",
"142 55 OFFCURVE",
"160 73 OFFCURVE",
"183 73 CURVE SMOOTH",
"206 73 OFFCURVE",
"223 55 OFFCURVE",
"223 32 CURVE SMOOTH",
"223 9 OFFCURVE",
"206 -7 OFFCURVE",
"183 -7 CURVE SMOOTH",
"172 -7 OFFCURVE",
"162 -3 OFFCURVE",
"154 4 CURVE SMOOTH"
);
},
{
closed = 1;
nodes = (
"277 595 OFFCURVE",
"343 539 OFFCURVE",
"343 455 CURVE SMOOTH",
"343 396 OFFCURVE",
"318 349 OFFCURVE",
"269 312 CURVE SMOOTH",
"214 272 OFFCURVE",
"187 219 OFFCURVE",
"187 154 CURVE SMOOTH",
"187 147 OFFCURVE",
"187 141 OFFCURVE",
"188 134 CURVE",
"166 134 LINE",
"161 157 OFFCURVE",
"159 175 OFFCURVE",
"159 190 CURVE SMOOTH",
"159 232 OFFCURVE",
"178 278 OFFCURVE",
"217 328 CURVE SMOOTH",
"234 351 OFFCURVE",
"247 372 OFFCURVE",
"256 393 CURVE",
"264 414 OFFCURVE",
"268 436 OFFCURVE",
"268 457 CURVE SMOOTH",
"268 517 OFFCURVE",
"248 564 OFFCURVE",
"161 564 CURVE SMOOTH",
"106 564 OFFCURVE",
"63 526 OFFCURVE",
"63 470 CURVE SMOOTH",
"63 454 OFFCURVE",
"66 441 OFFCURVE",
"71 432 CURVE SMOOTH",
"76 423 OFFCURVE",
"85 416 OFFCURVE",
"97 413 CURVE",
"102 411 OFFCURVE",
"109 410 OFFCURVE",
"116 410 CURVE SMOOTH",
"145 410 OFFCURVE",
"160 385 OFFCURVE",
"144 367 CURVE SMOOTH",
"136 358 OFFCURVE",
"124 353 OFFCURVE",
"108 353 CURVE SMOOTH",
"94 353 OFFCURVE",
"82 356 OFFCURVE",
"73 362 CURVE SMOOTH",
"44 381 OFFCURVE",
"30 412 OFFCURVE",
"30 457 CURVE SMOOTH",
"30 542 OFFCURVE",
"93 595 OFFCURVE",
"186 595 CURVE SMOOTH"
);
}
);
width = 385;
},
{
layerId = "AA78C373-A874-4B43-A7A1-B39102DDD1E4";
name = Bold;
paths = (
{
closed = 1;
nodes = (
"343 410 OFFCURVE",
"316 341 OFFCURVE",
"261 304 CURVE SMOOTH",
"210 269 OFFCURVE",
"185 224 OFFCURVE",
"185 168 CURVE SMOOTH",
"185 157 OFFCURVE",
"186 145 OFFCURVE",
"188 134 CURVE",
"166 134 LINE",
"145 189 OFFCURVE",
"152 255 OFFCURVE",
"213 356 CURVE SMOOTH",
"244 407 OFFCURVE",
"245 483 OFFCURVE",
"224 524 CURVE SMOOTH",
"199 577 OFFCURVE",
"143 574 OFFCURVE",
"107 547 CURVE",
"79 524 OFFCURVE",
"64 493 OFFCURVE",
"64 462 CURVE SMOOTH",
"64 439 OFFCURVE",
"72 424 OFFCURVE",
"89 417 CURVE SMOOTH",
"117 406 OFFCURVE",
"131 393 OFFCURVE",
"131 378 CURVE SMOOTH",
"131 366 OFFCURVE",
"124 345 OFFCURVE",
"96 345 CURVE SMOOTH",
"73 345 OFFCURVE",
"53 365 OFFCURVE",
"44 385 CURVE",
"25 421 OFFCURVE",
"16 491 OFFCURVE",
"68 551 CURVE SMOOTH",
"93 580 OFFCURVE",
"133 595 OFFCURVE",
"186 595 CURVE SMOOTH",
"275 595 OFFCURVE",
"343 542 OFFCURVE",
"343 455 CURVE SMOOTH"
);
},
{
closed = 1;
nodes = (
"207 94 OFFCURVE",
"229 71 OFFCURVE",
"229 43 CURVE SMOOTH",
"229 16 OFFCURVE",
"205 -6 OFFCURVE",
"177 -6 CURVE SMOOTH",
"150 -6 OFFCURVE",
"128 17 OFFCURVE",
"128 45 CURVE SMOOTH",
"128 72 OFFCURVE",
"152 94 OFFCURVE",
"180 94 CURVE SMOOTH"
);
}
);
width = 385;
}
);
unicode = 003F;
},
{
export = 0;
glyphname = braceleft;
lastChange = "2015-06-22 15:06:21 +0000";
layers = (
{
layerId = "C18F3EFD-FA9C-4751-AD2F-5B966120D1A5";
name = Regular;
paths = (
{
closed = 1;
nodes = (
"315 650 LINE",
"282 650 OFFCURVE",
"258 639 OFFCURVE",
"241 617 CURVE",
"224 600 OFFCURVE",
"216 573 OFFCURVE",
"216 535 CURVE SMOOTH",
"216 476 LINE SMOOTH",
"216 377 OFFCURVE",
"213 347 OFFCURVE",
"92 316 CURVE",
"193 295 OFFCURVE",
"216 271 OFFCURVE",
"216 162 CURVE SMOOTH",
"216 97 LINE SMOOTH",
"216 66 OFFCURVE",
"225 38 OFFCURVE",
"244 13 CURVE",
"254 -5 OFFCURVE",
"278 -14 OFFCURVE",
"315 -15 CURVE",
"315 -36 LINE",
"295 -36 LINE SMOOTH",
"236 -36 OFFCURVE",
"188 0 OFFCURVE",
"172 49 CURVE",
"163 73 OFFCURVE",
"159 98 OFFCURVE",
"159 123 CURVE SMOOTH",
"159 184 LINE SMOOTH",
"159 260 OFFCURVE",
"137 292 OFFCURVE",
"41 304 CURVE",
"41 328 LINE",
"134 344 OFFCURVE",
"159 365 OFFCURVE",
"159 449 CURVE SMOOTH",
"159 510 LINE SMOOTH",
"159 619 OFFCURVE",
"230 669 OFFCURVE",
"315 670 CURVE"
);
}
);
width = 416;
},
{
layerId = "AA78C373-A874-4B43-A7A1-B39102DDD1E4";
name = Bold;
width = 600;
}
);
unicode = 007B;
},
{
export = 0;
glyphname = braceright;
lastChange = "2015-06-22 15:06:21 +0000";
layers = (
{
layerId = "C18F3EFD-FA9C-4751-AD2F-5B966120D1A5";
name = Regular;
paths = (
{
closed = 1;
nodes = (
"181 535 LINE SMOOTH",
"181 604 OFFCURVE",
"147 650 OFFCURVE",
"83 650 CURVE",
"83 670 LINE",
"168 669 OFFCURVE",
"239 619 OFFCURVE",
"239 510 CURVE SMOOTH",
"239 449 LINE SMOOTH",
"239 368 OFFCURVE",
"261 344 OFFCURVE",
"357 328 CURVE",
"357 304 LINE",
"306 297 OFFCURVE",
"274 285 OFFCURVE",
"260 266 CURVE",
"246 250 OFFCURVE",
"239 223 OFFCURVE",
"239 184 CURVE SMOOTH",
"239 123 LINE SMOOTH",
"239 72 OFFCURVE",
"221 17 OFFCURVE",
"194 -2 CURVE SMOOTH",
"162 -25 OFFCURVE",
"132 -36 OFFCURVE",
"103 -36 CURVE SMOOTH",
"83 -36 LINE",
"83 -15 LINE",
"120 -14 OFFCURVE",
"144 -5 OFFCURVE",
"154 13 CURVE",
"172 38 OFFCURVE",
"181 66 OFFCURVE",
"181 97 CURVE SMOOTH",
"181 162 LINE SMOOTH",
"181 217 OFFCURVE",
"189 253 OFFCURVE",
"206 272 CURVE",
"219 291 OFFCURVE",
"253 305 OFFCURVE",
"306 316 CURVE",
"185 347 OFFCURVE",
"181 380 OFFCURVE",
"181 476 CURVE SMOOTH"
);
}
);
width = 416;
},
{
layerId = "AA78C373-A874-4B43-A7A1-B39102DDD1E4";
name = Bold;
width = 600;
}
);
unicode = 007D;
},
{
export = 0;
glyphname = next_page;
lastChange = "2015-06-22 15:06:21 +0000";
layers = (
{
layerId = "C18F3EFD-FA9C-4751-AD2F-5B966120D1A5";
name = Regular;
paths = (
{
closed = 1;
nodes = (
"137 61 LINE",
"171 61 LINE",
"171 301 LINE",
"137 301 LINE"
);
},
{
closed = 1;
nodes = (
"508 114 OFFCURVE",
"563 143 OFFCURVE",
"563 166 CURVE SMOOTH",
"563 169 OFFCURVE",
"562 173 OFFCURVE",
"560 176 CURVE",
"552 189 OFFCURVE",
"541 198 OFFCURVE",
"526 201 CURVE",
"507 158 OFFCURVE",
"474 136 OFFCURVE",
"429 136 CURVE SMOOTH",
"421 136 OFFCURVE",
"412 137 OFFCURVE",
"401 140 CURVE",
"414 93 OFFCURVE",
"459 71 OFFCURVE",
"488 71 CURVE SMOOTH",
"515 71 OFFCURVE",
"534 79 OFFCURVE",
"547 94 CURVE",
"548 95 OFFCURVE",
"549 97 OFFCURVE",
"549 98 CURVE SMOOTH",
"549 105 OFFCURVE",
"536 109 OFFCURVE",
"510 109 CURVE SMOOTH",
"506 109 OFFCURVE",
"493 108 OFFCURVE",
"471 106 CURVE",
"464 104 OFFCURVE",
"460 102 OFFCURVE",
"457 100 CURVE",
"453 132 LINE",
"455 120 OFFCURVE",
"464 114 OFFCURVE",
"479 114 CURVE SMOOTH"
);
},
{
closed = 1;
nodes = (
"502 216 OFFCURVE",
"476 191 OFFCURVE",
"443 191 CURVE SMOOTH",
"414 191 OFFCURVE",
"377 215 OFFCURVE",
"370 239 CURVE",
"389 272 LINE",
"389 245 OFFCURVE",
"419 223 OFFCURVE",
"436 223 CURVE SMOOTH",
"456 223 OFFCURVE",
"466 239 OFFCURVE",
"466 270 CURVE",
"449 300 OFFCURVE",
"423 320 OFFCURVE",
"390 329 CURVE",
"379 334 OFFCURVE",
"366 336 OFFCURVE",
"351 336 CURVE SMOOTH",
"335 336 OFFCURVE",
"321 333 OFFCURVE",
"308 327 CURVE",
"208 267 LINE",
"208 98 LINE",
"273 98 OFFCURVE",
"322 75 OFFCURVE",
"354 30 CURVE",
"370 18 OFFCURVE",
"387 12 OFFCURVE",
"405 12 CURVE SMOOTH",
"433 12 OFFCURVE",
"457 24 OFFCURVE",
"477 47 CURVE",
"417 63 LINE",
"410 92 LINE",
"384 96 LINE",
"381 124 LINE",
"350 127 LINE",
"340 160 LINE",
"336 198 LINE",
"335 202 OFFCURVE",
"334 204 OFFCURVE",
"334 205 CURVE SMOOTH",
"334 216 OFFCURVE",
"343 229 OFFCURVE",
"354 229 CURVE SMOOTH",
"365 229 OFFCURVE",
"375 214 OFFCURVE",
"375 201 CURVE SMOOTH",
"375 166 LINE",
"452 164 LINE",
"475 177 OFFCURVE",
"495 197 OFFCURVE",
"510 225 CURVE",
"516 241 OFFCURVE",
"520 254 OFFCURVE",
"522 264 CURVE",
"686 264 LINE SMOOTH",
"709 264 OFFCURVE",
"723 274 OFFCURVE",
"727 295 CURVE",
"727 314 OFFCURVE",
"708 335 OFFCURVE",
"691 335 CURVE SMOOTH",
"486 335 LINE",
"471 336 OFFCURVE",
"454 346 OFFCURVE",
"437 363 CURVE",
"686 363 LINE SMOOTH",
"722 363 OFFCURVE",
"758 333 OFFCURVE",
"758 300 CURVE SMOOTH",
"758 263 OFFCURVE",
"740 240 OFFCURVE",
"705 233 CURVE",
"541 233 LINE",
"554 207 LINE",
"568 200 OFFCURVE",
"576 190 OFFCURVE",
"579 176 CURVE",
"579 161 OFFCURVE",
"576 150 OFFCURVE",
"571 143 CURVE",
"576 131 OFFCURVE",
"579 120 OFFCURVE",
"579 110 CURVE SMOOTH",
"579 101 OFFCURVE",
"576 92 OFFCURVE",
"571 81 CURVE",
"539 66 LINE",
"541 60 OFFCURVE",
"542 54 OFFCURVE",
"542 49 CURVE SMOOTH",
"542 16 OFFCURVE",
"517 -2 OFFCURVE",
"478 -2 CURVE",
"455 -11 OFFCURVE",
"432 -16 OFFCURVE",
"408 -16 CURVE SMOOTH",
"383 -16 OFFCURVE",
"359 -12 OFFCURVE",
"336 -4 CURVE",
"307 38 OFFCURVE",
"271 59 OFFCURVE",
"226 59 CURVE SMOOTH",
"217 59 OFFCURVE",
"211 59 OFFCURVE",
"208 58 CURVE",
"201 31 LINE",
"32 32 LINE",
"32 328 LINE",
"222 328 LINE",
"266 351 OFFCURVE",
"304 364 OFFCURVE",
"336 365 CURVE SMOOTH",
"397 367 LINE",
"453 354 OFFCURVE",
"498 307 OFFCURVE",
"510 248 CURVE"
);
},
{
closed = 1;
nodes = (
"458 90 LINE",
"455 92 OFFCURVE",
"454 94 OFFCURVE",
"454 96 CURVE SMOOTH",
"454 97 OFFCURVE",
"455 99 OFFCURVE",
"457 100 CURVE"
);
}
);
width = 804;
},
{
layerId = "AA78C373-A874-4B43-A7A1-B39102DDD1E4";
name = Bold;
width = 600;
}
);
unicode = 00BB;
},
{
export = 0;
glyphname = multiply;
lastChange = "2015-06-22 15:06:21 +0000";
layers = (
{
layerId = "C18F3EFD-FA9C-4751-AD2F-5B966120D1A5";
name = Regular;
paths = (
{
closed = 1;
nodes = (
"56 330 LINE",
"91 365 LINE",
"229 225 LINE",
"371 362 LINE",
"407 329 LINE",
"263 188 LINE",
"412 46 LINE",
"374 11 LINE",
"228 155 LINE",
"81 10 LINE",
"47 43 LINE",
"199 194 LINE"
);
}
);
width = 493;
},
{
layerId = "AA78C373-A874-4B43-A7A1-B39102DDD1E4";
name = Bold;
paths = (
{
closed = 1;
nodes = (
"56 330 LINE",
"91 365 LINE",
"229 225 LINE",
"371 362 LINE",
"407 329 LINE",
"263 188 LINE",
"412 46 LINE",
"374 11 LINE",
"228 155 LINE",
"81 10 LINE",
"47 43 LINE",
"199 194 LINE"
);
}
);
width = 488;
}
);
unicode = 00D7;
},
{
export = 0;
glyphname = divide;
lastChange = "2015-06-22 15:06:21 +0000";
layers = (
{
layerId = "C18F3EFD-FA9C-4751-AD2F-5B966120D1A5";
name = Regular;
paths = (
{
closed = 1;
nodes = (
"224 128 OFFCURVE",
"239 112 OFFCURVE",
"239 95 CURVE SMOOTH",
"239 76 OFFCURVE",
"228 67 OFFCURVE",
"206 67 CURVE SMOOTH",
"185 67 OFFCURVE",
"175 77 OFFCURVE",
"175 97 CURVE SMOOTH",
"175 118 OFFCURVE",
"186 128 OFFCURVE",
"207 128 CURVE SMOOTH"
);
},
{
closed = 1;
nodes = (
"173 313 OFFCURVE",
"189 328 OFFCURVE",
"206 328 CURVE SMOOTH",
"222 328 OFFCURVE",
"237 311 OFFCURVE",
"237 295 CURVE SMOOTH",
"237 275 OFFCURVE",
"226 265 OFFCURVE",
"205 265 CURVE SMOOTH",
"184 265 OFFCURVE",
"173 276 OFFCURVE",
"173 297 CURVE SMOOTH"
);
},
{
closed = 1;
nodes = (
"38 182 LINE",
"38 222 LINE",
"373 222 LINE",
"373 182 LINE"
);
}
);
width = 397;
},
{
layerId = "AA78C373-A874-4B43-A7A1-B39102DDD1E4";
name = Bold;
paths = (
{
closed = 1;
nodes = (
"50 182 LINE",
"50 234 LINE",
"375 234 LINE",
"375 182 LINE"
);
},
{
closed = 1;
nodes = (
"235 361 OFFCURVE",
"253 344 OFFCURVE",
"253 323 CURVE SMOOTH",
"253 303 OFFCURVE",
"236 285 OFFCURVE",
"215 285 CURVE SMOOTH",
"194 285 OFFCURVE",
"175 302 OFFCURVE",
"175 322 CURVE SMOOTH",
"175 343 OFFCURVE",
"194 361 OFFCURVE",
"214 361 CURVE SMOOTH"
);
},
{
closed = 1;
nodes = (
"235 133 OFFCURVE",
"253 116 OFFCURVE",
"253 95 CURVE SMOOTH",
"253 75 OFFCURVE",
"236 57 OFFCURVE",
"215 57 CURVE SMOOTH",
"194 57 OFFCURVE",
"175 74 OFFCURVE",
"175 94 CURVE SMOOTH",
"175 115 OFFCURVE",
"194 133 OFFCURVE",
"214 133 CURVE SMOOTH"
);
}
);
width = 448;
}
);
unicode = 00F7;
},
{
export = 0;
glyphname = top_white_circle;
lastChange = "2015-06-22 15:06:21 +0000";
layers = (
{
layerId = "C18F3EFD-FA9C-4751-AD2F-5B966120D1A5";
name = Regular;
paths = (
{
closed = 1;
nodes = (
"40 583 OFFCURVE",
"31 604 OFFCURVE",
"31 628 CURVE SMOOTH",
"31 676 OFFCURVE",
"73 716 OFFCURVE",
"122 716 CURVE SMOOTH",
"170 716 OFFCURVE",
"211 676 OFFCURVE",
"211 628 CURVE SMOOTH",
"211 580 OFFCURVE",
"170 540 OFFCURVE",
"122 540 CURVE SMOOTH",
"97 540 OFFCURVE",
"76 549 OFFCURVE",
"58 566 CURVE SMOOTH"
);
},
{
closed = 1;
nodes = (
"87 688 OFFCURVE",
"58 662 OFFCURVE",
"58 627 CURVE SMOOTH",
"58 595 OFFCURVE",
"84 566 OFFCURVE",
"120 566 CURVE SMOOTH",
"153 566 OFFCURVE",
"183 592 OFFCURVE",
"183 628 CURVE SMOOTH",
"183 660 OFFCURVE",
"155 688 OFFCURVE",
"119 688 CURVE SMOOTH"
);
}
);
width = 263;
},
{
layerId = "AA78C373-A874-4B43-A7A1-B39102DDD1E4";
name = Bold;
paths = (
{
closed = 1;
nodes = (
"70 702 OFFCURVE",
"92 711 OFFCURVE",
"117 711 CURVE SMOOTH",
"158 711 OFFCURVE",
"199 678 OFFCURVE",
"199 629 CURVE SMOOTH",
"199 588 OFFCURVE",
"164 547 OFFCURVE",
"115 547 CURVE SMOOTH",
"74 547 OFFCURVE",
"31 581 OFFCURVE",
"31 630 CURVE SMOOTH",
"31 651 OFFCURVE",
"38 669 OFFCURVE",
"53 684 CURVE SMOOTH"
);
},
{
closed = 1;
nodes = (
"63 652 OFFCURVE",
"59 641 OFFCURVE",
"59 629 CURVE SMOOTH",
"59 592 OFFCURVE",
"90 573 OFFCURVE",
"115 573 CURVE SMOOTH",
"154 573 OFFCURVE",
"172 603 OFFCURVE",
"172 627 CURVE SMOOTH",
"172 664 OFFCURVE",
"140 683 OFFCURVE",
"115 683 CURVE SMOOTH",
"96 683 OFFCURVE",
"81 676 OFFCURVE",
"70 661 CURVE SMOOTH"
);
}
);
width = 248;
}
);
unicode = 02DA;
},
{
export = 0;
glyphname = anusvara;
lastChange = "2015-06-22 15:06:21 +0000";
layers = (
{
layerId = "C18F3EFD-FA9C-4751-AD2F-5B966120D1A5";
name = Regular;
paths = (
{
closed = 1;
nodes = (
"226 265 OFFCURVE",
"202 275 OFFCURVE",
"173 275 CURVE SMOOTH",
"116 275 OFFCURVE",
"68 229 OFFCURVE",
"68 172 CURVE SMOOTH",
"68 116 OFFCURVE",
"115 69 OFFCURVE",
"172 69 CURVE SMOOTH",
"228 69 OFFCURVE",
"277 116 OFFCURVE",
"277 173 CURVE SMOOTH",
"277 200 OFFCURVE",
"267 224 OFFCURVE",
"247 245 CURVE"
);
},
{
closed = 1;
nodes = (
"31 245 OFFCURVE",
"95 304 OFFCURVE",
"174 304 CURVE SMOOTH",
"254 304 OFFCURVE",
"315 241 OFFCURVE",
"315 164 CURVE SMOOTH",
"315 85 OFFCURVE",
"252 25 OFFCURVE",
"175 25 CURVE SMOOTH",
"104 25 OFFCURVE",
"31 78 OFFCURVE",
"31 166 CURVE SMOOTH"
);
}
);
width = 364;
},
{
layerId = "AA78C373-A874-4B43-A7A1-B39102DDD1E4";
name = Bold;
width = 600;
}
);
unicode = 0D82;
},
{
export = 0;
glyphname = visarga;
lastChange = "2015-06-22 15:06:21 +0000";
layers = (
{
layerId = "C18F3EFD-FA9C-4751-AD2F-5B966120D1A5";
name = Regular;
paths = (
{
closed = 1;
nodes = (
"86 171 OFFCURVE",
"60 147 OFFCURVE",
"60 118 CURVE SMOOTH",
"60 89 OFFCURVE",
"84 63 OFFCURVE",
"116 63 CURVE SMOOTH",
"147 63 OFFCURVE",
"171 86 OFFCURVE",
"171 117 CURVE SMOOTH",
"171 146 OFFCURVE",
"146 171 OFFCURVE",
"115 171 CURVE SMOOTH"
);
},
{
closed = 1;
nodes = (
"86 358 OFFCURVE",
"60 334 OFFCURVE",
"60 305 CURVE SMOOTH",
"60 276 OFFCURVE",
"84 250 OFFCURVE",
"116 250 CURVE SMOOTH",
"147 250 OFFCURVE",
"171 273 OFFCURVE",
"171 304 CURVE SMOOTH",
"171 333 OFFCURVE",
"146 358 OFFCURVE",
"115 358 CURVE SMOOTH"
);
},
{
closed = 1;
nodes = (
"32 351 OFFCURVE",
"70 387 OFFCURVE",
"115 387 CURVE SMOOTH",
"160 387 OFFCURVE",
"199 350 OFFCURVE",
"199 306 CURVE SMOOTH",
"199 262 OFFCURVE",
"160 224 OFFCURVE",
"116 224 CURVE SMOOTH",
"71 224 OFFCURVE",
"32 262 OFFCURVE",
"32 306 CURVE SMOOTH"
);
},
{
closed = 1;
nodes = (
"32 164 OFFCURVE",
"72 201 OFFCURVE",
"116 201 CURVE SMOOTH",
"161 201 OFFCURVE",
"199 163 OFFCURVE",
"199 119 CURVE SMOOTH",
"199 74 OFFCURVE",
"160 37 OFFCURVE",
"115 37 CURVE SMOOTH",
"70 37 OFFCURVE",
"32 75 OFFCURVE",
"32 119 CURVE SMOOTH"
);
}
);
width = 248;
},
{
layerId = "AA78C373-A874-4B43-A7A1-B39102DDD1E4";
name = Bold;
width = 600;
}
);
unicode = 0D83;
},
{
export = 0;
glyphname = si_A;
lastChange = "2015-06-22 15:06:21 +0000";
layers = (
{
layerId = "C18F3EFD-FA9C-4751-AD2F-5B966120D1A5";
name = Regular;
paths = (
{
closed = 1;
nodes = (
"431 229 OFFCURVE",
"448 238 OFFCURVE",
"457 254 CURVE",
"461 262 OFFCURVE",
"463 271 OFFCURVE",
"463 281 CURVE SMOOTH",
"463 304 OFFCURVE",
"451 335 OFFCURVE",
"427 374 CURVE",
"422 383 OFFCURVE",
"421 392 OFFCURVE",
"424 401 CURVE",
"400 388 OFFCURVE",
"388 360 OFFCURVE",
"388 317 CURVE SMOOTH",
"388 233 LINE",
"396 230 OFFCURVE",
"404 229 OFFCURVE",
"411 229 CURVE SMOOTH"
);
},
{
closed = 1;
nodes = (
"33 224 OFFCURVE",
"63 269 OFFCURVE",
"115 292 CURVE SMOOTH",
"141 303 OFFCURVE",
"171 309 OFFCURVE",
"206 309 CURVE SMOOTH",
"316 309 LINE",
"315 348 OFFCURVE",
"299 374 OFFCURVE",
"268 386 CURVE SMOOTH",
"256 391 OFFCURVE",
"245 393 OFFCURVE",
"236 393 CURVE SMOOTH",
"217 393 OFFCURVE",
"205 387 OFFCURVE",
"185 354 CURVE SMOOTH",
"176 339 OFFCURVE",
"163 331 OFFCURVE",
"144 331 CURVE SMOOTH",
"123 331 OFFCURVE",
"108 350 OFFCURVE",
"108 371 CURVE SMOOTH",
"108 380 OFFCURVE",
"110 388 OFFCURVE",
"115 395 CURVE SMOOTH",
"132 420 OFFCURVE",
"166 433 OFFCURVE",
"217 433 CURVE SMOOTH",
"257 433 OFFCURVE",
"292 418 OFFCURVE",
"314 392 CURVE SMOOTH",
"336 366 OFFCURVE",
"347 328 OFFCURVE",
"347 287 CURVE",
"236 287 LINE SMOOTH",
"167 287 OFFCURVE",
"113 233 OFFCURVE",
"113 164 CURVE SMOOTH",
"113 105 OFFCURVE",
"143 62 OFFCURVE",
"197 40 CURVE SMOOTH",
"224 29 OFFCURVE",
"256 23 OFFCURVE",
"294 23 CURVE SMOOTH",
"314 23 OFFCURVE",
"336 25 OFFCURVE",
"359 28 CURVE",
"359 313 LINE SMOOTH",
"359 377 OFFCURVE",
"390 422 OFFCURVE",
"439 435 CURVE",
"462 424 LINE",
"451 420 OFFCURVE",
"445 413 OFFCURVE",
"445 403 CURVE SMOOTH",
"445 400 OFFCURVE",
"446 396 OFFCURVE",
"449 392 CURVE",
"451 388 OFFCURVE",
"465 375 OFFCURVE",
"491 352 CURVE SMOOTH",
"514 332 OFFCURVE",
"526 309 OFFCURVE",
"526 282 CURVE SMOOTH",
"526 233 OFFCURVE",
"481 200 OFFCURVE",
"428 200 CURVE SMOOTH",
"415 200 OFFCURVE",
"401 202 OFFCURVE",
"388 206 CURVE",
"388 29 LINE",
"437 37 OFFCURVE",
"482 55 OFFCURVE",
"523 83 CURVE",
"523 51 LINE",
"488 30 OFFCURVE",
"443 13 OFFCURVE",
"388 2 CURVE",
"388 -215 LINE",
"359 -215 LINE",
"359 0 LINE",
"332 -3 OFFCURVE",
"306 -4 OFFCURVE",
"282 -4 CURVE SMOOTH",
"246 -4 OFFCURVE",
"214 -1 OFFCURVE",
"186 4 CURVE SMOOTH",
"158 9 OFFCURVE",
"133 17 OFFCURVE",
"113 29 CURVE",
"92 40 OFFCURVE",
"74 53 OFFCURVE",
"62 70 CURVE",
"49 86 OFFCURVE",
"40 105 OFFCURVE",
"36 127 CURVE SMOOTH",
"34 138 OFFCURVE",
"33 149 OFFCURVE",
"33 161 CURVE SMOOTH"
);
}
);
width = 573;
},
{
layerId = "AA78C373-A874-4B43-A7A1-B39102DDD1E4";
name = Bold;
width = 600;
}
);
unicode = 0D85;
},
{
export = 0;
glyphname = si_Aa;
lastChange = "2015-06-22 15:06:21 +0000";
layers = (
{
layerId = "C18F3EFD-FA9C-4751-AD2F-5B966120D1A5";
name = Regular;
paths = (
{
closed = 1;
nodes = (
"734 245 OFFCURVE",
"730 278 OFFCURVE",
"720 310 CURVE SMOOTH",
"710 341 OFFCURVE",
"689 361 OFFCURVE",
"664 361 CURVE SMOOTH",
"651 361 OFFCURVE",
"637 358 OFFCURVE",
"626 352 CURVE SMOOTH",
"615 346 OFFCURVE",
"606 336 OFFCURVE",
"599 325 CURVE",
"591 314 OFFCURVE",
"587 302 OFFCURVE",
"584 288 CURVE",
"582 281 OFFCURVE",
"581 273 OFFCURVE",
"580 265 CURVE",
"580 261 OFFCURVE",
"580 257 OFFCURVE",
"581 253 CURVE",
"553 253 LINE",
"553 257 OFFCURVE",
"553 261 OFFCURVE",
"553 266 CURVE SMOOTH",
"553 341 OFFCURVE",
"604 398 OFFCURVE",
"675 398 CURVE SMOOTH",
"762 398 OFFCURVE",
"800 319 OFFCURVE",
"800 207 CURVE SMOOTH",
"800 70 OFFCURVE",
"753 -4 OFFCURVE",
"664 -4 CURVE SMOOTH",
"596 -4 OFFCURVE",
"552 38 OFFCURVE",
"552 106 CURVE SMOOTH",
"552 113 OFFCURVE",
"552 121 OFFCURVE",
"553 128 CURVE",
"579 128 LINE",
"578 123 OFFCURVE",
"578 118 OFFCURVE",
"578 113 CURVE SMOOTH",
"578 69 OFFCURVE",
"608 36 OFFCURVE",
"652 36 CURVE SMOOTH",
"688 36 OFFCURVE",
"713 64 OFFCURVE",
"725 116 CURVE SMOOTH",
"731 142 OFFCURVE",
"734 173 OFFCURVE",
"734 210 CURVE SMOOTH"
);
},
{
closed = 1;
nodes = (
"442 229 OFFCURVE",
"463 250 OFFCURVE",
"463 281 CURVE SMOOTH",
"463 304 OFFCURVE",
"451 335 OFFCURVE",
"427 374 CURVE",
"422 383 OFFCURVE",
"421 392 OFFCURVE",
"424 401 CURVE",
"400 388 OFFCURVE",
"388 360 OFFCURVE",
"388 317 CURVE SMOOTH",
"388 233 LINE",
"396 230 OFFCURVE",
"404 229 OFFCURVE",
"411 229 CURVE SMOOTH"
);
},
{
closed = 1;
nodes = (
"33 254 OFFCURVE",
"101 309 OFFCURVE",
"206 309 CURVE SMOOTH",
"316 309 LINE",
"315 348 OFFCURVE",
"299 374 OFFCURVE",
"268 386 CURVE SMOOTH",
"256 391 OFFCURVE",
"245 393 OFFCURVE",
"236 393 CURVE SMOOTH",
"217 393 OFFCURVE",
"205 387 OFFCURVE",
"185 354 CURVE SMOOTH",
"176 339 OFFCURVE",
"163 331 OFFCURVE",
"144 331 CURVE SMOOTH",
"123 331 OFFCURVE",
"108 350 OFFCURVE",
"108 371 CURVE SMOOTH",
"108 380 OFFCURVE",
"110 388 OFFCURVE",
"115 395 CURVE SMOOTH",
"132 420 OFFCURVE",
"166 433 OFFCURVE",
"217 433 CURVE SMOOTH",
"298 433 OFFCURVE",
"348 372 OFFCURVE",
"347 287 CURVE",
"236 287 LINE SMOOTH",
"167 287 OFFCURVE",
"113 233 OFFCURVE",
"113 164 CURVE SMOOTH",
"113 76 OFFCURVE",
"181 23 OFFCURVE",
"294 23 CURVE SMOOTH",
"314 23 OFFCURVE",
"336 25 OFFCURVE",
"359 28 CURVE",
"359 313 LINE SMOOTH",
"359 377 OFFCURVE",
"390 422 OFFCURVE",
"439 435 CURVE",
"462 424 LINE",
"451 420 OFFCURVE",
"445 413 OFFCURVE",
"445 403 CURVE SMOOTH",
"445 400 OFFCURVE",
"446 396 OFFCURVE",
"449 392 CURVE",
"451 388 OFFCURVE",
"465 375 OFFCURVE",
"491 352 CURVE SMOOTH",
"514 332 OFFCURVE",
"526 309 OFFCURVE",
"526 282 CURVE SMOOTH",
"526 233 OFFCURVE",
"481 200 OFFCURVE",
"428 200 CURVE SMOOTH",
"415 200 OFFCURVE",
"401 202 OFFCURVE",
"388 206 CURVE",
"388 29 LINE",
"437 37 OFFCURVE",
"482 55 OFFCURVE",
"523 83 CURVE",
"523 51 LINE",
"488 30 OFFCURVE",
"443 13 OFFCURVE",
"388 2 CURVE",
"388 -215 LINE",
"359 -215 LINE",
"359 0 LINE",
"332 -3 OFFCURVE",
"306 -4 OFFCURVE",
"282 -4 CURVE SMOOTH",
"121 -4 OFFCURVE",
"33 53 OFFCURVE",
"33 161 CURVE SMOOTH"
);
}
);
width = 850;
},
{
layerId = "AA78C373-A874-4B43-A7A1-B39102DDD1E4";
name = Bold;
width = 600;
}
);
unicode = 0D86;
},
{
export = 0;
glyphname = si_Ae;
lastChange = "2015-06-22 15:06:21 +0000";
layers = (
{
layerId = "C18F3EFD-FA9C-4751-AD2F-5B966120D1A5";
name = Regular;
paths = (
{
closed = 1;
nodes = (
"659 -146 OFFCURVE",
"614 -83 OFFCURVE",
"614 8 CURVE SMOOTH",
"614 124 OFFCURVE",
"686 259 OFFCURVE",
"741 314 CURVE",
"533 314 LINE",
"533 340 LINE",
"779 340 LINE",
"778 338 OFFCURVE",
"777 333 OFFCURVE",
"776 324 CURVE",
"714 233 OFFCURVE",
"683 141 OFFCURVE",
"683 50 CURVE SMOOTH",
"683 -46 OFFCURVE",
"731 -92 OFFCURVE",
"794 -92 CURVE SMOOTH",
"807 -92 OFFCURVE",
"819 -90 OFFCURVE",
"832 -87 CURVE",
"836 -105 LINE",
"811 -132 OFFCURVE",
"780 -146 OFFCURVE",
"743 -146 CURVE SMOOTH"
);
},
{
closed = 1;
nodes = (
"431 229 OFFCURVE",
"448 238 OFFCURVE",
"457 254 CURVE",
"461 262 OFFCURVE",
"463 271 OFFCURVE",
"463 281 CURVE SMOOTH",
"463 304 OFFCURVE",
"451 335 OFFCURVE",
"427 374 CURVE",
"422 383 OFFCURVE",
"421 392 OFFCURVE",
"424 401 CURVE",
"400 388 OFFCURVE",
"388 360 OFFCURVE",
"388 317 CURVE SMOOTH",
"388 233 LINE",
"396 230 OFFCURVE",
"404 229 OFFCURVE",
"411 229 CURVE SMOOTH"
);
},
{
closed = 1;
nodes = (
"33 224 OFFCURVE",
"63 269 OFFCURVE",
"115 292 CURVE SMOOTH",
"141 303 OFFCURVE",
"171 309 OFFCURVE",
"206 309 CURVE SMOOTH",
"316 309 LINE",
"315 348 OFFCURVE",
"299 374 OFFCURVE",
"268 386 CURVE SMOOTH",
"256 391 OFFCURVE",
"245 393 OFFCURVE",
"236 393 CURVE SMOOTH",
"217 393 OFFCURVE",
"205 387 OFFCURVE",
"185 354 CURVE SMOOTH",
"176 339 OFFCURVE",
"163 331 OFFCURVE",
"144 331 CURVE SMOOTH",
"123 331 OFFCURVE",
"108 350 OFFCURVE",
"108 371 CURVE SMOOTH",
"108 380 OFFCURVE",
"110 388 OFFCURVE",
"115 395 CURVE SMOOTH",
"132 420 OFFCURVE",
"166 433 OFFCURVE",
"217 433 CURVE SMOOTH",
"257 433 OFFCURVE",
"292 418 OFFCURVE",
"314 392 CURVE SMOOTH",
"336 366 OFFCURVE",
"347 328 OFFCURVE",
"347 287 CURVE",
"236 287 LINE SMOOTH",
"167 287 OFFCURVE",
"113 233 OFFCURVE",
"113 164 CURVE SMOOTH",
"113 105 OFFCURVE",
"143 62 OFFCURVE",
"197 40 CURVE SMOOTH",
"224 29 OFFCURVE",
"256 23 OFFCURVE",
"294 23 CURVE SMOOTH",
"314 23 OFFCURVE",
"336 25 OFFCURVE",
"359 28 CURVE",
"359 313 LINE SMOOTH",
"359 377 OFFCURVE",
"390 422 OFFCURVE",
"439 435 CURVE",
"462 424 LINE",
"451 420 OFFCURVE",
"445 413 OFFCURVE",
"445 403 CURVE SMOOTH",
"445 400 OFFCURVE",
"446 396 OFFCURVE",
"449 392 CURVE",
"451 388 OFFCURVE",
"465 375 OFFCURVE",
"491 352 CURVE SMOOTH",
"514 332 OFFCURVE",
"526 309 OFFCURVE",
"526 282 CURVE SMOOTH",
"526 233 OFFCURVE",
"481 200 OFFCURVE",
"428 200 CURVE SMOOTH",
"415 200 OFFCURVE",
"401 202 OFFCURVE",
"388 206 CURVE",
"388 29 LINE",
"437 37 OFFCURVE",
"482 55 OFFCURVE",
"523 83 CURVE",
"523 51 LINE",
"488 30 OFFCURVE",
"443 13 OFFCURVE",
"388 2 CURVE",
"388 -215 LINE",
"359 -215 LINE",
"359 0 LINE",
"332 -3 OFFCURVE",
"306 -4 OFFCURVE",
"282 -4 CURVE SMOOTH",
"246 -4 OFFCURVE",
"214 -1 OFFCURVE",
"186 4 CURVE SMOOTH",
"158 9 OFFCURVE",
"133 17 OFFCURVE",
"113 29 CURVE",
"92 40 OFFCURVE",
"74 53 OFFCURVE",
"62 70 CURVE",
"49 86 OFFCURVE",
"40 105 OFFCURVE",
"36 127 CURVE SMOOTH",
"34 138 OFFCURVE",
"33 149 OFFCURVE",
"33 161 CURVE SMOOTH"
);
}
);
width = 872;
},
{
layerId = "AA78C373-A874-4B43-A7A1-B39102DDD1E4";
name = Bold;
width = 600;
}
);
unicode = 0D87;
},
{
export = 0;
glyphname = si_Aee;
lastChange = "2015-06-22 15:06:21 +0000";
layers = (
{
layerId = "C18F3EFD-FA9C-4751-AD2F-5B966120D1A5";
name = Regular;
paths = (
{
closed = 1;
nodes = (
"699 -65 OFFCURVE",
"748 -104 OFFCURVE",
"846 -104 CURVE",
"845 -129 LINE",
"820 -140 OFFCURVE",
"794 -146 OFFCURVE",
"769 -146 CURVE SMOOTH",
"759 -146 OFFCURVE",
"749 -145 OFFCURVE",
"740 -143 CURVE SMOOTH",
"667 -128 OFFCURVE",
"630 -84 OFFCURVE",
"630 -10 CURVE SMOOTH",
"630 -1 OFFCURVE",
"631 8 OFFCURVE",
"632 18 CURVE SMOOTH",
"640 82 OFFCURVE",
"715 161 OFFCURVE",
"775 201 CURVE",
"612 201 LINE",
"612 220 LINE",
"745 317 LINE",
"544 317 LINE",
"544 341 LINE",
"789 341 LINE",
"789 319 LINE",
"659 223 LINE",
"812 223 LINE",
"812 203 LINE",
"803 198 OFFCURVE",
"784 179 OFFCURVE",
"757 148 CURVE SMOOTH",
"718 103 OFFCURVE",
"699 58 OFFCURVE",
"699 13 CURVE SMOOTH"
);
},
{
closed = 1;
nodes = (
"431 229 OFFCURVE",
"448 238 OFFCURVE",
"457 254 CURVE",
"461 262 OFFCURVE",
"463 271 OFFCURVE",
"463 281 CURVE SMOOTH",
"463 304 OFFCURVE",
"451 335 OFFCURVE",
"427 374 CURVE",
"422 383 OFFCURVE",
"421 392 OFFCURVE",
"424 401 CURVE",
"400 388 OFFCURVE",
"388 360 OFFCURVE",
"388 317 CURVE SMOOTH",
"388 233 LINE",
"396 230 OFFCURVE",
"404 229 OFFCURVE",
"411 229 CURVE SMOOTH"
);
},
{
closed = 1;
nodes = (
"33 224 OFFCURVE",
"63 269 OFFCURVE",
"115 292 CURVE SMOOTH",
"141 303 OFFCURVE",
"171 309 OFFCURVE",
"206 309 CURVE SMOOTH",
"316 309 LINE",
"315 348 OFFCURVE",
"299 374 OFFCURVE",
"268 386 CURVE SMOOTH",
"256 391 OFFCURVE",
"245 393 OFFCURVE",
"236 393 CURVE SMOOTH",
"217 393 OFFCURVE",
"205 387 OFFCURVE",
"185 354 CURVE SMOOTH",
"176 339 OFFCURVE",
"163 331 OFFCURVE",
"144 331 CURVE SMOOTH",
"123 331 OFFCURVE",
"108 350 OFFCURVE",
"108 371 CURVE SMOOTH",
"108 380 OFFCURVE",
"110 388 OFFCURVE",
"115 395 CURVE SMOOTH",
"132 420 OFFCURVE",
"166 433 OFFCURVE",
"217 433 CURVE SMOOTH",
"257 433 OFFCURVE",
"292 418 OFFCURVE",
"314 392 CURVE SMOOTH",
"336 366 OFFCURVE",
"347 328 OFFCURVE",
"347 287 CURVE",
"236 287 LINE SMOOTH",
"167 287 OFFCURVE",
"113 233 OFFCURVE",
"113 164 CURVE SMOOTH",
"113 105 OFFCURVE",
"143 62 OFFCURVE",
"197 40 CURVE SMOOTH",
"224 29 OFFCURVE",
"256 23 OFFCURVE",
"294 23 CURVE SMOOTH",
"314 23 OFFCURVE",
"336 25 OFFCURVE",
"359 28 CURVE",
"359 313 LINE SMOOTH",
"359 377 OFFCURVE",
"390 422 OFFCURVE",
"439 435 CURVE",
"462 424 LINE",
"451 420 OFFCURVE",
"445 413 OFFCURVE",
"445 403 CURVE SMOOTH",
"445 400 OFFCURVE",
"446 396 OFFCURVE",
"449 392 CURVE",
"451 388 OFFCURVE",
"465 375 OFFCURVE",
"491 352 CURVE SMOOTH",
"514 332 OFFCURVE",
"526 309 OFFCURVE",
"526 282 CURVE SMOOTH",
"526 233 OFFCURVE",
"481 200 OFFCURVE",
"428 200 CURVE SMOOTH",
"415 200 OFFCURVE",
"401 202 OFFCURVE",
"388 206 CURVE",
"388 29 LINE",
"437 37 OFFCURVE",
"482 55 OFFCURVE",
"523 83 CURVE",
"523 51 LINE",
"488 30 OFFCURVE",
"443 13 OFFCURVE",
"388 2 CURVE",
"388 -215 LINE",
"359 -215 LINE",
"359 0 LINE",
"332 -3 OFFCURVE",
"306 -4 OFFCURVE",
"282 -4 CURVE SMOOTH",
"246 -4 OFFCURVE",
"214 -1 OFFCURVE",
"186 4 CURVE SMOOTH",
"158 9 OFFCURVE",
"133 17 OFFCURVE",
"113 29 CURVE",
"92 40 OFFCURVE",
"74 53 OFFCURVE",
"62 70 CURVE",
"49 86 OFFCURVE",
"40 105 OFFCURVE",
"36 127 CURVE SMOOTH",
"34 138 OFFCURVE",
"33 149 OFFCURVE",
"33 161 CURVE SMOOTH"
);
}
);
width = 874;
},
{
layerId = "AA78C373-A874-4B43-A7A1-B39102DDD1E4";
name = Bold;
width = 600;
}
);
unicode = 0D88;
},
{
color = 6;
export = 0;
glyphname = si_I;
lastChange = "2015-06-22 15:06:21 +0000";
layers = (
{
background = {
paths = (
{
closed = 1;
nodes = (
"272 247 OFFCURVE",
"250 225 OFFCURVE",
"250 198 CURVE SMOOTH",
"250 171 OFFCURVE",
"273 149 OFFCURVE",
"300 149 CURVE SMOOTH",
"328 149 OFFCURVE",
"350 171 OFFCURVE",
"350 198 CURVE SMOOTH",
"350 225 OFFCURVE",
"327 247 OFFCURVE",
"300 247 CURVE SMOOTH"
);
},
{
closed = 1;
nodes = (
"165 357 OFFCURVE",
"73 303 OFFCURVE",
"73 204 CURVE SMOOTH",
"73 168 OFFCURVE",
"90 137 OFFCURVE",
"124 110 CURVE SMOOTH",
"140 98 OFFCURVE",
"160 89 OFFCURVE",
"185 85 CURVE",
"197 82 OFFCURVE",
"210 81 OFFCURVE",
"225 81 CURVE SMOOTH",
"268 81 OFFCURVE",
"304 98 OFFCURVE",
"333 131 CURVE",
"322 124 OFFCURVE",
"310 121 OFFCURVE",
"297 121 CURVE SMOOTH",
"256 121 OFFCURVE",
"216 155 OFFCURVE",
"216 195 CURVE SMOOTH",
"216 239 OFFCURVE",
"257 276 OFFCURVE",
"302 276 CURVE SMOOTH",
"353 276 OFFCURVE",
"389 237 OFFCURVE",
"389 186 CURVE SMOOTH",
"389 125 OFFCURVE",
"335 77 OFFCURVE",
"274 61 CURVE SMOOTH",
"256 56 OFFCURVE",
"237 54 OFFCURVE",
"218 54 CURVE SMOOTH",
"113 54 OFFCURVE",
"33 121 OFFCURVE",
"33 218 CURVE SMOOTH",
"33 351 OFFCURVE",
"135 432 OFFCURVE",
"279 432 CURVE SMOOTH",
"448 432 OFFCURVE",
"544 351 OFFCURVE",
"544 191 CURVE SMOOTH",
"544 94 OFFCURVE",
"472 10 OFFCURVE",
"384 -6 CURVE",
"421 -13 OFFCURVE",
"439 -36 OFFCURVE",
"439 -75 CURVE SMOOTH",
"439 -130 OFFCURVE",
"371 -160 OFFCURVE",
"298 -160 CURVE SMOOTH",
"242 -160 OFFCURVE",
"203 -144 OFFCURVE",
"182 -113 CURVE",
"176 -105 OFFCURVE",
"173 -95 OFFCURVE",
"173 -83 CURVE SMOOTH",
"173 -54 OFFCURVE",
"186 -39 OFFCURVE",
"211 -39 CURVE SMOOTH",
"228 -39 OFFCURVE",
"236 -48 OFFCURVE",
"236 -65 CURVE SMOOTH",
"236 -67 OFFCURVE",
"235 -71 OFFCURVE",
"233 -78 CURVE SMOOTH",
"231 -85 OFFCURVE",
"230 -90 OFFCURVE",
"230 -92 CURVE SMOOTH",
"230 -107 OFFCURVE",
"239 -119 OFFCURVE",
"253 -126 CURVE",
"267 -134 OFFCURVE",
"283 -137 OFFCURVE",
"302 -137 CURVE SMOOTH",
"318 -137 OFFCURVE",
"330 -135 OFFCURVE",
"342 -131 CURVE SMOOTH",
"353 -127 OFFCURVE",
"361 -121 OFFCURVE",
"367 -112 CURVE",
"373 -104 OFFCURVE",
"375 -93 OFFCURVE",
"375 -81 CURVE SMOOTH",
"375 -39 OFFCURVE",
"329 -16 OFFCURVE",
"238 -13 CURVE",
"238 15 LINE",
"263 12 OFFCURVE",
"285 10 OFFCURVE",
"306 10 CURVE SMOOTH",
"425 10 OFFCURVE",
"506 70 OFFCURVE",
"506 179 CURVE SMOOTH",
"506 290 OFFCURVE",
"409 357 OFFCURVE",
"284 357 CURVE SMOOTH"
);
}
);
};
layerId = "C18F3EFD-FA9C-4751-AD2F-5B966120D1A5";
name = Regular;
paths = (
{
closed = 1;
nodes = (
"260.404 13.425 OFFCURVE",
"249.679 12.973 OFFCURVE",
"238 12 CURVE",
"238 -16 LINE",
"247.544 -15.091 OFFCURVE",
"256.714 -14.647 OFFCURVE",
"265.468 -14.647 CURVE SMOOTH",
"332.405 -14.647 OFFCURVE",
"375.053 -40.617 OFFCURVE",
"375.053 -83.378 CURVE SMOOTH",
"375.053 -120.937 OFFCURVE",
"339.383 -137.408 OFFCURVE",
"300.489 -137.408 CURVE SMOOTH",
"242.211 -137.408 OFFCURVE",
"231.331 -114 OFFCURVE",
"231.331 -94 CURVE SMOOTH",
"231.331 -81.899 OFFCURVE",
"235 -70.548 OFFCURVE",
"235 -65 CURVE SMOOTH",
"235 -47.773 OFFCURVE",
"222 -38.457 OFFCURVE",
"207 -38.457 CURVE SMOOTH",
"190.397 -38.457 OFFCURVE",
"172.568 -50.19 OFFCURVE",
"172.568 -75.659 CURVE SMOOTH",
"172.568 -139.056 OFFCURVE",
"236.041 -160.272 OFFCURVE",
"298.363 -160.272 CURVE SMOOTH",
"364.215 -160.272 OFFCURVE",
"439.019 -134.438 OFFCURVE",
"439.019 -74.617 CURVE SMOOTH",
"439.019 -35.565 OFFCURVE",
"417.36 -12.066 OFFCURVE",
"384 -6 CURVE",
"472.805 9.905 OFFCURVE",
"544.073 92.399 OFFCURVE",
"544.073 198.29 CURVE SMOOTH",
"544.073 353.23 OFFCURVE",
"443.736 432.23 OFFCURVE",
"284.187 432.23 CURVE SMOOTH",
"140.745 432.23 OFFCURVE",
"32.769 356.9 OFFCURVE",
"32.769 220.978 CURVE SMOOTH",
"32.769 116.842 OFFCURVE",
"114.953 54 OFFCURVE",
"218 54 CURVE SMOOTH",
"305 54 OFFCURVE",
"389 106 OFFCURVE",
"389 186 CURVE SMOOTH",
"389 237.615 OFFCURVE",
"355.785 275.684 OFFCURVE",
"298.355 275.684 CURVE SMOOTH",
"251.671 275.684 OFFCURVE",
"216 241.264 OFFCURVE",
"216 195 CURVE SMOOTH",
"216 154.57 OFFCURVE",
"250.972 120.978 OFFCURVE",
"295.065 120.978 CURVE SMOOTH",
"309.454 120.978 OFFCURVE",
"325.829 124.018 OFFCURVE",
"337 131 CURVE",
"308.231 97.654 OFFCURVE",
"268.239 80.981 OFFCURVE",
"224.573 80.981 CURVE SMOOTH",
"138.393 80.981 OFFCURVE",
"73.42 133.53 OFFCURVE",
"73.42 204.135 CURVE SMOOTH",
"73.42 308.982 OFFCURVE",
"174.761 357.365 OFFCURVE",
"285.138 357.365 CURVE SMOOTH",
"404.848 357.365 OFFCURVE",
"506 292.451 OFFCURVE",
"506 179 CURVE SMOOTH",
"506 72.243 OFFCURVE",
"423.445 11.308 OFFCURVE",
"324.408 11.308 CURVE SMOOTH",
"306.88 11.308 OFFCURVE",
"287.882 13.425 OFFCURVE",
"271.107 13.425 CURVE SMOOTH"
);
},
{
closed = 1;
nodes = (
"326.667 247 OFFCURVE",
"350 225.654 OFFCURVE",
"350 198 CURVE SMOOTH",
"350 171.345 OFFCURVE",
"327.59 149 OFFCURVE",
"300 149 CURVE SMOOTH",
"273.333 149 OFFCURVE",
"250 170.346 OFFCURVE",
"250 198 CURVE SMOOTH",
"250 224.655 OFFCURVE",
"272.41 247 OFFCURVE",
"300 247 CURVE SMOOTH"
);
}
);
width = 593;
},
{
layerId = "AA78C373-A874-4B43-A7A1-B39102DDD1E4";
name = Bold;
paths = (
{
closed = 1;
nodes = (
"262.404 13.425 OFFCURVE",
"260.679 12.974 OFFCURVE",
"249 12 CURVE",
"249 -16 LINE",
"258.544 -15.091 OFFCURVE",
"258.714 -14.647 OFFCURVE",
"267.469 -14.647 CURVE SMOOTH",
"334.405 -14.647 OFFCURVE",
"369.053 -40.617 OFFCURVE",
"369.053 -83.378 CURVE SMOOTH",
"369.053 -120.937 OFFCURVE",
"339.383 -137.408 OFFCURVE",
"300.489 -137.408 CURVE SMOOTH",
"247 -137.408 OFFCURVE",
"233.331 -114 OFFCURVE",
"233.331 -94 CURVE SMOOTH",
"233.331 -81.898 OFFCURVE",
"237 -70.549 OFFCURVE",
"237 -65 CURVE SMOOTH",
"237 -47.773 OFFCURVE",
"222 -38.457 OFFCURVE",
"207 -38.457 CURVE SMOOTH",
"190.397 -38.457 OFFCURVE",
"172.568 -50.19 OFFCURVE",
"172.568 -75.659 CURVE SMOOTH",
"172.568 -139.056 OFFCURVE",
"236.041 -160.272 OFFCURVE",
"298.363 -160.272 CURVE SMOOTH",
"364.215 -160.272 OFFCURVE",
"439.019 -134.438 OFFCURVE",
"439.019 -74.617 CURVE SMOOTH",
"439.019 -35.565 OFFCURVE",
"417.36 -12.066 OFFCURVE",
"384 -6 CURVE",
"472.805 9.905 OFFCURVE",
"544.073 92.399 OFFCURVE",
"544.073 198.29 CURVE SMOOTH",
"544.073 353.23 OFFCURVE",
"443.736 432.23 OFFCURVE",
"284.187 432.23 CURVE SMOOTH",
"140.745 432.23 OFFCURVE",
"32.769 356.9 OFFCURVE",
"32.769 220.978 CURVE SMOOTH",
"32.769 116.842 OFFCURVE",
"113 54 OFFCURVE",
"220 54 CURVE SMOOTH",
"310 54 OFFCURVE",
"377 90 OFFCURVE",
"377 170 CURVE SMOOTH",
"377 221.615 OFFCURVE",
"343.785 259.684 OFFCURVE",
"286.355 259.684 CURVE SMOOTH",
"239.671 259.684 OFFCURVE",
"204 225.264 OFFCURVE",
"204 179 CURVE SMOOTH",
"204 138.57 OFFCURVE",
"238.973 104.979 OFFCURVE",
"283.064 104.979 CURVE SMOOTH",
"297.454 104.979 OFFCURVE",
"318 108 OFFCURVE",
"333 120 CURVE",
"317 96 OFFCURVE",
"276 80.981 OFFCURVE",
"222.573 80.981 CURVE SMOOTH",
"141 80.981 OFFCURVE",
"94.42 132 OFFCURVE",
"94.42 187.135 CURVE SMOOTH",
"94.42 270 OFFCURVE",
"168 322 OFFCURVE",
"285 322 CURVE SMOOTH",
"412 322 OFFCURVE",
"484 245 OFFCURVE",
"484 159 CURVE SMOOTH",
"484 72 OFFCURVE",
"418 11.308 OFFCURVE",
"324.408 11.308 CURVE SMOOTH",
"306.88 11.308 OFFCURVE",
"289.882 13.425 OFFCURVE",
"273.107 13.425 CURVE SMOOTH"
);
},
{
closed = 1;
nodes = (
"314.667 231 OFFCURVE",
"338 209.654 OFFCURVE",
"338 182 CURVE SMOOTH",
"338 155.346 OFFCURVE",
"315.591 133 OFFCURVE",
"288 133 CURVE SMOOTH",
"261.333 133 OFFCURVE",
"238 154.346 OFFCURVE",
"238 182 CURVE SMOOTH",
"238 208.654 OFFCURVE",
"260.409 231 OFFCURVE",
"288 231 CURVE SMOOTH"
);
}
);
width = 593;
}
);
unicode = 0D89;
},
{
export = 0;
glyphname = si_Ii;
lastChange = "2015-06-22 15:06:21 +0000";
layers = (
{
layerId = "C18F3EFD-FA9C-4751-AD2F-5B966120D1A5";
name = Regular;
paths = (
{
closed = 1;
nodes = (
"426 505 OFFCURVE",
"408 489 OFFCURVE",
"408 468 CURVE SMOOTH",
"408 447 OFFCURVE",
"426 430 OFFCURVE",
"447 430 CURVE SMOOTH",
"468 430 OFFCURVE",
"486 448 OFFCURVE",
"486 468 CURVE SMOOTH",
"486 488 OFFCURVE",
"467 505 OFFCURVE",
"447 505 CURVE SMOOTH"
);
},
{
closed = 1;
nodes = (
"164 576 OFFCURVE",
"145 560 OFFCURVE",
"145 540 CURVE SMOOTH",
"145 519 OFFCURVE",
"164 501 OFFCURVE",
"185 501 CURVE SMOOTH",
"206 501 OFFCURVE",
"224 518 OFFCURVE",
"224 539 CURVE SMOOTH",
"224 560 OFFCURVE",
"205 576 OFFCURVE",
"184 576 CURVE SMOOTH"
);
},
{
closed = 1;
nodes = (
"381 503 OFFCURVE",
"410 532 OFFCURVE",
"445 532 CURVE SMOOTH",
"481 532 OFFCURVE",
"512 503 OFFCURVE",
"512 467 CURVE SMOOTH",
"512 432 OFFCURVE",
"483 403 OFFCURVE",
"448 403 CURVE SMOOTH",
"412 403 OFFCURVE",
"381 432 OFFCURVE",
"381 468 CURVE SMOOTH"
);
},
{
closed = 1;
nodes = (
"430 343 OFFCURVE",
"358 414 OFFCURVE",
"266 414 CURVE SMOOTH",
"155 414 OFFCURVE",
"66 329 OFFCURVE",
"66 237 CURVE SMOOTH",
"66 150 OFFCURVE",
"141 73 OFFCURVE",
"244 73 CURVE SMOOTH",
"360 73 OFFCURVE",
"430 167 OFFCURVE",
"430 254 CURVE SMOOTH"
);
},
{
closed = 1;
nodes = (
"124 0 OFFCURVE",
"31 89 OFFCURVE",
"31 213 CURVE SMOOTH",
"31 313 OFFCURVE",
"83 374 OFFCURVE",
"170 422 CURVE SMOOTH",
"227 453 OFFCURVE",
"253 469 OFFCURVE",
"308 517 CURVE",
"323 533 OFFCURVE",
"340 553 OFFCURVE",
"357 578 CURVE SMOOTH",
"370 597 OFFCURVE",
"382 610 OFFCURVE",
"392 618 CURVE",
"397 621 OFFCURVE",
"402 623 OFFCURVE",
"409 623 CURVE SMOOTH",
"425 623 OFFCURVE",
"433 617 OFFCURVE",
"433 606 CURVE SMOOTH",
"433 566 OFFCURVE",
"332 487 OFFCURVE",
"247 436 CURVE",
"254 437 OFFCURVE",
"261 437 OFFCURVE",
"268 437 CURVE SMOOTH",
"308 437 OFFCURVE",
"346 426 OFFCURVE",
"378 409 CURVE SMOOTH",
"409 392 OFFCURVE",
"436 365 OFFCURVE",
"454 334 CURVE SMOOTH",
"472 302 OFFCURVE",
"482 265 OFFCURVE",
"482 225 CURVE SMOOTH",
"482 86 OFFCURVE",
"365 0 OFFCURVE",
"248 0 CURVE SMOOTH"
);
},
{
closed = 1;
nodes = (
"117 573 OFFCURVE",
"146 603 OFFCURVE",
"181 603 CURVE SMOOTH",
"217 603 OFFCURVE",
"249 574 OFFCURVE",
"249 538 CURVE SMOOTH",
"249 503 OFFCURVE",
"220 474 OFFCURVE",
"184 474 CURVE SMOOTH",
"147 474 OFFCURVE",
"117 503 OFFCURVE",
"117 540 CURVE SMOOTH"
);
}
);
width = 528;
},
{
layerId = "AA78C373-A874-4B43-A7A1-B39102DDD1E4";
name = Bold;
width = 600;
}
);
unicode = 0D8A;
},
{
export = 0;
glyphname = si_U;
lastChange = "2015-06-22 15:06:21 +0000";
layers = (
{
layerId = "C18F3EFD-FA9C-4751-AD2F-5B966120D1A5";
name = Regular;
paths = (
{
closed = 1;
nodes = (
"437 432 OFFCURVE",
"489 404 OFFCURVE",
"518 356 CURVE SMOOTH",
"532 332 OFFCURVE",
"539 305 OFFCURVE",
"539 276 CURVE SMOOTH",
"539 275 OFFCURVE",
"539 273 OFFCURVE",
"539 271 CURVE",
"282 271 LINE SMOOTH",
"183 271 OFFCURVE",
"109 195 OFFCURVE",
"109 110 CURVE SMOOTH",
"109 78 OFFCURVE",
"115 46 OFFCURVE",
"127 18 CURVE",
"138 -11 OFFCURVE",
"154 -37 OFFCURVE",
"175 -58 CURVE SMOOTH",
"195 -79 OFFCURVE",
"220 -97 OFFCURVE",
"248 -109 CURVE SMOOTH",
"276 -121 OFFCURVE",
"307 -128 OFFCURVE",
"340 -128 CURVE SMOOTH",
"467 -128 OFFCURVE",
"573 -46 OFFCURVE",
"574 69 CURVE",
"603 69 LINE",
"604 -22 OFFCURVE",
"546 -96 OFFCURVE",
"462 -133 CURVE SMOOTH",
"420 -152 OFFCURVE",
"374 -161 OFFCURVE",
"325 -161 CURVE SMOOTH",
"253 -161 OFFCURVE",
"189 -140 OFFCURVE",
"134 -98 CURVE",
"117 -86 OFFCURVE",
"102 -71 OFFCURVE",
"90 -57 CURVE",
"77 -43 OFFCURVE",
"66 -27 OFFCURVE",
"58 -11 CURVE",
"49 5 OFFCURVE",
"43 23 OFFCURVE",
"39 42 CURVE",
"34 61 OFFCURVE",
"32 80 OFFCURVE",
"32 101 CURVE SMOOTH",
"32 206 OFFCURVE",
"124 296 OFFCURVE",
"237 296 CURVE SMOOTH",
"507 296 LINE",
"500 364 OFFCURVE",
"443 390 OFFCURVE",
"408 390 CURVE SMOOTH",
"381 390 OFFCURVE",
"360 378 OFFCURVE",
"346 354 CURVE",
"337 337 OFFCURVE",
"323 329 OFFCURVE",
"305 329 CURVE SMOOTH",
"285 329 OFFCURVE",
"267 346 OFFCURVE",
"267 366 CURVE SMOOTH",
"267 370 OFFCURVE",
"268 374 OFFCURVE",
"269 378 CURVE",
"277 402 OFFCURVE",
"296 418 OFFCURVE",
"326 426 CURVE SMOOTH",
"341 430 OFFCURVE",
"358 432 OFFCURVE",
"378 432 CURVE SMOOTH"
);
}
);
width = 651;
},
{
layerId = "AA78C373-A874-4B43-A7A1-B39102DDD1E4";
name = Bold;
width = 600;
}
);
unicode = 0D8B;
},
{
export = 0;
glyphname = si_Uu;
lastChange = "2015-06-22 15:06:21 +0000";
layers = (
{
layerId = "C18F3EFD-FA9C-4751-AD2F-5B966120D1A5";
name = Regular;
paths = (
{
closed = 1;
nodes = (
"623 212 OFFCURVE",
"580 258 OFFCURVE",
"580 321 CURVE SMOOTH",
"580 370 OFFCURVE",
"592 405 OFFCURVE",
"617 428 CURVE",
"652 428 LINE",
"623 410 OFFCURVE",
"609 375 OFFCURVE",
"609 322 CURVE SMOOTH",
"609 275 OFFCURVE",
"641 237 OFFCURVE",
"685 237 CURVE SMOOTH",
"713 237 OFFCURVE",
"733 261 OFFCURVE",
"733 290 CURVE SMOOTH",
"733 307 OFFCURVE",
"726 323 OFFCURVE",
"713 337 CURVE",
"712 341 OFFCURVE",
"712 345 OFFCURVE",
"712 349 CURVE SMOOTH",
"712 400 OFFCURVE",
"744 432 OFFCURVE",
"817 432 CURVE SMOOTH",
"870 432 OFFCURVE",
"911 381 OFFCURVE",
"928 321 CURVE SMOOTH",
"936 290 OFFCURVE",
"940 258 OFFCURVE",
"940 225 CURVE SMOOTH",
"940 148 OFFCURVE",
"919 77 OFFCURVE",
"871 32 CURVE SMOOTH",
"847 9 OFFCURVE",
"819 -2 OFFCURVE",
"786 -2 CURVE SMOOTH",
"723 -2 OFFCURVE",
"681 52 OFFCURVE",
"681 120 CURVE SMOOTH",
"681 132 OFFCURVE",
"682 144 OFFCURVE",
"685 157 CURVE",
"711 157 LINE",
"709 146 OFFCURVE",
"708 136 OFFCURVE",
"708 125 CURVE SMOOTH",
"708 81 OFFCURVE",
"722 51 OFFCURVE",
"750 35 CURVE SMOOTH",
"761 29 OFFCURVE",
"773 26 OFFCURVE",
"785 26 CURVE SMOOTH",
"842 26 OFFCURVE",
"870 91 OFFCURVE",
"870 220 CURVE SMOOTH",
"870 300 OFFCURVE",
"861 353 OFFCURVE",
"840 385 CURVE",
"829 400 OFFCURVE",
"816 408 OFFCURVE",
"799 408 CURVE SMOOTH",
"780 408 OFFCURVE",
"766 403 OFFCURVE",
"756 392 CURVE SMOOTH",
"746 381 OFFCURVE",
"740 366 OFFCURVE",
"740 349 CURVE SMOOTH",
"740 347 OFFCURVE",
"740 345 OFFCURVE",
"740 343 CURVE",
"764 330 OFFCURVE",
"776 312 OFFCURVE",
"776 288 CURVE SMOOTH",
"776 256 OFFCURVE",
"757 232 OFFCURVE",
"729 221 CURVE SMOOTH",
"715 215 OFFCURVE",
"700 212 OFFCURVE",
"683 212 CURVE SMOOTH"
);
},
{
closed = 1;
nodes = (
"467 432 OFFCURVE",
"539 364 OFFCURVE",
"539 276 CURVE SMOOTH",
"539 275 OFFCURVE",
"539 273 OFFCURVE",
"539 271 CURVE",
"282 271 LINE SMOOTH",
"183 271 OFFCURVE",
"109 195 OFFCURVE",
"109 110 CURVE SMOOTH",
"109 -22 OFFCURVE",
"208 -128 OFFCURVE",
"340 -128 CURVE SMOOTH",
"467 -128 OFFCURVE",
"573 -46 OFFCURVE",
"574 69 CURVE",
"603 69 LINE",
"604 -22 OFFCURVE",
"546 -96 OFFCURVE",
"462 -133 CURVE SMOOTH",
"420 -152 OFFCURVE",
"374 -161 OFFCURVE",
"325 -161 CURVE SMOOTH",
"181 -161 OFFCURVE",
"32 -62 OFFCURVE",
"32 101 CURVE SMOOTH",
"32 206 OFFCURVE",
"124 296 OFFCURVE",
"237 296 CURVE SMOOTH",
"507 296 LINE",
"500 364 OFFCURVE",
"443 390 OFFCURVE",
"408 390 CURVE SMOOTH",
"381 390 OFFCURVE",
"360 378 OFFCURVE",
"346 354 CURVE",
"337 337 OFFCURVE",
"323 329 OFFCURVE",
"305 329 CURVE SMOOTH",
"285 329 OFFCURVE",
"267 346 OFFCURVE",
"267 366 CURVE SMOOTH",
"267 370 OFFCURVE",
"268 374 OFFCURVE",
"269 378 CURVE",
"281 414 OFFCURVE",
"317 432 OFFCURVE",
"378 432 CURVE SMOOTH"
);
}
);
width = 994;
},
{
layerId = "AA78C373-A874-4B43-A7A1-B39102DDD1E4";
name = Bold;
width = 600;
}
);
unicode = 0D8C;
},
{
export = 0;
glyphname = si_vocalicR;
lastChange = "2015-06-22 15:06:21 +0000";
layers = (
{
layerId = "C18F3EFD-FA9C-4751-AD2F-5B966120D1A5";
name = Regular;
paths = (
{
closed = 1;
nodes = (
"521 372 OFFCURVE",
"489 392 OFFCURVE",
"450 392 CURVE SMOOTH",
"395 392 OFFCURVE",
"366 364 OFFCURVE",
"362 309 CURVE",
"381 314 OFFCURVE",
"405 317 OFFCURVE",
"433 317 CURVE SMOOTH",
"464 317 OFFCURVE",
"489 313 OFFCURVE",
"506 306 CURVE",
"516 315 OFFCURVE",
"521 326 OFFCURVE",
"521 339 CURVE SMOOTH"
);
},
{
closed = 1;
nodes = (
"220 433 OFFCURVE",
"258 411 OFFCURVE",
"277 371 CURVE SMOOTH",
"286 351 OFFCURVE",
"291 326 OFFCURVE",
"291 297 CURVE SMOOTH",
"291 292 OFFCURVE",
"291 287 OFFCURVE",
"291 282 CURVE",
"268 283 OFFCURVE",
"249 284 OFFCURVE",
"232 284 CURVE SMOOTH",
"121 284 OFFCURVE",
"70 238 OFFCURVE",
"70 174 CURVE SMOOTH",
"70 118 OFFCURVE",
"131 72 OFFCURVE",
"192 72 CURVE SMOOTH",
"249 72 OFFCURVE",
"299 100 OFFCURVE",
"299 145 CURVE SMOOTH",
"299 182 LINE",
"329 182 LINE",
"329 145 LINE SMOOTH",
"329 97 OFFCURVE",
"385 72 OFFCURVE",
"450 72 CURVE SMOOTH",
"514 72 OFFCURVE",
"568 117 OFFCURVE",
"568 177 CURVE SMOOTH",
"568 238 OFFCURVE",
"521 284 OFFCURVE",
"461 289 CURVE SMOOTH",
"450 290 OFFCURVE",
"439 290 OFFCURVE",
"428 290 CURVE SMOOTH",
"397 290 OFFCURVE",
"365 287 OFFCURVE",
"330 280 CURVE",
"330 284 OFFCURVE",
"330 288 OFFCURVE",
"330 291 CURVE SMOOTH",
"330 376 OFFCURVE",
"380 432 OFFCURVE",
"461 432 CURVE SMOOTH",
"512 432 OFFCURVE",
"544 410 OFFCURVE",
"557 365 CURVE",
"558 360 OFFCURVE",
"559 355 OFFCURVE",
"559 350 CURVE SMOOTH",
"559 327 OFFCURVE",
"546 304 OFFCURVE",
"529 297 CURVE",
"582 272 OFFCURVE",
"608 226 OFFCURVE",
"608 160 CURVE SMOOTH",
"608 80 OFFCURVE",
"544 0 OFFCURVE",
"444 0 CURVE SMOOTH",
"380 0 OFFCURVE",
"336 27 OFFCURVE",
"312 82 CURVE",
"291 27 OFFCURVE",
"247 -1 OFFCURVE",
"178 -1 CURVE SMOOTH",
"93 -1 OFFCURVE",
"31 70 OFFCURVE",
"31 153 CURVE SMOOTH",
"31 256 OFFCURVE",
"108 310 OFFCURVE",
"225 310 CURVE SMOOTH",
"236 310 OFFCURVE",
"248 310 OFFCURVE",
"261 309 CURVE",
"258 358 OFFCURVE",
"235 382 OFFCURVE",
"191 382 CURVE SMOOTH",
"190 382 OFFCURVE",
"190 382 OFFCURVE",
"189 382 CURVE SMOOTH",
"172 382 OFFCURVE",
"159 373 OFFCURVE",
"151 354 CURVE SMOOTH",
"142 333 OFFCURVE",
"128 323 OFFCURVE",
"107 323 CURVE SMOOTH",
"81 323 OFFCURVE",
"68 336 OFFCURVE",
"68 362 CURVE SMOOTH",
"68 405 OFFCURVE",
"112 433 OFFCURVE",
"163 433 CURVE SMOOTH"
);
},
{
closed = 1;
nodes = (
"664 64 OFFCURVE",
"693 30 OFFCURVE",
"733 29 CURVE SMOOTH",
"742 29 OFFCURVE",
"754 31 OFFCURVE",
"768 36 CURVE SMOOTH",
"782 41 OFFCURVE",
"791 43 OFFCURVE",
"795 43 CURVE SMOOTH",
"799 43 OFFCURVE",
"802 42 OFFCURVE",
"805 40 CURVE",
"803 53 OFFCURVE",
"802 79 OFFCURVE",
"802 117 CURVE SMOOTH",
"802 154 OFFCURVE",
"802 180 OFFCURVE",
"801 194 CURVE",
"784 194 OFFCURVE",
"758 191 OFFCURVE",
"723 185 CURVE",
"684 174 OFFCURVE",
"664 148 OFFCURVE",
"664 107 CURVE SMOOTH"
);
},
{
closed = 1;
nodes = (
"686 358 OFFCURVE",
"657 310 OFFCURVE",
"657 254 CURVE SMOOTH",
"657 250 OFFCURVE",
"657 246 OFFCURVE",
"657 242 CURVE",
"633 242 LINE",
"633 245 OFFCURVE",
"633 247 OFFCURVE",
"633 250 CURVE SMOOTH",
"633 333 OFFCURVE",
"672 393 OFFCURVE",
"743 393 CURVE SMOOTH",
"796 393 OFFCURVE",
"835 347 OFFCURVE",
"851 290 CURVE SMOOTH",
"859 261 OFFCURVE",
"863 230 OFFCURVE",
"863 197 CURVE SMOOTH",
"863 195 OFFCURVE",
"863 193 OFFCURVE",
"863 191 CURVE SMOOTH",
"863 168 OFFCURVE",
"860 138 OFFCURVE",
"855 101 CURVE SMOOTH",
"850 63 OFFCURVE",
"847 37 OFFCURVE",
"847 24 CURVE SMOOTH",
"847 16 OFFCURVE",
"847 9 OFFCURVE",
"848 3 CURVE",
"817 3 LINE",
"814 12 OFFCURVE",
"809 17 OFFCURVE",
"802 17 CURVE SMOOTH",
"798 17 OFFCURVE",
"787 14 OFFCURVE",
"769 8 CURVE",
"753 2 OFFCURVE",
"739 -1 OFFCURVE",
"726 -1 CURVE SMOOTH",
"685 -1 OFFCURVE",
"646 36 OFFCURVE",
"637 73 CURVE SMOOTH",
"634 84 OFFCURVE",
"633 96 OFFCURVE",
"633 107 CURVE SMOOTH",
"633 186 OFFCURVE",
"700 222 OFFCURVE",
"801 222 CURVE",
"794 313 OFFCURVE",
"772 358 OFFCURVE",
"733 358 CURVE SMOOTH"
);
}
);
width = 894;
},
{
layerId = "AA78C373-A874-4B43-A7A1-B39102DDD1E4";
name = Bold;
width = 600;
}
);
unicode = 0D8D;
},
{
export = 0;
glyphname = si_vocalicRr;
lastChange = "2015-06-22 15:06:21 +0000";
layers = (
{
layerId = "C18F3EFD-FA9C-4751-AD2F-5B966120D1A5";
name = Regular;
paths = (
{
closed = 1;
nodes = (
"911 64 OFFCURVE",
"940 30 OFFCURVE",
"980 29 CURVE SMOOTH",
"989 29 OFFCURVE",
"1001 31 OFFCURVE",
"1015 36 CURVE SMOOTH",
"1029 41 OFFCURVE",
"1038 43 OFFCURVE",
"1042 43 CURVE SMOOTH",
"1046 43 OFFCURVE",
"1049 42 OFFCURVE",
"1052 40 CURVE",
"1050 53 OFFCURVE",
"1049 79 OFFCURVE",
"1049 117 CURVE SMOOTH",
"1049 154 OFFCURVE",
"1049 180 OFFCURVE",
"1048 194 CURVE",
"1031 194 OFFCURVE",
"1005 191 OFFCURVE",
"970 185 CURVE",
"931 174 OFFCURVE",
"911 148 OFFCURVE",
"911 107 CURVE SMOOTH"
);
},
{
closed = 1;
nodes = (
"971 358 OFFCURVE",
"961 356 OFFCURVE",
"953 353 CURVE",
"945 349 OFFCURVE",
"939 344 OFFCURVE",
"933 337 CURVE SMOOTH",
"927 330 OFFCURVE",
"921 322 OFFCURVE",
"917 314 CURVE",
"912 305 OFFCURVE",
"909 296 OFFCURVE",
"907 286 CURVE SMOOTH",
"905 276 OFFCURVE",
"904 265 OFFCURVE",
"904 254 CURVE SMOOTH",
"904 250 OFFCURVE",
"904 246 OFFCURVE",
"904 242 CURVE",
"880 242 LINE",
"880 245 OFFCURVE",
"880 247 OFFCURVE",
"880 250 CURVE SMOOTH",
"880 333 OFFCURVE",
"919 393 OFFCURVE",
"990 393 CURVE SMOOTH",
"1069 393 OFFCURVE",
"1110 302 OFFCURVE",
"1110 197 CURVE SMOOTH",
"1110 195 OFFCURVE",
"1110 193 OFFCURVE",
"1110 191 CURVE SMOOTH",
"1110 168 OFFCURVE",
"1107 138 OFFCURVE",
"1102 101 CURVE SMOOTH",
"1097 63 OFFCURVE",
"1094 37 OFFCURVE",
"1094 24 CURVE SMOOTH",
"1094 16 OFFCURVE",
"1094 9 OFFCURVE",
"1095 3 CURVE",
"1064 3 LINE",
"1061 12 OFFCURVE",
"1056 17 OFFCURVE",
"1049 17 CURVE SMOOTH",
"1045 17 OFFCURVE",
"1034 14 OFFCURVE",
"1016 8 CURVE",
"1000 2 OFFCURVE",
"986 -1 OFFCURVE",
"973 -1 CURVE SMOOTH",
"932 -1 OFFCURVE",
"893 36 OFFCURVE",
"884 73 CURVE SMOOTH",
"881 84 OFFCURVE",
"880 96 OFFCURVE",
"880 107 CURVE SMOOTH",
"880 186 OFFCURVE",
"947 222 OFFCURVE",
"1048 222 CURVE",
"1041 313 OFFCURVE",
"1019 358 OFFCURVE",
"980 358 CURVE SMOOTH"
);
},
{
closed = 1;
nodes = (
"521 372 OFFCURVE",
"489 392 OFFCURVE",
"450 392 CURVE SMOOTH",
"395 392 OFFCURVE",
"366 364 OFFCURVE",
"362 309 CURVE",
"381 314 OFFCURVE",
"405 317 OFFCURVE",
"433 317 CURVE SMOOTH",
"464 317 OFFCURVE",
"489 313 OFFCURVE",
"506 306 CURVE",
"516 315 OFFCURVE",
"521 326 OFFCURVE",
"521 339 CURVE SMOOTH"
);
},
{
closed = 1;
nodes = (
"220 433 OFFCURVE",
"258 411 OFFCURVE",
"277 371 CURVE SMOOTH",
"286 351 OFFCURVE",
"291 326 OFFCURVE",
"291 297 CURVE SMOOTH",
"291 292 OFFCURVE",
"291 287 OFFCURVE",
"291 282 CURVE",
"268 283 OFFCURVE",
"249 284 OFFCURVE",
"232 284 CURVE SMOOTH",
"121 284 OFFCURVE",
"70 238 OFFCURVE",
"70 174 CURVE SMOOTH",
"70 118 OFFCURVE",
"131 72 OFFCURVE",
"192 72 CURVE SMOOTH",
"249 72 OFFCURVE",
"299 100 OFFCURVE",
"299 145 CURVE SMOOTH",
"299 182 LINE",
"329 182 LINE",
"329 145 LINE SMOOTH",
"329 97 OFFCURVE",
"385 72 OFFCURVE",
"450 72 CURVE SMOOTH",
"514 72 OFFCURVE",
"568 117 OFFCURVE",
"568 177 CURVE SMOOTH",
"568 238 OFFCURVE",
"521 284 OFFCURVE",
"461 289 CURVE SMOOTH",
"450 290 OFFCURVE",
"439 290 OFFCURVE",
"428 290 CURVE SMOOTH",
"397 290 OFFCURVE",
"365 287 OFFCURVE",
"330 280 CURVE",
"330 284 OFFCURVE",
"330 288 OFFCURVE",
"330 291 CURVE SMOOTH",
"330 376 OFFCURVE",
"380 432 OFFCURVE",
"461 432 CURVE SMOOTH",
"512 432 OFFCURVE",
"544 410 OFFCURVE",
"557 365 CURVE",
"558 360 OFFCURVE",
"559 355 OFFCURVE",
"559 350 CURVE SMOOTH",
"559 327 OFFCURVE",
"546 304 OFFCURVE",
"529 297 CURVE",
"582 272 OFFCURVE",
"608 226 OFFCURVE",
"608 160 CURVE SMOOTH",
"608 80 OFFCURVE",
"544 0 OFFCURVE",
"444 0 CURVE SMOOTH",
"380 0 OFFCURVE",
"336 27 OFFCURVE",
"312 82 CURVE",
"291 27 OFFCURVE",
"247 -1 OFFCURVE",
"178 -1 CURVE SMOOTH",
"93 -1 OFFCURVE",
"31 70 OFFCURVE",
"31 153 CURVE SMOOTH",
"31 256 OFFCURVE",
"108 310 OFFCURVE",
"225 310 CURVE SMOOTH",
"236 310 OFFCURVE",
"248 310 OFFCURVE",
"261 309 CURVE",
"258 358 OFFCURVE",
"235 382 OFFCURVE",
"191 382 CURVE SMOOTH",
"190 382 OFFCURVE",
"190 382 OFFCURVE",
"189 382 CURVE SMOOTH",
"172 382 OFFCURVE",
"159 373 OFFCURVE",
"151 354 CURVE SMOOTH",
"142 333 OFFCURVE",
"128 323 OFFCURVE",
"107 323 CURVE SMOOTH",
"81 323 OFFCURVE",
"68 336 OFFCURVE",
"68 362 CURVE SMOOTH",
"68 405 OFFCURVE",
"112 433 OFFCURVE",
"163 433 CURVE SMOOTH"
);
},
{
closed = 1;
nodes = (
"664 64 OFFCURVE",
"693 30 OFFCURVE",
"733 29 CURVE SMOOTH",
"742 29 OFFCURVE",
"754 31 OFFCURVE",
"768 36 CURVE SMOOTH",
"782 41 OFFCURVE",
"791 43 OFFCURVE",
"795 43 CURVE SMOOTH",
"799 43 OFFCURVE",
"802 42 OFFCURVE",
"805 40 CURVE",
"803 53 OFFCURVE",
"802 79 OFFCURVE",
"802 117 CURVE SMOOTH",
"802 154 OFFCURVE",
"802 180 OFFCURVE",
"801 194 CURVE",
"784 194 OFFCURVE",
"758 191 OFFCURVE",
"723 185 CURVE",
"684 174 OFFCURVE",
"664 148 OFFCURVE",
"664 107 CURVE SMOOTH"
);
},
{
closed = 1;
nodes = (
"686 358 OFFCURVE",
"657 310 OFFCURVE",
"657 254 CURVE SMOOTH",
"657 250 OFFCURVE",
"657 246 OFFCURVE",
"657 242 CURVE",
"633 242 LINE",
"633 245 OFFCURVE",
"633 247 OFFCURVE",
"633 250 CURVE SMOOTH",
"633 333 OFFCURVE",
"672 393 OFFCURVE",
"743 393 CURVE SMOOTH",
"796 393 OFFCURVE",
"835 347 OFFCURVE",
"851 290 CURVE SMOOTH",
"859 261 OFFCURVE",
"863 230 OFFCURVE",
"863 197 CURVE SMOOTH",
"863 195 OFFCURVE",
"863 193 OFFCURVE",
"863 191 CURVE SMOOTH",
"863 168 OFFCURVE",
"860 138 OFFCURVE",
"855 101 CURVE SMOOTH",
"850 63 OFFCURVE",
"847 37 OFFCURVE",
"847 24 CURVE SMOOTH",
"847 16 OFFCURVE",
"847 9 OFFCURVE",
"848 3 CURVE",
"817 3 LINE",
"814 12 OFFCURVE",
"809 17 OFFCURVE",
"802 17 CURVE SMOOTH",
"798 17 OFFCURVE",
"787 14 OFFCURVE",
"769 8 CURVE",
"753 2 OFFCURVE",
"739 -1 OFFCURVE",
"726 -1 CURVE SMOOTH",
"685 -1 OFFCURVE",
"646 36 OFFCURVE",
"637 73 CURVE SMOOTH",
"634 84 OFFCURVE",
"633 96 OFFCURVE",
"633 107 CURVE SMOOTH",
"633 186 OFFCURVE",
"700 222 OFFCURVE",
"801 222 CURVE",
"794 313 OFFCURVE",
"772 358 OFFCURVE",
"733 358 CURVE SMOOTH"
);
}
);
width = 1146;
},
{
layerId = "AA78C373-A874-4B43-A7A1-B39102DDD1E4";
name = Bold;
width = 600;
}
);
unicode = 0D8E;
},
{
export = 0;
glyphname = si_vocalicU;
lastChange = "2015-06-22 15:06:21 +0000";
layers = (
{
layerId = "C18F3EFD-FA9C-4751-AD2F-5B966120D1A5";
name = Regular;
paths = (
{
closed = 1;
nodes = (
"331 432 OFFCURVE",
"372 393 OFFCURVE",
"372 324 CURVE SMOOTH",
"372 310 OFFCURVE",
"370 295 OFFCURVE",
"366 280 CURVE",
"254 280 OFFCURVE",
"243 282 OFFCURVE",
"204 244 CURVE SMOOTH",
"184 225 OFFCURVE",
"174 203 OFFCURVE",
"174 178 CURVE SMOOTH",
"174 139 OFFCURVE",
"205 110 OFFCURVE",
"252 94 CURVE SMOOTH",
"299 78 OFFCURVE",
"349 71 OFFCURVE",
"401 71 CURVE SMOOTH",
"544 71 OFFCURVE",
"615 106 OFFCURVE",
"615 175 CURVE SMOOTH",
"615 247 OFFCURVE",
"564 283 OFFCURVE",
"463 283 CURVE SMOOTH",
"448 283 OFFCURVE",
"432 282 OFFCURVE",
"414 281 CURVE",
"410 295 OFFCURVE",
"408 309 OFFCURVE",
"408 322 CURVE SMOOTH",
"408 390 OFFCURVE",
"457 431 OFFCURVE",
"530 432 CURVE SMOOTH",
"549 432 OFFCURVE",
"563 429 OFFCURVE",
"573 422 CURVE",
"570 429 OFFCURVE",
"569 436 OFFCURVE",
"569 443 CURVE SMOOTH",
"569 467 OFFCURVE",
"585 479 OFFCURVE",
"616 479 CURVE SMOOTH",
"715 479 OFFCURVE",
"761 348 OFFCURVE",
"761 243 CURVE SMOOTH",
"761 196 OFFCURVE",
"753 141 OFFCURVE",
"737 90 CURVE SMOOTH",
"721 39 OFFCURVE",
"692 2 OFFCURVE",
"657 2 CURVE SMOOTH",
"630 2 OFFCURVE",
"608 23 OFFCURVE",
"608 51 CURVE SMOOTH",
"608 54 OFFCURVE",
"608 58 OFFCURVE",
"609 61 CURVE",
"564 20 OFFCURVE",
"494 0 OFFCURVE",
"401 0 CURVE SMOOTH",
"302 0 OFFCURVE",
"230 20 OFFCURVE",
"184 61 CURVE",
"185 58 OFFCURVE",
"185 55 OFFCURVE",
"185 52 CURVE SMOOTH",
"185 31 OFFCURVE",
"175 16 OFFCURVE",
"156 7 CURVE",
"149 4 OFFCURVE",
"142 2 OFFCURVE",
"135 2 CURVE SMOOTH",
"100 2 OFFCURVE",
"71 39 OFFCURVE",
"55 89 CURVE SMOOTH",
"39 139 OFFCURVE",
"31 193 OFFCURVE",
"31 240 CURVE SMOOTH",
"31 316 OFFCURVE",
"50 390 OFFCURVE",
"95 441 CURVE SMOOTH",
"118 466 OFFCURVE",
"144 479 OFFCURVE",
"175 479 CURVE SMOOTH",
"206 479 OFFCURVE",
"222 467 OFFCURVE",
"222 444 CURVE SMOOTH",
"222 439 OFFCURVE",
"221 433 OFFCURVE",
"219 426 CURVE",
"230 430 OFFCURVE",
"243 432 OFFCURVE",
"256 432 CURVE SMOOTH"
);
},
{
closed = 1;
nodes = (
"190 448 OFFCURVE",
"186 452 OFFCURVE",
"175 452 CURVE SMOOTH",
"132 452 OFFCURVE",
"95 406 OFFCURVE",
"78 354 CURVE SMOOTH",
"69 328 OFFCURVE",
"64 302 OFFCURVE",
"63 277 CURVE SMOOTH",
"62 262 OFFCURVE",
"62 249 OFFCURVE",
"62 236 CURVE SMOOTH",
"62 184 OFFCURVE",
"72 132 OFFCURVE",
"92 80 CURVE",
"101 98 OFFCURVE",
"114 107 OFFCURVE",
"130 107 CURVE SMOOTH",
"137 107 OFFCURVE",
"144 106 OFFCURVE",
"151 103 CURVE",
"144 114 OFFCURVE",
"140 129 OFFCURVE",
"138 146 CURVE SMOOTH",
"137 155 OFFCURVE",
"136 164 OFFCURVE",
"136 173 CURVE SMOOTH",
"136 240 OFFCURVE",
"192 290 OFFCURVE",
"259 301 CURVE SMOOTH",
"276 304 OFFCURVE",
"303 305 OFFCURVE",
"340 305 CURVE",
"341 311 OFFCURVE",
"342 317 OFFCURVE",
"342 324 CURVE SMOOTH",
"342 368 OFFCURVE",
"322 390 OFFCURVE",
"281 390 CURVE SMOOTH",
"263 390 OFFCURVE",
"252 383 OFFCURVE",
"247 369 CURVE SMOOTH",
"235 336 OFFCURVE",
"223 322 OFFCURVE",
"196 322 CURVE SMOOTH",
"171 322 OFFCURVE",
"158 334 OFFCURVE",
"158 359 CURVE SMOOTH",
"158 375 OFFCURVE",
"166 390 OFFCURVE",
"182 404 CURVE",
"187 413 OFFCURVE",
"190 423 OFFCURVE",
"190 435 CURVE SMOOTH"
);
},
{
closed = 1;
nodes = (
"603 452 OFFCURVE",
"596 444 OFFCURVE",
"596 428 CURVE SMOOTH",
"596 418 OFFCURVE",
"599 407 OFFCURVE",
"605 395 CURVE",
"616 384 OFFCURVE",
"621 366 OFFCURVE",
"621 340 CURVE SMOOTH",
"621 316 OFFCURVE",
"612 297 OFFCURVE",
"593 284 CURVE",
"632 257 OFFCURVE",
"652 217 OFFCURVE",
"652 166 CURVE SMOOTH",
"652 139 OFFCURVE",
"647 118 OFFCURVE",
"637 101 CURVE",
"644 106 OFFCURVE",
"652 108 OFFCURVE",
"661 108 CURVE SMOOTH",
"680 108 OFFCURVE",
"695 100 OFFCURVE",
"704 84 CURVE",
"721 140 OFFCURVE",
"729 194 OFFCURVE",
"729 247 CURVE SMOOTH",
"729 368 OFFCURVE",
"675 452 OFFCURVE",
"618 452 CURVE SMOOTH"
);
},
{
closed = 1;
nodes = (
"686 65 OFFCURVE",
"673 78 OFFCURVE",
"661 78 CURVE SMOOTH",
"646 78 OFFCURVE",
"634 66 OFFCURVE",
"634 55 CURVE SMOOTH",
"634 39 OFFCURVE",
"648 28 OFFCURVE",
"661 28 CURVE SMOOTH",
"676 28 OFFCURVE",
"686 38 OFFCURVE",
"686 53 CURVE SMOOTH"
);
},
{
closed = 1;
nodes = (
"511 305 OFFCURVE",
"526 303 OFFCURVE",
"569 295 CURVE",
"584 308 OFFCURVE",
"591 323 OFFCURVE",
"591 342 CURVE SMOOTH",
"591 379 OFFCURVE",
"562 401 OFFCURVE",
"522 401 CURVE SMOOTH",
"499 401 OFFCURVE",
"478 393 OFFCURVE",
"463 381 CURVE SMOOTH",
"447 368 OFFCURVE",
"438 348 OFFCURVE",
"438 327 CURVE SMOOTH",
"438 320 OFFCURVE",
"439 312 OFFCURVE",
"441 304 CURVE",
"459 305 OFFCURVE",
"473 305 OFFCURVE",
"484 305 CURVE SMOOTH"
);
},
{
closed = 1;
nodes = (
"112 78 OFFCURVE",
"98 58 OFFCURVE",
"110 39 CURVE",
"115 32 OFFCURVE",
"122 28 OFFCURVE",
"131 28 CURVE SMOOTH",
"151 28 OFFCURVE",
"164 49 OFFCURVE",
"152 68 CURVE",
"147 75 OFFCURVE",
"140 78 OFFCURVE",
"131 78 CURVE SMOOTH"
);
}
);
width = 805;
},
{
layerId = "AA78C373-A874-4B43-A7A1-B39102DDD1E4";
name = Bold;
width = 600;
}
);
unicode = 0D8F;
},
{
export = 0;
glyphname = si_vocalicUu;
lastChange = "2015-06-22 15:06:21 +0000";
layers = (
{
layerId = "C18F3EFD-FA9C-4751-AD2F-5B966120D1A5";
name = Regular;
paths = (
{
closed = 1;
nodes = (
"826 212 OFFCURVE",
"783 258 OFFCURVE",
"783 321 CURVE SMOOTH",
"783 370 OFFCURVE",
"795 405 OFFCURVE",
"820 428 CURVE",
"855 428 LINE",
"826 410 OFFCURVE",
"812 375 OFFCURVE",
"812 322 CURVE SMOOTH",
"812 275 OFFCURVE",
"844 237 OFFCURVE",
"888 237 CURVE SMOOTH",
"916 237 OFFCURVE",
"936 261 OFFCURVE",
"936 290 CURVE SMOOTH",
"936 307 OFFCURVE",
"929 323 OFFCURVE",
"916 337 CURVE",
"915 341 OFFCURVE",
"915 345 OFFCURVE",
"915 349 CURVE SMOOTH",
"915 400 OFFCURVE",
"947 432 OFFCURVE",
"1020 432 CURVE SMOOTH",
"1073 432 OFFCURVE",
"1114 381 OFFCURVE",
"1131 321 CURVE SMOOTH",
"1139 290 OFFCURVE",
"1143 258 OFFCURVE",
"1143 225 CURVE SMOOTH",
"1143 148 OFFCURVE",
"1122 77 OFFCURVE",
"1074 32 CURVE SMOOTH",
"1050 9 OFFCURVE",
"1022 -2 OFFCURVE",
"989 -2 CURVE SMOOTH",
"926 -2 OFFCURVE",
"884 52 OFFCURVE",
"884 120 CURVE SMOOTH",
"884 132 OFFCURVE",
"885 144 OFFCURVE",
"888 157 CURVE",
"914 157 LINE",
"912 146 OFFCURVE",
"911 136 OFFCURVE",
"911 125 CURVE SMOOTH",
"911 89 OFFCURVE",
"922 59 OFFCURVE",
"946 40 CURVE SMOOTH",
"958 31 OFFCURVE",
"972 26 OFFCURVE",
"988 26 CURVE SMOOTH",
"1045 26 OFFCURVE",
"1073 91 OFFCURVE",
"1073 220 CURVE SMOOTH",
"1073 345 OFFCURVE",
"1049 408 OFFCURVE",
"1002 408 CURVE SMOOTH",
"966 408 OFFCURVE",
"943 385 OFFCURVE",
"943 349 CURVE SMOOTH",
"943 347 OFFCURVE",
"943 345 OFFCURVE",
"943 343 CURVE",
"967 330 OFFCURVE",
"979 312 OFFCURVE",
"979 288 CURVE SMOOTH",
"979 241 OFFCURVE",
"938 212 OFFCURVE",
"886 212 CURVE SMOOTH"
);
},
{
closed = 1;
nodes = (
"331 432 OFFCURVE",
"372 393 OFFCURVE",
"372 324 CURVE SMOOTH",
"372 310 OFFCURVE",
"370 295 OFFCURVE",
"366 280 CURVE",
"254 280 OFFCURVE",
"243 282 OFFCURVE",
"204 244 CURVE SMOOTH",
"184 225 OFFCURVE",
"174 203 OFFCURVE",
"174 178 CURVE SMOOTH",
"174 139 OFFCURVE",
"205 110 OFFCURVE",
"252 94 CURVE SMOOTH",
"299 78 OFFCURVE",
"349 71 OFFCURVE",
"401 71 CURVE SMOOTH",
"544 71 OFFCURVE",
"615 106 OFFCURVE",
"615 175 CURVE SMOOTH",
"615 247 OFFCURVE",
"564 283 OFFCURVE",
"463 283 CURVE SMOOTH",
"448 283 OFFCURVE",
"432 282 OFFCURVE",
"414 281 CURVE",
"410 295 OFFCURVE",
"408 309 OFFCURVE",
"408 322 CURVE SMOOTH",
"408 390 OFFCURVE",
"457 431 OFFCURVE",
"530 432 CURVE SMOOTH",
"549 432 OFFCURVE",
"563 429 OFFCURVE",
"573 422 CURVE",
"570 429 OFFCURVE",
"569 436 OFFCURVE",
"569 443 CURVE SMOOTH",
"569 467 OFFCURVE",
"585 479 OFFCURVE",
"616 479 CURVE SMOOTH",
"715 479 OFFCURVE",
"761 348 OFFCURVE",
"761 243 CURVE SMOOTH",
"761 196 OFFCURVE",
"753 141 OFFCURVE",
"737 90 CURVE SMOOTH",
"721 39 OFFCURVE",
"692 2 OFFCURVE",
"657 2 CURVE SMOOTH",
"644 2 OFFCURVE",
"631 7 OFFCURVE",
"623 16 CURVE",
"614 25 OFFCURVE",
"608 38 OFFCURVE",
"608 51 CURVE SMOOTH",
"608 54 OFFCURVE",
"608 58 OFFCURVE",
"609 61 CURVE",
"564 20 OFFCURVE",
"494 0 OFFCURVE",
"401 0 CURVE SMOOTH",
"302 0 OFFCURVE",
"230 20 OFFCURVE",
"184 61 CURVE",
"185 58 OFFCURVE",
"185 55 OFFCURVE",
"185 52 CURVE SMOOTH",
"185 25 OFFCURVE",
"160 2 OFFCURVE",
"135 2 CURVE SMOOTH",
"100 2 OFFCURVE",
"71 39 OFFCURVE",
"55 89 CURVE SMOOTH",
"39 139 OFFCURVE",
"31 193 OFFCURVE",
"31 240 CURVE SMOOTH",
"31 316 OFFCURVE",
"50 390 OFFCURVE",
"95 441 CURVE SMOOTH",
"118 466 OFFCURVE",
"144 479 OFFCURVE",
"175 479 CURVE SMOOTH",
"206 479 OFFCURVE",
"222 467 OFFCURVE",
"222 444 CURVE SMOOTH",
"222 439 OFFCURVE",
"221 433 OFFCURVE",
"219 426 CURVE",
"230 430 OFFCURVE",
"243 432 OFFCURVE",
"256 432 CURVE SMOOTH"
);
},
{
closed = 1;
nodes = (
"190 448 OFFCURVE",
"186 452 OFFCURVE",
"175 452 CURVE SMOOTH",
"132 452 OFFCURVE",
"95 406 OFFCURVE",
"78 354 CURVE SMOOTH",
"69 328 OFFCURVE",
"64 302 OFFCURVE",
"63 277 CURVE SMOOTH",
"62 262 OFFCURVE",
"62 249 OFFCURVE",
"62 236 CURVE SMOOTH",
"62 184 OFFCURVE",
"72 132 OFFCURVE",
"92 80 CURVE",
"101 98 OFFCURVE",
"114 107 OFFCURVE",
"130 107 CURVE SMOOTH",
"137 107 OFFCURVE",
"144 106 OFFCURVE",
"151 103 CURVE",
"141 120 OFFCURVE",
"136 144 OFFCURVE",
"136 173 CURVE SMOOTH",
"136 240 OFFCURVE",
"192 290 OFFCURVE",
"259 301 CURVE SMOOTH",
"276 304 OFFCURVE",
"303 305 OFFCURVE",
"340 305 CURVE",
"341 311 OFFCURVE",
"342 317 OFFCURVE",
"342 324 CURVE SMOOTH",
"342 368 OFFCURVE",
"322 390 OFFCURVE",
"281 390 CURVE SMOOTH",
"263 390 OFFCURVE",
"252 383 OFFCURVE",
"247 369 CURVE SMOOTH",
"235 336 OFFCURVE",
"223 322 OFFCURVE",
"196 322 CURVE SMOOTH",
"171 322 OFFCURVE",
"158 334 OFFCURVE",
"158 359 CURVE SMOOTH",
"158 375 OFFCURVE",
"166 390 OFFCURVE",
"182 404 CURVE",
"187 413 OFFCURVE",
"190 423 OFFCURVE",
"190 435 CURVE SMOOTH"
);
},
{
closed = 1;
nodes = (
"603 452 OFFCURVE",
"596 444 OFFCURVE",
"596 428 CURVE SMOOTH",
"596 418 OFFCURVE",
"599 407 OFFCURVE",
"605 395 CURVE",
"616 384 OFFCURVE",
"621 366 OFFCURVE",
"621 340 CURVE SMOOTH",
"621 316 OFFCURVE",
"612 297 OFFCURVE",
"593 284 CURVE",
"632 257 OFFCURVE",
"652 217 OFFCURVE",
"652 166 CURVE SMOOTH",
"652 139 OFFCURVE",
"647 118 OFFCURVE",
"637 101 CURVE",
"644 106 OFFCURVE",
"652 108 OFFCURVE",
"661 108 CURVE SMOOTH",
"680 108 OFFCURVE",
"695 100 OFFCURVE",
"704 84 CURVE",
"721 140 OFFCURVE",
"729 194 OFFCURVE",
"729 247 CURVE SMOOTH",
"729 368 OFFCURVE",
"675 452 OFFCURVE",
"618 452 CURVE SMOOTH"
);
},
{
closed = 1;
nodes = (
"686 65 OFFCURVE",
"673 78 OFFCURVE",
"661 78 CURVE SMOOTH",
"646 78 OFFCURVE",
"634 66 OFFCURVE",
"634 55 CURVE SMOOTH",
"634 39 OFFCURVE",
"648 28 OFFCURVE",
"661 28 CURVE SMOOTH",
"676 28 OFFCURVE",
"686 38 OFFCURVE",
"686 53 CURVE SMOOTH"
);
},
{
closed = 1;
nodes = (
"505 305 OFFCURVE",
"533 302 OFFCURVE",
"569 295 CURVE",
"584 308 OFFCURVE",
"591 323 OFFCURVE",
"591 342 CURVE SMOOTH",
"591 379 OFFCURVE",
"562 401 OFFCURVE",
"522 401 CURVE SMOOTH",
"499 401 OFFCURVE",
"478 393 OFFCURVE",
"463 381 CURVE SMOOTH",
"447 368 OFFCURVE",
"438 348 OFFCURVE",
"438 327 CURVE SMOOTH",
"438 320 OFFCURVE",
"439 312 OFFCURVE",
"441 304 CURVE",
"459 305 OFFCURVE",
"473 305 OFFCURVE",
"484 305 CURVE SMOOTH"
);
},
{
closed = 1;
nodes = (
"112 78 OFFCURVE",
"98 58 OFFCURVE",
"110 39 CURVE",
"115 32 OFFCURVE",
"122 28 OFFCURVE",
"131 28 CURVE SMOOTH",
"151 28 OFFCURVE",
"164 49 OFFCURVE",
"152 68 CURVE",
"147 75 OFFCURVE",
"140 78 OFFCURVE",
"131 78 CURVE SMOOTH"
);
}
);
width = 1175;
},
{
layerId = "AA78C373-A874-4B43-A7A1-B39102DDD1E4";
name = Bold;
width = 600;
}
);
unicode = 0D90;
},
{
export = 0;
glyphname = si_E;
lastChange = "2015-06-22 15:06:21 +0000";
layers = (
{
layerId = "C18F3EFD-FA9C-4751-AD2F-5B966120D1A5";
name = Regular;
paths = (
{
closed = 1;
nodes = (
"313 425 OFFCURVE",
"338 395 OFFCURVE",
"389 395 CURVE SMOOTH",
"422 395 OFFCURVE",
"442 409 OFFCURVE",
"451 438 CURVE",
"424 483 OFFCURVE",
"397 509 OFFCURVE",
"334 560 CURVE",
"320 544 OFFCURVE",
"313 519 OFFCURVE",
"313 484 CURVE SMOOTH"
);
},
{
closed = 1;
nodes = (
"178 0 OFFCURVE",
"102 30 OFFCURVE",
"66 90 CURVE SMOOTH",
"53 113 OFFCURVE",
"46 140 OFFCURVE",
"46 170 CURVE SMOOTH",
"46 230 OFFCURVE",
"85 276 OFFCURVE",
"124 289 CURVE",
"16 289 LINE",
"16 315 LINE",
"260 315 LINE",
"261 351 OFFCURVE",
"231 394 OFFCURVE",
"198 394 CURVE SMOOTH",
"177 394 OFFCURVE",
"160 383 OFFCURVE",
"148 362 CURVE SMOOTH",
"136 341 OFFCURVE",
"108 329 OFFCURVE",
"87 346 CURVE SMOOTH",
"80 352 OFFCURVE",
"77 360 OFFCURVE",
"77 369 CURVE SMOOTH",
"77 411 OFFCURVE",
"109 432 OFFCURVE",
"173 432 CURVE SMOOTH",
"174 432 OFFCURVE",
"175 432 OFFCURVE",
"176 432 CURVE SMOOTH",
"249 432 OFFCURVE",
"294 369 OFFCURVE",
"295 288 CURVE",
"204 288 LINE SMOOTH",
"148 288 OFFCURVE",
"83 242 OFFCURVE",
"83 193 CURVE SMOOTH",
"83 112 OFFCURVE",
"152 71 OFFCURVE",
"290 71 CURVE SMOOTH",
"423 71 OFFCURVE",
"513 143 OFFCURVE",
"513 267 CURVE SMOOTH",
"513 324 OFFCURVE",
"499 372 OFFCURVE",
"470 411 CURVE",
"463 398 OFFCURVE",
"456 387 OFFCURVE",
"445 379 CURVE",
"434 370 OFFCURVE",
"421 364 OFFCURVE",
"406 361 CURVE",
"398 360 OFFCURVE",
"390 359 OFFCURVE",
"381 359 CURVE SMOOTH",
"324 359 OFFCURVE",
"283 413 OFFCURVE",
"283 474 CURVE SMOOTH",
"283 528 OFFCURVE",
"297 569 OFFCURVE",
"325 597 CURVE",
"385 566 OFFCURVE",
"456 493 OFFCURVE",
"493 428 CURVE SMOOTH",
"528 369 OFFCURVE",
"545 309 OFFCURVE",
"545 246 CURVE SMOOTH",
"545 101 OFFCURVE",
"441 0 OFFCURVE",
"294 0 CURVE SMOOTH"
);
}
);
width = 595;
},
{
layerId = "AA78C373-A874-4B43-A7A1-B39102DDD1E4";
name = Bold;
width = 600;
}
);
unicode = 0D91;
},
{
export = 0;
glyphname = si_Ee;
lastChange = "2015-06-22 15:06:21 +0000";
layers = (
{
layerId = "C18F3EFD-FA9C-4751-AD2F-5B966120D1A5";
name = Regular;
paths = (
{
closed = 1;
nodes = (
"313 425 OFFCURVE",
"338 395 OFFCURVE",
"389 395 CURVE SMOOTH",
"422 395 OFFCURVE",
"442 409 OFFCURVE",
"451 438 CURVE",
"424 483 OFFCURVE",
"397 509 OFFCURVE",
"334 560 CURVE",
"320 544 OFFCURVE",
"313 519 OFFCURVE",
"313 484 CURVE SMOOTH"
);
},
{
closed = 1;
nodes = (
"178 0 OFFCURVE",
"102 30 OFFCURVE",
"66 90 CURVE SMOOTH",
"53 113 OFFCURVE",
"46 140 OFFCURVE",
"46 170 CURVE SMOOTH",
"46 230 OFFCURVE",
"85 276 OFFCURVE",
"124 289 CURVE",
"16 289 LINE",
"16 315 LINE",
"260 315 LINE",
"261 351 OFFCURVE",
"231 394 OFFCURVE",
"198 394 CURVE SMOOTH",
"177 394 OFFCURVE",
"160 383 OFFCURVE",
"148 362 CURVE SMOOTH",
"136 341 OFFCURVE",
"108 329 OFFCURVE",
"87 346 CURVE SMOOTH",
"80 352 OFFCURVE",
"77 360 OFFCURVE",
"77 369 CURVE SMOOTH",
"77 411 OFFCURVE",
"109 432 OFFCURVE",
"173 432 CURVE SMOOTH",
"174 432 OFFCURVE",
"175 432 OFFCURVE",
"176 432 CURVE SMOOTH",
"249 432 OFFCURVE",
"294 369 OFFCURVE",
"295 288 CURVE",
"204 288 LINE SMOOTH",
"148 288 OFFCURVE",
"83 242 OFFCURVE",
"83 193 CURVE SMOOTH",
"83 112 OFFCURVE",
"152 71 OFFCURVE",
"290 71 CURVE SMOOTH",
"423 71 OFFCURVE",
"513 143 OFFCURVE",
"513 267 CURVE SMOOTH",
"513 324 OFFCURVE",
"499 372 OFFCURVE",
"470 411 CURVE",
"463 398 OFFCURVE",
"456 387 OFFCURVE",
"445 379 CURVE",
"434 370 OFFCURVE",
"421 364 OFFCURVE",
"406 361 CURVE",
"398 360 OFFCURVE",
"390 359 OFFCURVE",
"381 359 CURVE SMOOTH",
"324 359 OFFCURVE",
"283 413 OFFCURVE",
"283 474 CURVE SMOOTH",
"283 528 OFFCURVE",
"297 569 OFFCURVE",
"325 597 CURVE",
"385 566 OFFCURVE",
"456 493 OFFCURVE",
"493 428 CURVE SMOOTH",
"528 369 OFFCURVE",
"545 309 OFFCURVE",
"545 246 CURVE SMOOTH",
"545 101 OFFCURVE",
"441 0 OFFCURVE",
"294 0 CURVE SMOOTH"
);
},
{
closed = 1;
nodes = (
"519 503 LINE",
"528 498 OFFCURVE",
"539 496 OFFCURVE",
"552 496 CURVE SMOOTH",
"587 496 OFFCURVE",
"605 511 OFFCURVE",
"605 542 CURVE SMOOTH",
"605 566 OFFCURVE",
"592 587 OFFCURVE",
"568 607 CURVE",
"555 616 OFFCURVE",
"539 627 OFFCURVE",
"519 638 CURVE"
);
},
{
closed = 1;
nodes = (
"642 501 OFFCURVE",
"607 468 OFFCURVE",
"564 468 CURVE SMOOTH",
"549 468 OFFCURVE",
"534 471 OFFCURVE",
"519 478 CURVE",
"519 331 LINE",
"492 377 LINE",
"492 681 LINE",
"503 672 OFFCURVE",
"524 660 OFFCURVE",
"553 647 CURVE SMOOTH",
"632 611 OFFCURVE",
"642 582 OFFCURVE",
"642 541 CURVE SMOOTH"
);
}
);
width = 653;
},
{
layerId = "AA78C373-A874-4B43-A7A1-B39102DDD1E4";
name = Bold;
width = 600;
}
);
unicode = 0D92;
},
{
export = 0;
glyphname = si_Ei;
lastChange = "2015-06-22 15:06:21 +0000";
layers = (
{
layerId = "C18F3EFD-FA9C-4751-AD2F-5B966120D1A5";
name = Regular;
paths = (
{
closed = 1;
nodes = (
"260 292 OFFCURVE",
"236 273 OFFCURVE",
"236 246 CURVE SMOOTH",
"236 217 OFFCURVE",
"261 198 OFFCURVE",
"293 198 CURVE SMOOTH",
"324 198 OFFCURVE",
"345 216 OFFCURVE",
"345 244 CURVE SMOOTH",
"345 272 OFFCURVE",
"321 292 OFFCURVE",
"289 292 CURVE SMOOTH"
);
},
{
closed = 1;
nodes = (
"133 0 OFFCURVE",
"33 84 OFFCURVE",
"33 212 CURVE SMOOTH",
"33 348 OFFCURVE",
"160 432 OFFCURVE",
"301 432 CURVE SMOOTH",
"450 432 OFFCURVE",
"572 338 OFFCURVE",
"584 206 CURVE",
"555 206 LINE",
"544 311 OFFCURVE",
"432 403 OFFCURVE",
"301 403 CURVE SMOOTH",
"246 403 OFFCURVE",
"192 388 OFFCURVE",
"149 361 CURVE SMOOTH",
"106 334 OFFCURVE",
"77 290 OFFCURVE",
"77 242 CURVE SMOOTH",
"77 138 OFFCURVE",
"161 71 OFFCURVE",
"270 71 CURVE SMOOTH",
"318 71 OFFCURVE",
"361 81 OFFCURVE",
"397 99 CURVE SMOOTH",
"432 117 OFFCURVE",
"455 149 OFFCURVE",
"455 189 CURVE SMOOTH",
"455 241 OFFCURVE",
"413 276 OFFCURVE",
"360 287 CURVE",
"373 273 OFFCURVE",
"379 258 OFFCURVE",
"379 242 CURVE SMOOTH",
"379 199 OFFCURVE",
"336 166 OFFCURVE",
"289 166 CURVE SMOOTH",
"244 166 OFFCURVE",
"203 201 OFFCURVE",
"203 244 CURVE SMOOTH",
"203 269 OFFCURVE",
"216 291 OFFCURVE",
"237 304 CURVE SMOOTH",
"257 316 OFFCURVE",
"284 322 OFFCURVE",
"311 322 CURVE SMOOTH",
"404 322 OFFCURVE",
"492 258 OFFCURVE",
"492 174 CURVE SMOOTH",
"492 170 OFFCURVE",
"492 166 OFFCURVE",
"491 162 CURVE",
"481 54 OFFCURVE",
"407 0 OFFCURVE",
"269 0 CURVE SMOOTH"
);
},
{
closed = 1;
nodes = (
"903 425 OFFCURVE",
"928 395 OFFCURVE",
"979 395 CURVE SMOOTH",
"1012 395 OFFCURVE",
"1032 409 OFFCURVE",
"1041 438 CURVE",
"1014 483 OFFCURVE",
"987 509 OFFCURVE",
"924 560 CURVE",
"910 544 OFFCURVE",
"903 519 OFFCURVE",
"903 484 CURVE SMOOTH"
);
},
{
closed = 1;
nodes = (
"768 0 OFFCURVE",
"692 30 OFFCURVE",
"656 90 CURVE SMOOTH",
"643 113 OFFCURVE",
"636 140 OFFCURVE",
"636 170 CURVE SMOOTH",
"636 230 OFFCURVE",
"675 276 OFFCURVE",
"714 289 CURVE",
"606 289 LINE",
"606 315 LINE",
"850 315 LINE",
"851 351 OFFCURVE",
"821 394 OFFCURVE",
"788 394 CURVE SMOOTH",
"767 394 OFFCURVE",
"750 383 OFFCURVE",
"738 362 CURVE SMOOTH",
"726 341 OFFCURVE",
"698 329 OFFCURVE",
"677 346 CURVE SMOOTH",
"670 352 OFFCURVE",
"667 360 OFFCURVE",
"667 369 CURVE SMOOTH",
"667 411 OFFCURVE",
"699 432 OFFCURVE",
"763 432 CURVE SMOOTH",
"764 432 OFFCURVE",
"765 432 OFFCURVE",
"766 432 CURVE SMOOTH",
"839 432 OFFCURVE",
"884 369 OFFCURVE",
"885 288 CURVE",
"794 288 LINE SMOOTH",
"738 288 OFFCURVE",
"673 242 OFFCURVE",
"673 193 CURVE SMOOTH",
"673 112 OFFCURVE",
"742 71 OFFCURVE",
"880 71 CURVE SMOOTH",
"1013 71 OFFCURVE",
"1103 143 OFFCURVE",
"1103 267 CURVE SMOOTH",
"1103 324 OFFCURVE",
"1089 372 OFFCURVE",
"1060 411 CURVE",
"1053 398 OFFCURVE",
"1046 387 OFFCURVE",
"1035 379 CURVE",
"1024 370 OFFCURVE",
"1011 364 OFFCURVE",
"996 361 CURVE",
"988 360 OFFCURVE",
"980 359 OFFCURVE",
"971 359 CURVE SMOOTH",
"914 359 OFFCURVE",
"873 413 OFFCURVE",
"873 474 CURVE SMOOTH",
"873 528 OFFCURVE",
"887 569 OFFCURVE",
"915 597 CURVE",
"975 566 OFFCURVE",
"1046 493 OFFCURVE",
"1083 428 CURVE SMOOTH",
"1118 369 OFFCURVE",
"1135 309 OFFCURVE",
"1135 246 CURVE SMOOTH",
"1135 101 OFFCURVE",
"1031 0 OFFCURVE",
"884 0 CURVE SMOOTH"
);
}
);
width = 1196;
},
{
layerId = "AA78C373-A874-4B43-A7A1-B39102DDD1E4";
name = Bold;
width = 600;
}
);
unicode = 0D93;
},
{
export = 0;
glyphname = si_O;
lastChange = "2015-06-22 15:06:21 +0000";
layers = (
{
layerId = "C18F3EFD-FA9C-4751-AD2F-5B966120D1A5";
name = Regular;
paths = (
{
closed = 1;
nodes = (
"294 408 OFFCURVE",
"274 389 OFFCURVE",
"274 365 CURVE SMOOTH",
"274 341 OFFCURVE",
"295 321 OFFCURVE",
"319 321 CURVE SMOOTH",
"344 321 OFFCURVE",
"363 340 OFFCURVE",
"363 365 CURVE SMOOTH",
"363 389 OFFCURVE",
"343 408 OFFCURVE",
"318 408 CURVE SMOOTH"
);
},
{
closed = 1;
nodes = (
"199 298 OFFCURVE",
"240 254 OFFCURVE",
"292 254 CURVE SMOOTH",
"340 254 OFFCURVE",
"372 273 OFFCURVE",
"389 311 CURVE SMOOTH",
"392 318 OFFCURVE",
"394 328 OFFCURVE",
"394 340 CURVE SMOOTH",
"394 347 OFFCURVE",
"393 356 OFFCURVE",
"392 365 CURVE",
"393 325 OFFCURVE",
"359 291 OFFCURVE",
"318 291 CURVE SMOOTH",
"275 291 OFFCURVE",
"243 320 OFFCURVE",
"243 360 CURVE SMOOTH",
"243 403 OFFCURVE",
"278 434 OFFCURVE",
"321 434 CURVE SMOOTH",
"352 434 OFFCURVE",
"377 425 OFFCURVE",
"394 409 CURVE SMOOTH",
"411 393 OFFCURVE",
"422 369 OFFCURVE",
"422 341 CURVE SMOOTH",
"422 308 OFFCURVE",
"408 277 OFFCURVE",
"386 257 CURVE SMOOTH",
"364 236 OFFCURVE",
"331 224 OFFCURVE",
"298 224 CURVE SMOOTH",
"233 224 OFFCURVE",
"191 258 OFFCURVE",
"172 326 CURVE",
"172 327 OFFCURVE",
"172 331 OFFCURVE",
"172 339 CURVE SMOOTH",
"172 346 OFFCURVE",
"172 357 OFFCURVE",
"172 372 CURVE SMOOTH",
"172 396 OFFCURVE",
"164 406 OFFCURVE",
"144 406 CURVE SMOOTH",
"96 406 OFFCURVE",
"61 321 OFFCURVE",
"61 254 CURVE SMOOTH",
"61 147 OFFCURVE",
"112 70 OFFCURVE",
"205 70 CURVE SMOOTH",
"232 70 OFFCURVE",
"254 77 OFFCURVE",
"270 89 CURVE SMOOTH",
"285 101 OFFCURVE",
"294 120 OFFCURVE",
"294 141 CURVE SMOOTH",
"294 167 LINE",
"316 167 LINE",
"316 140 LINE SMOOTH",
"316 97 OFFCURVE",
"359 71 OFFCURVE",
"410 71 CURVE SMOOTH",
"499 71 OFFCURVE",
"554 173 OFFCURVE",
"554 286 CURVE SMOOTH",
"554 423 OFFCURVE",
"463 555 OFFCURVE",
"303 555 CURVE SMOOTH",
"232 555 OFFCURVE",
"182 542 OFFCURVE",
"146 517 CURVE SMOOTH",
"127 504 OFFCURVE",
"109 487 OFFCURVE",
"92 466 CURVE",
"62 466 LINE",
"125 553 OFFCURVE",
"194 578 OFFCURVE",
"306 578 CURVE SMOOTH",
"397 578 OFFCURVE",
"467 546 OFFCURVE",
"520 477 CURVE SMOOTH",
"567 416 OFFCURVE",
"590 342 OFFCURVE",
"590 254 CURVE SMOOTH",
"590 126 OFFCURVE",
"539 0 OFFCURVE",
"422 0 CURVE SMOOTH",
"369 0 OFFCURVE",
"317 22 OFFCURVE",
"305 55 CURVE",
"285 18 OFFCURVE",
"249 0 OFFCURVE",
"196 0 CURVE SMOOTH",
"139 0 OFFCURVE",
"99 24 OFFCURVE",
"67 80 CURVE SMOOTH",
"42 122 OFFCURVE",
"30 169 OFFCURVE",
"30 222 CURVE SMOOTH",
"30 291 OFFCURVE",
"45 355 OFFCURVE",
"82 399 CURVE SMOOTH",
"101 421 OFFCURVE",
"123 432 OFFCURVE",
"150 432 CURVE SMOOTH",
"183 432 OFFCURVE",
"199 410 OFFCURVE",
"199 367 CURVE SMOOTH",
"199 366 OFFCURVE",
"199 364 OFFCURVE",
"199 363 CURVE SMOOTH",
"199 362 OFFCURVE",
"199 361 OFFCURVE",
"199 360 CURVE SMOOTH",
"199 359 OFFCURVE",
"199 357 OFFCURVE",
"199 356 CURVE SMOOTH",
"199 354 OFFCURVE",
"199 352 OFFCURVE",
"199 351 CURVE SMOOTH"
);
}
);
width = 636;
},
{
layerId = "AA78C373-A874-4B43-A7A1-B39102DDD1E4";
name = Bold;
width = 600;
}
);
unicode = 0D94;
},
{
export = 0;
glyphname = si_Oo;
lastChange = "2015-06-22 15:06:21 +0000";
layers = (
{
layerId = "C18F3EFD-FA9C-4751-AD2F-5B966120D1A5";
name = Regular;
paths = (
{
closed = 1;
nodes = (
"194 517 OFFCURVE",
"228 520 OFFCURVE",
"268 520 CURVE SMOOTH",
"351 520 OFFCURVE",
"413 509 OFFCURVE",
"452 486 CURVE SMOOTH",
"489 465 OFFCURVE",
"516 442 OFFCURVE",
"531 419 CURVE",
"490 559 OFFCURVE",
"372 591 OFFCURVE",
"277 591 CURVE SMOOTH",
"222 591 OFFCURVE",
"181 583 OFFCURVE",
"156 566 CURVE SMOOTH",
"145 559 OFFCURVE",
"139 551 OFFCURVE",
"139 544 CURVE SMOOTH",
"139 535 OFFCURVE",
"145 530 OFFCURVE",
"157 527 CURVE SMOOTH",
"166 525 OFFCURVE",
"169 519 OFFCURVE",
"165 510 CURVE"
);
},
{
closed = 1;
nodes = (
"316 140 LINE SMOOTH",
"316 97 OFFCURVE",
"359 71 OFFCURVE",
"410 71 CURVE SMOOTH",
"503 71 OFFCURVE",
"552 173 OFFCURVE",
"552 273 CURVE SMOOTH",
"552 365 OFFCURVE",
"488 437 OFFCURVE",
"444 458 CURVE SMOOTH",
"398 480 OFFCURVE",
"341 491 OFFCURVE",
"273 491 CURVE SMOOTH",
"193 491 OFFCURVE",
"138 482 OFFCURVE",
"42 442 CURVE",
"42 474 LINE",
"43 475 OFFCURVE",
"47 476 OFFCURVE",
"52 477 CURVE SMOOTH",
"57 478 OFFCURVE",
"61 480 OFFCURVE",
"66 482 CURVE",
"71 483 OFFCURVE",
"76 485 OFFCURVE",
"83 487 CURVE",
"95 491 OFFCURVE",
"105 495 OFFCURVE",
"114 500 CURVE",
"119 502 OFFCURVE",
"122 504 OFFCURVE",
"124 506 CURVE SMOOTH",
"126 508 OFFCURVE",
"127 510 OFFCURVE",
"126 512 CURVE",
"107 523 OFFCURVE",
"98 533 OFFCURVE",
"98 543 CURVE SMOOTH",
"98 552 OFFCURVE",
"103 562 OFFCURVE",
"112 573 CURVE SMOOTH",
"137 602 OFFCURVE",
"205 623 OFFCURVE",
"274 623 CURVE SMOOTH",
"394 623 OFFCURVE",
"481 576 OFFCURVE",
"528 497 CURVE SMOOTH",
"551 458 OFFCURVE",
"566 411 OFFCURVE",
"572 356 CURVE",
"583 331 OFFCURVE",
"589 296 OFFCURVE",
"589 250 CURVE SMOOTH",
"589 126 OFFCURVE",
"537 0 OFFCURVE",
"422 0 CURVE SMOOTH",
"369 0 OFFCURVE",
"317 22 OFFCURVE",
"305 55 CURVE",
"285 18 OFFCURVE",
"249 0 OFFCURVE",
"196 0 CURVE SMOOTH",
"139 0 OFFCURVE",
"99 24 OFFCURVE",
"67 80 CURVE SMOOTH",
"42 122 OFFCURVE",
"30 169 OFFCURVE",
"30 222 CURVE SMOOTH",
"30 291 OFFCURVE",
"45 355 OFFCURVE",
"82 399 CURVE SMOOTH",
"101 421 OFFCURVE",
"123 432 OFFCURVE",
"150 432 CURVE SMOOTH",
"183 432 OFFCURVE",
"199 410 OFFCURVE",
"199 367 CURVE SMOOTH",
"199 366 OFFCURVE",
"199 364 OFFCURVE",
"199 363 CURVE SMOOTH",
"199 362 OFFCURVE",
"199 361 OFFCURVE",
"199 360 CURVE SMOOTH",
"199 359 OFFCURVE",
"199 357 OFFCURVE",
"199 356 CURVE SMOOTH",
"199 354 OFFCURVE",
"199 352 OFFCURVE",
"199 351 CURVE SMOOTH",
"199 298 OFFCURVE",
"240 254 OFFCURVE",
"292 254 CURVE SMOOTH",
"340 254 OFFCURVE",
"372 273 OFFCURVE",
"389 311 CURVE SMOOTH",
"392 318 OFFCURVE",
"394 328 OFFCURVE",
"394 340 CURVE SMOOTH",
"394 347 OFFCURVE",
"393 356 OFFCURVE",
"392 365 CURVE",
"393 325 OFFCURVE",
"359 291 OFFCURVE",
"318 291 CURVE SMOOTH",
"275 291 OFFCURVE",
"243 320 OFFCURVE",
"243 360 CURVE SMOOTH",
"243 403 OFFCURVE",
"278 434 OFFCURVE",
"321 434 CURVE SMOOTH",
"352 434 OFFCURVE",
"377 425 OFFCURVE",
"394 409 CURVE SMOOTH",
"411 393 OFFCURVE",
"422 369 OFFCURVE",
"422 341 CURVE SMOOTH",
"422 296 OFFCURVE",
"399 258 OFFCURVE",
"360 239 CURVE SMOOTH",
"341 229 OFFCURVE",
"319 224 OFFCURVE",
"296 224 CURVE SMOOTH",
"227 224 OFFCURVE",
"170 277 OFFCURVE",
"170 344 CURVE SMOOTH",
"170 371 OFFCURVE",
"170 386 OFFCURVE",
"171 390 CURVE",
"167 402 OFFCURVE",
"159 406 OFFCURVE",
"144 406 CURVE SMOOTH",
"96 406 OFFCURVE",
"61 321 OFFCURVE",
"61 254 CURVE SMOOTH",
"61 147 OFFCURVE",
"112 70 OFFCURVE",
"205 70 CURVE SMOOTH",
"232 70 OFFCURVE",
"254 77 OFFCURVE",
"270 89 CURVE SMOOTH",
"285 101 OFFCURVE",
"294 120 OFFCURVE",
"294 141 CURVE SMOOTH",
"294 167 LINE",
"316 167 LINE"
);
},
{
closed = 1;
nodes = (
"294 408 OFFCURVE",
"274 389 OFFCURVE",
"274 365 CURVE SMOOTH",
"274 341 OFFCURVE",
"295 321 OFFCURVE",
"319 321 CURVE SMOOTH",
"344 321 OFFCURVE",
"363 340 OFFCURVE",
"363 365 CURVE SMOOTH",
"363 389 OFFCURVE",
"343 408 OFFCURVE",
"318 408 CURVE SMOOTH"
);
}
);
width = 636;
},
{
layerId = "AA78C373-A874-4B43-A7A1-B39102DDD1E4";
name = Bold;
width = 600;
}
);
unicode = 0D95;
},
{
export = 0;
glyphname = si_Ou;
lastChange = "2015-06-22 15:06:21 +0000";
layers = (
{
layerId = "C18F3EFD-FA9C-4751-AD2F-5B966120D1A5";
name = Regular;
paths = (
{
closed = 1;
nodes = (
"666 212 OFFCURVE",
"633 233 OFFCURVE",
"616 266 CURVE SMOOTH",
"607 283 OFFCURVE",
"603 301 OFFCURVE",
"603 321 CURVE SMOOTH",
"603 370 OFFCURVE",
"615 405 OFFCURVE",
"640 428 CURVE",
"675 428 LINE",
"646 410 OFFCURVE",
"632 375 OFFCURVE",
"632 322 CURVE SMOOTH",
"632 275 OFFCURVE",
"664 237 OFFCURVE",
"708 237 CURVE SMOOTH",
"736 237 OFFCURVE",
"756 261 OFFCURVE",
"756 290 CURVE SMOOTH",
"756 307 OFFCURVE",
"749 323 OFFCURVE",
"736 337 CURVE",
"735 341 OFFCURVE",
"735 345 OFFCURVE",
"735 349 CURVE SMOOTH",
"735 400 OFFCURVE",
"767 432 OFFCURVE",
"840 432 CURVE SMOOTH",
"859 432 OFFCURVE",
"876 427 OFFCURVE",
"890 417 CURVE SMOOTH",
"904 407 OFFCURVE",
"916 393 OFFCURVE",
"926 377 CURVE SMOOTH",
"936 360 OFFCURVE",
"944 341 OFFCURVE",
"950 321 CURVE SMOOTH",
"956 300 OFFCURVE",
"960 278 OFFCURVE",
"962 257 CURVE SMOOTH",
"963 246 OFFCURVE",
"963 236 OFFCURVE",
"963 225 CURVE SMOOTH",
"963 148 OFFCURVE",
"942 77 OFFCURVE",
"894 32 CURVE SMOOTH",
"870 9 OFFCURVE",
"842 -2 OFFCURVE",
"809 -2 CURVE SMOOTH",
"746 -2 OFFCURVE",
"704 52 OFFCURVE",
"704 120 CURVE SMOOTH",
"704 132 OFFCURVE",
"705 144 OFFCURVE",
"708 157 CURVE",
"734 157 LINE",
"732 146 OFFCURVE",
"731 136 OFFCURVE",
"731 125 CURVE SMOOTH",
"731 81 OFFCURVE",
"745 51 OFFCURVE",
"773 35 CURVE SMOOTH",
"784 29 OFFCURVE",
"796 26 OFFCURVE",
"808 26 CURVE SMOOTH",
"865 26 OFFCURVE",
"893 91 OFFCURVE",
"893 220 CURVE SMOOTH",
"893 249 OFFCURVE",
"892 275 OFFCURVE",
"889 299 CURVE SMOOTH",
"886 322 OFFCURVE",
"883 341 OFFCURVE",
"877 358 CURVE SMOOTH",
"871 374 OFFCURVE",
"863 386 OFFCURVE",
"855 395 CURVE",
"846 403 OFFCURVE",
"834 408 OFFCURVE",
"822 408 CURVE SMOOTH",
"786 408 OFFCURVE",
"763 385 OFFCURVE",
"763 349 CURVE SMOOTH",
"763 347 OFFCURVE",
"763 345 OFFCURVE",
"763 343 CURVE",
"787 330 OFFCURVE",
"799 312 OFFCURVE",
"799 288 CURVE SMOOTH",
"799 241 OFFCURVE",
"758 212 OFFCURVE",
"706 212 CURVE SMOOTH"
);
},
{
closed = 1;
nodes = (
"294 408 OFFCURVE",
"274 389 OFFCURVE",
"274 365 CURVE SMOOTH",
"274 341 OFFCURVE",
"295 321 OFFCURVE",
"319 321 CURVE SMOOTH",
"344 321 OFFCURVE",
"363 340 OFFCURVE",
"363 365 CURVE SMOOTH",
"363 389 OFFCURVE",
"343 408 OFFCURVE",
"318 408 CURVE SMOOTH"
);
},
{
closed = 1;
nodes = (
"199 298 OFFCURVE",
"240 254 OFFCURVE",
"292 254 CURVE SMOOTH",
"340 254 OFFCURVE",
"372 273 OFFCURVE",
"389 311 CURVE SMOOTH",
"392 318 OFFCURVE",
"394 328 OFFCURVE",
"394 340 CURVE SMOOTH",
"394 347 OFFCURVE",
"393 356 OFFCURVE",
"392 365 CURVE",
"393 325 OFFCURVE",
"359 291 OFFCURVE",
"318 291 CURVE SMOOTH",
"275 291 OFFCURVE",
"243 320 OFFCURVE",
"243 360 CURVE SMOOTH",
"243 403 OFFCURVE",
"278 434 OFFCURVE",
"321 434 CURVE SMOOTH",
"352 434 OFFCURVE",
"377 425 OFFCURVE",
"394 409 CURVE SMOOTH",
"411 393 OFFCURVE",
"422 369 OFFCURVE",
"422 341 CURVE SMOOTH",
"422 308 OFFCURVE",
"408 277 OFFCURVE",
"386 257 CURVE SMOOTH",
"364 236 OFFCURVE",
"331 224 OFFCURVE",
"298 224 CURVE SMOOTH",
"233 224 OFFCURVE",
"191 258 OFFCURVE",
"172 326 CURVE",
"172 327 OFFCURVE",
"172 331 OFFCURVE",
"172 339 CURVE SMOOTH",
"172 346 OFFCURVE",
"172 357 OFFCURVE",
"172 372 CURVE SMOOTH",
"172 396 OFFCURVE",
"164 406 OFFCURVE",
"144 406 CURVE SMOOTH",
"96 406 OFFCURVE",
"61 321 OFFCURVE",
"61 254 CURVE SMOOTH",
"61 147 OFFCURVE",
"112 70 OFFCURVE",
"205 70 CURVE SMOOTH",
"232 70 OFFCURVE",
"254 77 OFFCURVE",
"270 89 CURVE SMOOTH",
"285 101 OFFCURVE",
"294 120 OFFCURVE",
"294 141 CURVE SMOOTH",
"294 167 LINE",
"316 167 LINE",
"316 140 LINE SMOOTH",
"316 97 OFFCURVE",
"359 71 OFFCURVE",
"410 71 CURVE SMOOTH",
"499 71 OFFCURVE",
"554 173 OFFCURVE",
"554 286 CURVE SMOOTH",
"554 423 OFFCURVE",
"463 555 OFFCURVE",
"303 555 CURVE SMOOTH",
"232 555 OFFCURVE",
"182 542 OFFCURVE",
"146 517 CURVE SMOOTH",
"127 504 OFFCURVE",
"109 487 OFFCURVE",
"92 466 CURVE",
"62 466 LINE",
"125 553 OFFCURVE",
"194 578 OFFCURVE",
"306 578 CURVE SMOOTH",
"397 578 OFFCURVE",
"467 546 OFFCURVE",
"520 477 CURVE SMOOTH",
"567 416 OFFCURVE",
"590 342 OFFCURVE",
"590 254 CURVE SMOOTH",
"590 126 OFFCURVE",
"539 0 OFFCURVE",
"422 0 CURVE SMOOTH",
"369 0 OFFCURVE",
"317 22 OFFCURVE",
"305 55 CURVE",
"285 18 OFFCURVE",
"249 0 OFFCURVE",
"196 0 CURVE SMOOTH",
"139 0 OFFCURVE",
"99 24 OFFCURVE",
"67 80 CURVE SMOOTH",
"42 122 OFFCURVE",
"30 169 OFFCURVE",
"30 222 CURVE SMOOTH",
"30 291 OFFCURVE",
"45 355 OFFCURVE",
"82 399 CURVE SMOOTH",
"101 421 OFFCURVE",
"123 432 OFFCURVE",
"150 432 CURVE SMOOTH",
"183 432 OFFCURVE",
"199 410 OFFCURVE",
"199 367 CURVE SMOOTH",
"199 366 OFFCURVE",
"199 364 OFFCURVE",
"199 363 CURVE SMOOTH",
"199 362 OFFCURVE",
"199 361 OFFCURVE",
"199 360 CURVE SMOOTH",
"199 359 OFFCURVE",
"199 357 OFFCURVE",
"199 356 CURVE SMOOTH",
"199 354 OFFCURVE",
"199 352 OFFCURVE",
"199 351 CURVE SMOOTH"
);
}
);
width = 999;
},
{
layerId = "AA78C373-A874-4B43-A7A1-B39102DDD1E4";
name = Bold;
width = 600;
}
);
unicode = 0D96;
},
{
export = 0;
glyphname = si_Ka;
lastChange = "2015-06-22 15:06:21 +0000";
layers = (
{
layerId = "C18F3EFD-FA9C-4751-AD2F-5B966120D1A5";
name = Regular;
paths = (
{
closed = 1;
nodes = (
"475 236 OFFCURVE",
"406 285 OFFCURVE",
"301 285 CURVE SMOOTH",
"244 285 OFFCURVE",
"204 279 OFFCURVE",
"179 267 CURVE",
"135 230 OFFCURVE",
"86 152 OFFCURVE",
"70 95 CURVE",
"76 98 OFFCURVE",
"82 100 OFFCURVE",
"89 100 CURVE SMOOTH",
"94 100 OFFCURVE",
"107 96 OFFCURVE",
"126 88 CURVE SMOOTH",
"153 77 OFFCURVE",
"176 71 OFFCURVE",
"195 71 CURVE SMOOTH",
"247 71 OFFCURVE",
"279 102 OFFCURVE",
"279 158 CURVE SMOOTH",
"279 159 OFFCURVE",
"279 161 OFFCURVE",
"279 163 CURVE",
"309 163 LINE",
"309 161 OFFCURVE",
"309 159 OFFCURVE",
"309 157 CURVE SMOOTH",
"309 100 OFFCURVE",
"337 71 OFFCURVE",
"392 71 CURVE SMOOTH",
"447 71 OFFCURVE",
"475 117 OFFCURVE",
"475 156 CURVE SMOOTH"
);
},
{
closed = 1;
nodes = (
"194 376 OFFCURVE",
"181 392 OFFCURVE",
"154 392 CURVE SMOOTH",
"136 392 OFFCURVE",
"126 382 OFFCURVE",
"123 363 CURVE SMOOTH",
"118 332 OFFCURVE",
"110 312 OFFCURVE",
"101 303 CURVE",
"94 297 OFFCURVE",
"85 294 OFFCURVE",
"72 294 CURVE SMOOTH",
"42 294 OFFCURVE",
"27 308 OFFCURVE",
"27 336 CURVE SMOOTH",
"27 376 OFFCURVE",
"63 416 OFFCURVE",
"100 428 CURVE",
"111 431 OFFCURVE",
"123 433 OFFCURVE",
"136 433 CURVE SMOOTH",
"188 433 OFFCURVE",
"226 403 OFFCURVE",
"226 355 CURVE SMOOTH",
"226 351 OFFCURVE",
"226 347 OFFCURVE",
"225 343 CURVE",
"244 364 OFFCURVE",
"282 388 OFFCURVE",
"324 405 CURVE SMOOTH",
"366 421 OFFCURVE",
"417 433 OFFCURVE",
"457 433 CURVE SMOOTH",
"598 433 OFFCURVE",
"701 330 OFFCURVE",
"701 191 CURVE SMOOTH",
"701 87 OFFCURVE",
"641 -1 OFFCURVE",
"550 -1 CURVE SMOOTH",
"533 -1 OFFCURVE",
"517 3 OFFCURVE",
"504 12 CURVE",
"506 38 LINE",
"519 31 OFFCURVE",
"534 27 OFFCURVE",
"553 27 CURVE SMOOTH",
"561 27 OFFCURVE",
"568 28 OFFCURVE",
"574 31 CURVE",
"624 52 OFFCURVE",
"649 92 OFFCURVE",
"649 149 CURVE SMOOTH",
"649 214 OFFCURVE",
"617 276 OFFCURVE",
"570 315 CURVE SMOOTH",
"522 354 OFFCURVE",
"461 368 OFFCURVE",
"400 368 CURVE SMOOTH",
"327 368 OFFCURVE",
"266 346 OFFCURVE",
"219 303 CURVE",
"249 310 OFFCURVE",
"278 313 OFFCURVE",
"306 313 CURVE SMOOTH",
"430 313 OFFCURVE",
"515 242 OFFCURVE",
"515 125 CURVE SMOOTH",
"515 52 OFFCURVE",
"469 -1 OFFCURVE",
"397 -1 CURVE SMOOTH",
"351 -1 OFFCURVE",
"317 20 OFFCURVE",
"296 63 CURVE",
"259 -21 OFFCURVE",
"176 -14 OFFCURVE",
"124 37 CURVE SMOOTH",
"123 38 OFFCURVE",
"118 46 OFFCURVE",
"110 59 CURVE",
"104 68 OFFCURVE",
"97 73 OFFCURVE",
"90 73 CURVE SMOOTH",
"66 73 OFFCURVE",
"46 39 OFFCURVE",
"47 11 CURVE",
"21 22 LINE",
"28 86 OFFCURVE",
"70 179 OFFCURVE",
"109 232 CURVE SMOOTH",
"135 268 OFFCURVE",
"163 299 OFFCURVE",
"193 326 CURVE",
"194 333 OFFCURVE",
"194 339 OFFCURVE",
"194 345 CURVE SMOOTH"
);
}
);
width = 746;
},
{
layerId = "AA78C373-A874-4B43-A7A1-B39102DDD1E4";
name = Bold;
width = 600;
}
);
unicode = 0D9A;
},
{
export = 0;
glyphname = si_Kha;
lastChange = "2015-06-22 15:06:21 +0000";
layers = (
{
layerId = "C18F3EFD-FA9C-4751-AD2F-5B966120D1A5";
name = Regular;
paths = (
{
closed = 1;
nodes = (
"108 115 OFFCURVE",
"90 97 OFFCURVE",
"90 74 CURVE SMOOTH",
"90 50 OFFCURVE",
"112 29 OFFCURVE",
"136 29 CURVE SMOOTH",
"159 29 OFFCURVE",
"177 48 OFFCURVE",
"177 71 CURVE SMOOTH",
"177 98 OFFCURVE",
"159 115 OFFCURVE",
"132 115 CURVE SMOOTH"
);
},
{
closed = 1;
nodes = (
"132 320 OFFCURVE",
"63 256 OFFCURVE",
"63 156 CURVE SMOOTH",
"63 139 OFFCURVE",
"65 122 OFFCURVE",
"70 105 CURVE",
"81 132 OFFCURVE",
"102 145 OFFCURVE",
"135 145 CURVE SMOOTH",
"166 145 OFFCURVE",
"189 135 OFFCURVE",
"201 113 CURVE SMOOTH",
"207 102 OFFCURVE",
"210 88 OFFCURVE",
"210 72 CURVE SMOOTH",
"210 53 OFFCURVE",
"202 34 OFFCURVE",
"190 21 CURVE",
"177 8 OFFCURVE",
"160 -1 OFFCURVE",
"141 -1 CURVE SMOOTH",
"94 -1 OFFCURVE",
"59 41 OFFCURVE",
"44 95 CURVE SMOOTH",
"37 122 OFFCURVE",
"33 150 OFFCURVE",
"33 180 CURVE SMOOTH",
"33 257 OFFCURVE",
"52 306 OFFCURVE",
"100 346 CURVE SMOOTH",
"139 379 OFFCURVE",
"188 396 OFFCURVE",
"247 396 CURVE SMOOTH",
"338 396 OFFCURVE",
"412 341 OFFCURVE",
"412 258 CURVE SMOOTH",
"412 205 OFFCURVE",
"390 157 OFFCURVE",
"346 115 CURVE",
"349 116 OFFCURVE",
"352 116 OFFCURVE",
"355 116 CURVE SMOOTH",
"360 116 OFFCURVE",
"367 111 OFFCURVE",
"378 101 CURVE",
"381 97 OFFCURVE",
"390 89 OFFCURVE",
"407 77 CURVE",
"418 70 OFFCURVE",
"429 67 OFFCURVE",
"439 67 CURVE SMOOTH",
"519 67 OFFCURVE",
"548 239 OFFCURVE",
"548 312 CURVE SMOOTH",
"548 387 OFFCURVE",
"521 453 OFFCURVE",
"477 500 CURVE SMOOTH",
"432 547 OFFCURVE",
"366 576 OFFCURVE",
"294 576 CURVE SMOOTH",
"204 576 OFFCURVE",
"139 541 OFFCURVE",
"98 470 CURVE",
"64 470 LINE",
"111 557 OFFCURVE",
"187 601 OFFCURVE",
"298 601 CURVE SMOOTH",
"437 601 OFFCURVE",
"584 498 OFFCURVE",
"584 290 CURVE SMOOTH",
"584 201 OFFCURVE",
"562 110 OFFCURVE",
"508 47 CURVE SMOOTH",
"481 16 OFFCURVE",
"449 0 OFFCURVE",
"412 0 CURVE SMOOTH",
"379 0 OFFCURVE",
"367 9 OFFCURVE",
"343 40 CURVE SMOOTH",
"335 51 OFFCURVE",
"327 56 OFFCURVE",
"319 55 CURVE SMOOTH",
"311 54 OFFCURVE",
"285 32 OFFCURVE",
"240 -13 CURVE",
"204 -10 LINE",
"231 17 OFFCURVE",
"325 124 OFFCURVE",
"350 168 CURVE SMOOTH",
"362 190 OFFCURVE",
"368 210 OFFCURVE",
"368 228 CURVE SMOOTH",
"368 289 OFFCURVE",
"324 320 OFFCURVE",
"235 320 CURVE SMOOTH"
);
}
);
width = 630;
},
{
layerId = "AA78C373-A874-4B43-A7A1-B39102DDD1E4";
name = Bold;
width = 600;
}
);
unicode = 0D9B;
},
{
export = 0;
glyphname = si_Ga;
lastChange = "2015-06-22 15:06:21 +0000";
layers = (
{
layerId = "C18F3EFD-FA9C-4751-AD2F-5B966120D1A5";
name = Regular;
paths = (
{
closed = 1;
nodes = (
"352 27 OFFCURVE",
"266 -1 OFFCURVE",
"209 -2 CURVE SMOOTH",
"96 -2 OFFCURVE",
"34 96 OFFCURVE",
"34 204 CURVE SMOOTH",
"34 347 OFFCURVE",
"126 432 OFFCURVE",
"223 432 CURVE SMOOTH",
"232 432 OFFCURVE",
"242 431 OFFCURVE",
"251 430 CURVE",
"251 407 LINE",
"244 408 OFFCURVE",
"236 409 OFFCURVE",
"229 409 CURVE SMOOTH",
"182 409 OFFCURVE",
"140 388 OFFCURVE",
"112 355 CURVE SMOOTH",
"83 322 OFFCURVE",
"65 276 OFFCURVE",
"65 229 CURVE SMOOTH",
"65 190 OFFCURVE",
"75 156 OFFCURVE",
"95 127 CURVE SMOOTH",
"114 100 OFFCURVE",
"135 83 OFFCURVE",
"163 75 CURVE",
"177 70 OFFCURVE",
"193 68 OFFCURVE",
"210 68 CURVE SMOOTH",
"274 68 OFFCURVE",
"319 98 OFFCURVE",
"319 153 CURVE SMOOTH",
"319 186 OFFCURVE",
"298 217 OFFCURVE",
"267 217 CURVE SMOOTH",
"260 217 OFFCURVE",
"252 216 OFFCURVE",
"245 213 CURVE",
"242 202 OFFCURVE",
"241 195 OFFCURVE",
"241 192 CURVE",
"216 192 LINE",
"223 275 OFFCURVE",
"252 348 OFFCURVE",
"310 396 CURVE SMOOTH",
"339 420 OFFCURVE",
"372 432 OFFCURVE",
"409 432 CURVE SMOOTH",
"465 432 OFFCURVE",
"511 407 OFFCURVE",
"540 368 CURVE SMOOTH",
"569 328 OFFCURVE",
"587 275 OFFCURVE",
"587 216 CURVE SMOOTH",
"587 104 OFFCURVE",
"506 -1 OFFCURVE",
"369 -1 CURVE SMOOTH",
"359 -1 OFFCURVE",
"349 0 OFFCURVE",
"338 1 CURVE",
"338 27 LINE",
"346 26 OFFCURVE",
"354 26 OFFCURVE",
"362 26 CURVE SMOOTH",
"466 26 OFFCURVE",
"544 100 OFFCURVE",
"544 203 CURVE SMOOTH",
"544 292 OFFCURVE",
"480 372 OFFCURVE",
"393 372 CURVE SMOOTH",
"320 372 OFFCURVE",
"261 311 OFFCURVE",
"250 239 CURVE",
"257 240 OFFCURVE",
"263 241 OFFCURVE",
"270 241 CURVE SMOOTH",
"323 241 OFFCURVE",
"352 203 OFFCURVE",
"352 136 CURVE SMOOTH"
);
}
);
width = 636;
},
{
layerId = "AA78C373-A874-4B43-A7A1-B39102DDD1E4";
name = Bold;
width = 600;
}
);
unicode = 0D9C;
},
{
export = 0;
glyphname = si_Gha;
lastChange = "2015-06-22 15:06:21 +0000";
layers = (
{
layerId = "C18F3EFD-FA9C-4751-AD2F-5B966120D1A5";
name = Regular;
paths = (
{
closed = 1;
nodes = (
"540 374 OFFCURVE",
"509 392 OFFCURVE",
"469 392 CURVE SMOOTH",
"416 392 OFFCURVE",
"387 365 OFFCURVE",
"382 310 CURVE",
"398 315 OFFCURVE",
"419 317 OFFCURVE",
"445 317 CURVE SMOOTH",
"479 317 OFFCURVE",
"506 313 OFFCURVE",
"525 306 CURVE",
"535 317 OFFCURVE",
"540 328 OFFCURVE",
"540 341 CURVE SMOOTH"
);
},
{
closed = 1;
nodes = (
"579 326 OFFCURVE",
"566 301 OFFCURVE",
"550 297 CURVE",
"603 271 OFFCURVE",
"629 224 OFFCURVE",
"629 155 CURVE SMOOTH",
"629 70 OFFCURVE",
"553 0 OFFCURVE",
"464 0 CURVE SMOOTH",
"440 0 OFFCURVE",
"413 4 OFFCURVE",
"382 12 CURVE",
"379 17 OFFCURVE",
"378 23 OFFCURVE",
"378 30 CURVE SMOOTH",
"378 34 OFFCURVE",
"380 46 OFFCURVE",
"385 66 CURVE SMOOTH",
"390 85 OFFCURVE",
"392 98 OFFCURVE",
"392 103 CURVE SMOOTH",
"392 140 OFFCURVE",
"369 171 OFFCURVE",
"334 171 CURVE SMOOTH",
"295 171 OFFCURVE",
"271 142 OFFCURVE",
"271 101 CURVE SMOOTH",
"271 96 OFFCURVE",
"273 85 OFFCURVE",
"276 67 CURVE SMOOTH",
"279 49 OFFCURVE",
"281 38 OFFCURVE",
"281 33 CURVE SMOOTH",
"281 26 OFFCURVE",
"280 18 OFFCURVE",
"277 11 CURVE",
"244 3 OFFCURVE",
"218 -1 OFFCURVE",
"199 -1 CURVE SMOOTH",
"118 -1 OFFCURVE",
"51 70 OFFCURVE",
"51 154 CURVE SMOOTH",
"51 222 OFFCURVE",
"82 266 OFFCURVE",
"144 285 CURVE",
"5 285 LINE",
"5 308 LINE",
"282 308 LINE",
"278 359 OFFCURVE",
"254 385 OFFCURVE",
"211 385 CURVE SMOOTH",
"210 385 OFFCURVE",
"210 385 OFFCURVE",
"209 385 CURVE SMOOTH",
"193 385 OFFCURVE",
"180 375 OFFCURVE",
"170 354 CURVE",
"161 333 OFFCURVE",
"146 323 OFFCURVE",
"125 323 CURVE SMOOTH",
"101 323 OFFCURVE",
"89 335 OFFCURVE",
"89 362 CURVE SMOOTH",
"89 383 OFFCURVE",
"101 402 OFFCURVE",
"119 414 CURVE SMOOTH",
"137 426 OFFCURVE",
"159 433 OFFCURVE",
"183 433 CURVE SMOOTH",
"270 433 OFFCURVE",
"312 384 OFFCURVE",
"312 295 CURVE SMOOTH",
"312 291 OFFCURVE",
"312 287 OFFCURVE",
"312 282 CURVE",
"283 283 OFFCURVE",
"260 284 OFFCURVE",
"242 284 CURVE SMOOTH",
"155 284 OFFCURVE",
"89 247 OFFCURVE",
"89 175 CURVE SMOOTH",
"89 118 OFFCURVE",
"151 71 OFFCURVE",
"212 71 CURVE SMOOTH",
"232 71 OFFCURVE",
"244 73 OFFCURVE",
"247 76 CURVE",
"244 89 OFFCURVE",
"242 100 OFFCURVE",
"242 111 CURVE SMOOTH",
"242 146 OFFCURVE",
"260 174 OFFCURVE",
"287 189 CURVE SMOOTH",
"300 196 OFFCURVE",
"315 200 OFFCURVE",
"330 200 CURVE SMOOTH",
"383 200 OFFCURVE",
"420 161 OFFCURVE",
"420 108 CURVE SMOOTH",
"420 99 OFFCURVE",
"419 89 OFFCURVE",
"417 79 CURVE",
"422 74 OFFCURVE",
"440 71 OFFCURVE",
"471 71 CURVE SMOOTH",
"512 71 OFFCURVE",
"551 90 OFFCURVE",
"575 122 CURVE SMOOTH",
"587 138 OFFCURVE",
"593 156 OFFCURVE",
"593 176 CURVE SMOOTH",
"593 239 OFFCURVE",
"544 284 OFFCURVE",
"481 289 CURVE SMOOTH",
"470 290 OFFCURVE",
"459 290 OFFCURVE",
"448 290 CURVE SMOOTH",
"417 290 OFFCURVE",
"386 287 OFFCURVE",
"353 280 CURVE",
"353 284 OFFCURVE",
"353 288 OFFCURVE",
"353 292 CURVE SMOOTH",
"353 335 OFFCURVE",
"365 369 OFFCURVE",
"386 394 CURVE SMOOTH",
"407 418 OFFCURVE",
"441 432 OFFCURVE",
"481 432 CURVE SMOOTH",
"532 432 OFFCURVE",
"564 410 OFFCURVE",
"577 365 CURVE",
"578 360 OFFCURVE",
"579 354 OFFCURVE",
"579 349 CURVE SMOOTH"
);
}
);
width = 677;
},
{
layerId = "AA78C373-A874-4B43-A7A1-B39102DDD1E4";
name = Bold;
width = 600;
}
);
unicode = 0D9D;
},
{
export = 0;
glyphname = si_Nga;
lastChange = "2015-06-22 15:06:21 +0000";
layers = (
{
layerId = "C18F3EFD-FA9C-4751-AD2F-5B966120D1A5";
name = Regular;
paths = (
{
closed = 1;
nodes = (
"128 399 OFFCURVE",
"105 378 OFFCURVE",
"105 351 CURVE SMOOTH",
"105 323 OFFCURVE",
"126 301 OFFCURVE",
"154 301 CURVE SMOOTH",
"183 301 OFFCURVE",
"205 322 OFFCURVE",
"205 350 CURVE SMOOTH",
"205 377 OFFCURVE",
"183 399 OFFCURVE",
"156 399 CURVE SMOOTH"
);
},
{
closed = 1;
nodes = (
"326 144 LINE SMOOTH",
"326 100 OFFCURVE",
"374 70 OFFCURVE",
"427 70 CURVE SMOOTH",
"524 70 OFFCURVE",
"565 168 OFFCURVE",
"565 267 CURVE SMOOTH",
"565 434 OFFCURVE",
"448 558 OFFCURVE",
"305 558 CURVE SMOOTH",
"226 558 OFFCURVE",
"159 528 OFFCURVE",
"105 468 CURVE",
"73 468 LINE",
"132 544 OFFCURVE",
"211 582 OFFCURVE",
"308 582 CURVE SMOOTH",
"387 582 OFFCURVE",
"454 553 OFFCURVE",
"509 495 CURVE SMOOTH",
"521 482 OFFCURVE",
"533 470 OFFCURVE",
"542 456 CURVE SMOOTH",
"551 442 OFFCURVE",
"560 428 OFFCURVE",
"567 413 CURVE SMOOTH",
"574 398 OFFCURVE",
"580 382 OFFCURVE",
"585 366 CURVE",
"589 349 OFFCURVE",
"593 332 OFFCURVE",
"595 314 CURVE SMOOTH",
"597 296 OFFCURVE",
"598 275 OFFCURVE",
"598 255 CURVE SMOOTH",
"598 134 OFFCURVE",
"554 0 OFFCURVE",
"431 0 CURVE SMOOTH",
"374 0 OFFCURVE",
"348 16 OFFCURVE",
"313 59 CURVE",
"281 20 OFFCURVE",
"242 0 OFFCURVE",
"197 0 CURVE SMOOTH",
"145 0 OFFCURVE",
"97 28 OFFCURVE",
"70 73 CURVE SMOOTH",
"57 95 OFFCURVE",
"50 119 OFFCURVE",
"50 144 CURVE SMOOTH",
"50 215 OFFCURVE",
"101 263 OFFCURVE",
"174 263 CURVE SMOOTH",
"183 263 OFFCURVE",
"203 261 OFFCURVE",
"232 256 CURVE SMOOTH",
"261 251 OFFCURVE",
"278 249 OFFCURVE",
"285 249 CURVE SMOOTH",
"322 249 OFFCURVE",
"341 269 OFFCURVE",
"341 308 CURVE SMOOTH",
"341 367 OFFCURVE",
"281 407 OFFCURVE",
"213 407 CURVE",
"232 394 OFFCURVE",
"241 374 OFFCURVE",
"241 346 CURVE SMOOTH",
"241 326 OFFCURVE",
"231 306 OFFCURVE",
"216 294 CURVE",
"201 281 OFFCURVE",
"180 272 OFFCURVE",
"159 272 CURVE SMOOTH",
"108 272 OFFCURVE",
"70 303 OFFCURVE",
"70 350 CURVE SMOOTH",
"70 363 OFFCURVE",
"73 375 OFFCURVE",
"80 386 CURVE",
"98 417 OFFCURVE",
"136 432 OFFCURVE",
"195 432 CURVE SMOOTH",
"302 432 OFFCURVE",
"372 391 OFFCURVE",
"372 303 CURVE SMOOTH",
"372 263 OFFCURVE",
"358 239 OFFCURVE",
"330 228 CURVE SMOOTH",
"316 223 OFFCURVE",
"298 220 OFFCURVE",
"277 220 CURVE SMOOTH",
"255 220 OFFCURVE",
"235 223 OFFCURVE",
"217 228 CURVE SMOOTH",
"204 232 OFFCURVE",
"190 234 OFFCURVE",
"176 234 CURVE SMOOTH",
"135 234 OFFCURVE",
"109 220 OFFCURVE",
"96 193 CURVE SMOOTH",
"91 182 OFFCURVE",
"88 171 OFFCURVE",
"88 160 CURVE SMOOTH",
"88 109 OFFCURVE",
"139 71 OFFCURVE",
"198 71 CURVE SMOOTH",
"251 71 OFFCURVE",
"299 99 OFFCURVE",
"299 144 CURVE SMOOTH",
"299 177 LINE",
"326 177 LINE"
);
}
);
width = 647;
},
{
layerId = "AA78C373-A874-4B43-A7A1-B39102DDD1E4";
name = Bold;
width = 600;
}
);
unicode = 0D9E;
},
{
export = 0;
glyphname = si_Nnga;
lastChange = "2015-06-22 15:06:21 +0000";
layers = (
{
layerId = "C18F3EFD-FA9C-4751-AD2F-5B966120D1A5";
name = Regular;
paths = (
{
closed = 1;
nodes = (
"150 293 OFFCURVE",
"181 360 OFFCURVE",
"244 404 CURVE",
"237 405 OFFCURVE",
"230 405 OFFCURVE",
"223 405 CURVE SMOOTH",
"116 405 OFFCURVE",
"57 334 OFFCURVE",
"57 218 CURVE SMOOTH",
"57 137 OFFCURVE",
"83 74 OFFCURVE",
"135 29 CURVE",
"135 0 LINE",
"68 33 OFFCURVE",
"27 120 OFFCURVE",
"27 221 CURVE SMOOTH",
"27 337 OFFCURVE",
"87 413 OFFCURVE",
"180 429 CURVE SMOOTH",
"199 432 OFFCURVE",
"225 434 OFFCURVE",
"259 434 CURVE SMOOTH",
"289 434 OFFCURVE",
"325 433 OFFCURVE",
"367 430 CURVE",
"367 407 LINE",
"360 408 OFFCURVE",
"352 409 OFFCURVE",
"345 409 CURVE SMOOTH",
"308 409 OFFCURVE",
"274 396 OFFCURVE",
"247 373 CURVE SMOOTH",
"220 350 OFFCURVE",
"201 320 OFFCURVE",
"190 284 CURVE SMOOTH",
"185 266 OFFCURVE",
"182 247 OFFCURVE",
"182 228 CURVE SMOOTH",
"182 183 OFFCURVE",
"197 142 OFFCURVE",
"222 114 CURVE",
"246 85 OFFCURVE",
"283 68 OFFCURVE",
"326 68 CURVE SMOOTH",
"390 68 OFFCURVE",
"436 100 OFFCURVE",
"436 153 CURVE SMOOTH",
"436 186 OFFCURVE",
"414 217 OFFCURVE",
"383 217 CURVE SMOOTH",
"376 217 OFFCURVE",
"368 216 OFFCURVE",
"361 213 CURVE",
"358 202 OFFCURVE",
"357 195 OFFCURVE",
"357 192 CURVE",
"333 192 LINE",
"338 253 OFFCURVE",
"357 311 OFFCURVE",
"389 357 CURVE SMOOTH",
"420 403 OFFCURVE",
"470 432 OFFCURVE",
"526 432 CURVE SMOOTH",
"634 432 OFFCURVE",
"703 339 OFFCURVE",
"703 219 CURVE SMOOTH",
"703 104 OFFCURVE",
"622 -1 OFFCURVE",
"485 -1 CURVE SMOOTH",
"475 -1 OFFCURVE",
"465 0 OFFCURVE",
"454 1 CURVE",
"454 27 LINE",
"462 26 OFFCURVE",
"470 26 OFFCURVE",
"478 26 CURVE SMOOTH",
"582 26 OFFCURVE",
"660 99 OFFCURVE",
"660 202 CURVE SMOOTH",
"660 293 OFFCURVE",
"594 372 OFFCURVE",
"509 372 CURVE SMOOTH",
"436 372 OFFCURVE",
"377 310 OFFCURVE",
"366 239 CURVE",
"373 240 OFFCURVE",
"379 241 OFFCURVE",
"386 241 CURVE SMOOTH",
"439 241 OFFCURVE",
"468 203 OFFCURVE",
"468 136 CURVE SMOOTH",
"468 27 OFFCURVE",
"382 -1 OFFCURVE",
"325 -2 CURVE SMOOTH",
"212 -2 OFFCURVE",
"150 96 OFFCURVE",
"150 204 CURVE SMOOTH"
);
}
);
width = 749;
},
{
layerId = "AA78C373-A874-4B43-A7A1-B39102DDD1E4";
name = Bold;
width = 600;
}
);
unicode = 0D9F;
},
{
export = 0;
glyphname = si_Ca;
lastChange = "2015-06-22 15:06:21 +0000";
layers = (
{
layerId = "C18F3EFD-FA9C-4751-AD2F-5B966120D1A5";
name = Regular;
paths = (
{
closed = 1;
nodes = (
"272 433 OFFCURVE",
"315 382 OFFCURVE",
"315 281 CURVE SMOOTH",
"315 280 OFFCURVE",
"315 278 OFFCURVE",
"315 276 CURVE",
"252 276 LINE SMOOTH",
"192 276 OFFCURVE",
"104 239 OFFCURVE",
"104 182 CURVE SMOOTH",
"104 93 OFFCURVE",
"189 71 OFFCURVE",
"310 71 CURVE SMOOTH",
"458 71 OFFCURVE",
"542 172 OFFCURVE",
"542 300 CURVE SMOOTH",
"542 437 OFFCURVE",
"443 553 OFFCURVE",
"306 553 CURVE SMOOTH",
"213 553 OFFCURVE",
"163 529 OFFCURVE",
"116 470 CURVE",
"85 470 LINE",
"136 541 OFFCURVE",
"209 577 OFFCURVE",
"304 577 CURVE SMOOTH",
"464 577 OFFCURVE",
"575 442 OFFCURVE",
"575 275 CURVE SMOOTH",
"575 122 OFFCURVE",
"476 0 OFFCURVE",
"316 0 CURVE SMOOTH",
"273 0 OFFCURVE",
"238 2 OFFCURVE",
"212 6 CURVE SMOOTH",
"114 22 OFFCURVE",
"65 74 OFFCURVE",
"65 161 CURVE SMOOTH",
"65 217 OFFCURVE",
"91 251 OFFCURVE",
"148 274 CURVE",
"77 274 OFFCURVE",
"34 273 OFFCURVE",
"18 270 CURVE",
"18 302 LINE",
"285 302 LINE",
"283 333 OFFCURVE",
"272 357 OFFCURVE",
"252 376 CURVE SMOOTH",
"242 385 OFFCURVE",
"230 390 OFFCURVE",
"215 390 CURVE SMOOTH",
"186 390 OFFCURVE",
"169 376 OFFCURVE",
"162 347 CURVE SMOOTH",
"157 324 OFFCURVE",
"142 312 OFFCURVE",
"119 312 CURVE SMOOTH",
"92 312 OFFCURVE",
"78 324 OFFCURVE",
"78 349 CURVE SMOOTH",
"78 400 OFFCURVE",
"127 433 OFFCURVE",
"187 433 CURVE SMOOTH"
);
}
);
width = 623;
},
{
layerId = "AA78C373-A874-4B43-A7A1-B39102DDD1E4";
name = Bold;
width = 600;
}
);
unicode = 0DA0;
},
{
export = 0;
glyphname = si_Cha;
lastChange = "2015-06-22 15:06:21 +0000";
layers = (
{
layerId = "C18F3EFD-FA9C-4751-AD2F-5B966120D1A5";
name = Regular;
paths = (
{
closed = 1;
nodes = (
"357 214 OFFCURVE",
"377 187 OFFCURVE",
"416 187 CURVE SMOOTH",
"444 187 OFFCURVE",
"467 209 OFFCURVE",
"484 254 CURVE",
"469 271 OFFCURVE",
"437 280 OFFCURVE",
"414 283 CURVE",
"403 284 OFFCURVE",
"384 286 OFFCURVE",
"358 287 CURVE",
"357 280 OFFCURVE",
"357 274 OFFCURVE",
"357 267 CURVE SMOOTH"
);
},
{
closed = 1;
nodes = (
"503 376 OFFCURVE",
"470 408 OFFCURVE",
"418 408 CURVE SMOOTH",
"409 408 OFFCURVE",
"399 407 OFFCURVE",
"388 405 CURVE",
"371 378 OFFCURVE",
"362 346 OFFCURVE",
"359 309 CURVE",
"424 309 OFFCURVE",
"470 299 OFFCURVE",
"497 280 CURVE",
"501 299 OFFCURVE",
"503 314 OFFCURVE",
"503 325 CURVE SMOOTH"
);
},
{
closed = 1;
nodes = (
"315 307 OFFCURVE",
"318 307 OFFCURVE",
"323 308 CURVE",
"327 309 OFFCURVE",
"330 309 OFFCURVE",
"331 309 CURVE",
"340 357 OFFCURVE",
"350 390 OFFCURVE",
"359 407 CURVE",
"328 390 OFFCURVE",
"313 362 OFFCURVE",
"313 323 CURVE SMOOTH",
"313 318 OFFCURVE",
"313 312 OFFCURVE",
"314 307 CURVE"
);
},
{
closed = 1;
nodes = (
"221 432 OFFCURVE",
"266 391 OFFCURVE",
"266 323 CURVE SMOOTH",
"266 311 OFFCURVE",
"265 298 OFFCURVE",
"262 284 CURVE",
"247 286 OFFCURVE",
"232 287 OFFCURVE",
"217 287 CURVE SMOOTH",
"109 287 OFFCURVE",
"67 235 OFFCURVE",
"67 183 CURVE SMOOTH",
"67 159 OFFCURVE",
"78 139 OFFCURVE",
"95 124 CURVE SMOOTH",
"112 108 OFFCURVE",
"137 96 OFFCURVE",
"164 88 CURVE SMOOTH",
"191 80 OFFCURVE",
"224 75 OFFCURVE",
"253 73 CURVE SMOOTH",
"268 72 OFFCURVE",
"283 71 OFFCURVE",
"298 71 CURVE SMOOTH",
"444 71 OFFCURVE",
"517 109 OFFCURVE",
"517 185 CURVE SMOOTH",
"517 202 OFFCURVE",
"513 218 OFFCURVE",
"506 233 CURVE",
"479 172 OFFCURVE",
"447 159 OFFCURVE",
"411 159 CURVE SMOOTH",
"373 159 OFFCURVE",
"347 179 OFFCURVE",
"334 219 CURVE SMOOTH",
"329 234 OFFCURVE",
"326 248 OFFCURVE",
"326 262 CURVE SMOOTH",
"326 271 OFFCURVE",
"327 279 OFFCURVE",
"329 287 CURVE",
"292 284 LINE",
"288 296 OFFCURVE",
"286 309 OFFCURVE",
"286 322 CURVE SMOOTH",
"286 377 OFFCURVE",
"320 423 OFFCURVE",
"368 431 CURVE",
"396 498 OFFCURVE",
"500 619 OFFCURVE",
"544 619 CURVE SMOOTH",
"560 619 OFFCURVE",
"568 612 OFFCURVE",
"568 597 CURVE SMOOTH",
"568 590 OFFCURVE",
"565 584 OFFCURVE",
"558 580 CURVE SMOOTH",
"538 569 OFFCURVE",
"509 550 OFFCURVE",
"471 523 CURVE",
"433 490 OFFCURVE",
"409 459 OFFCURVE",
"399 432 CURVE",
"407 433 OFFCURVE",
"418 433 OFFCURVE",
"431 433 CURVE SMOOTH",
"477 432 OFFCURVE",
"509 409 OFFCURVE",
"526 364 CURVE",
"529 355 OFFCURVE",
"531 344 OFFCURVE",
"531 331 CURVE SMOOTH",
"531 301 OFFCURVE",
"526 278 OFFCURVE",
"516 262 CURVE",
"538 233 OFFCURVE",
"549 201 OFFCURVE",
"549 165 CURVE SMOOTH",
"549 90 OFFCURVE",
"493 37 OFFCURVE",
"421 16 CURVE SMOOTH",
"384 5 OFFCURVE",
"343 0 OFFCURVE",
"298 0 CURVE SMOOTH",
"175 0 OFFCURVE",
"94 31 OFFCURVE",
"55 92 CURVE SMOOTH",
"40 116 OFFCURVE",
"33 144 OFFCURVE",
"33 176 CURVE SMOOTH",
"33 245 OFFCURVE",
"93 297 OFFCURVE",
"166 306 CURVE",
"183 309 OFFCURVE",
"200 310 OFFCURVE",
"217 310 CURVE",
"238 309 LINE",
"239 316 OFFCURVE",
"239 322 OFFCURVE",
"239 327 CURVE SMOOTH",
"239 372 OFFCURVE",
"220 394 OFFCURVE",
"181 394 CURVE SMOOTH",
"162 394 OFFCURVE",
"150 386 OFFCURVE",
"144 369 CURVE SMOOTH",
"132 336 OFFCURVE",
"120 322 OFFCURVE",
"93 322 CURVE SMOOTH",
"68 322 OFFCURVE",
"56 335 OFFCURVE",
"56 360 CURVE SMOOTH",
"56 367 OFFCURVE",
"57 373 OFFCURVE",
"60 378 CURVE",
"78 414 OFFCURVE",
"109 432 OFFCURVE",
"152 432 CURVE SMOOTH"
);
}
);
width = 598;
},
{
layerId = "AA78C373-A874-4B43-A7A1-B39102DDD1E4";
name = Bold;
width = 600;
}
);
unicode = 0DA1;
},
{
export = 0;
glyphname = si_Ja;
lastChange = "2015-06-22 15:06:21 +0000";
layers = (
{
layerId = "C18F3EFD-FA9C-4751-AD2F-5B966120D1A5";
name = Regular;
paths = (
{
closed = 1;
nodes = (
"410 406 OFFCURVE",
"388 386 OFFCURVE",
"388 359 CURVE SMOOTH",
"388 331 OFFCURVE",
"412 308 OFFCURVE",
"440 308 CURVE SMOOTH",
"467 308 OFFCURVE",
"489 328 OFFCURVE",
"489 355 CURVE SMOOTH",
"489 383 OFFCURVE",
"466 406 OFFCURVE",
"437 406 CURVE SMOOTH"
);
},
{
closed = 1;
nodes = (
"368 319 OFFCURVE",
"359 337 OFFCURVE",
"359 363 CURVE SMOOTH",
"359 376 OFFCURVE",
"362 391 OFFCURVE",
"368 406 CURVE",
"338 389 OFFCURVE",
"323 365 OFFCURVE",
"323 334 CURVE SMOOTH",
"323 327 OFFCURVE",
"324 318 OFFCURVE",
"326 309 CURVE",
"341 310 OFFCURVE",
"364 312 OFFCURVE",
"385 309 CURVE"
);
},
{
closed = 1;
nodes = (
"222 432 OFFCURVE",
"266 393 OFFCURVE",
"266 326 CURVE SMOOTH",
"266 314 OFFCURVE",
"265 301 OFFCURVE",
"262 288 CURVE",
"251 289 OFFCURVE",
"240 290 OFFCURVE",
"229 290 CURVE SMOOTH",
"167 290 OFFCURVE",
"123 276 OFFCURVE",
"96 248 CURVE",
"79 229 OFFCURVE",
"70 209 OFFCURVE",
"70 186 CURVE SMOOTH",
"70 143 OFFCURVE",
"100 112 OFFCURVE",
"146 96 CURVE SMOOTH",
"192 79 OFFCURVE",
"242 71 OFFCURVE",
"298 71 CURVE SMOOTH",
"442 71 OFFCURVE",
"514 110 OFFCURVE",
"514 188 CURVE SMOOTH",
"514 217 OFFCURVE",
"501 242 OFFCURVE",
"481 257 CURVE SMOOTH",
"461 272 OFFCURVE",
"431 282 OFFCURVE",
"402 287 CURVE",
"387 289 OFFCURVE",
"372 290 OFFCURVE",
"355 290 CURVE SMOOTH",
"336 290 OFFCURVE",
"318 288 OFFCURVE",
"300 285 CURVE",
"295 301 OFFCURVE",
"293 316 OFFCURVE",
"293 331 CURVE SMOOTH",
"293 384 OFFCURVE",
"321 418 OFFCURVE",
"378 433 CURVE",
"403 504 OFFCURVE",
"492 619 OFFCURVE",
"544 619 CURVE SMOOTH",
"560 619 OFFCURVE",
"568 612 OFFCURVE",
"568 597 CURVE SMOOTH",
"568 590 OFFCURVE",
"565 584 OFFCURVE",
"558 580 CURVE SMOOTH",
"538 569 OFFCURVE",
"509 549 OFFCURVE",
"472 522 CURVE",
"439 493 OFFCURVE",
"417 464 OFFCURVE",
"406 433 CURVE",
"430 433 LINE SMOOTH",
"431 433 OFFCURVE",
"432 433 OFFCURVE",
"433 433 CURVE SMOOTH",
"480 433 OFFCURVE",
"520 400 OFFCURVE",
"520 357 CURVE SMOOTH",
"520 325 OFFCURVE",
"505 302 OFFCURVE",
"474 289 CURVE",
"495 281 OFFCURVE",
"514 263 OFFCURVE",
"527 242 CURVE SMOOTH",
"540 221 OFFCURVE",
"549 192 OFFCURVE",
"549 164 CURVE SMOOTH",
"549 119 OFFCURVE",
"529 80 OFFCURVE",
"498 56 CURVE SMOOTH",
"466 31 OFFCURVE",
"421 13 OFFCURVE",
"374 6 CURVE SMOOTH",
"350 2 OFFCURVE",
"325 0 OFFCURVE",
"298 0 CURVE SMOOTH",
"226 0 OFFCURVE",
"165 13 OFFCURVE",
"114 39 CURVE SMOOTH",
"63 65 OFFCURVE",
"33 110 OFFCURVE",
"33 171 CURVE SMOOTH",
"33 215 OFFCURVE",
"53 252 OFFCURVE",
"85 276 CURVE SMOOTH",
"117 299 OFFCURVE",
"160 312 OFFCURVE",
"208 312 CURVE SMOOTH",
"217 312 OFFCURVE",
"226 312 OFFCURVE",
"235 311 CURVE",
"236 318 OFFCURVE",
"237 324 OFFCURVE",
"237 331 CURVE SMOOTH",
"237 372 OFFCURVE",
"219 393 OFFCURVE",
"182 393 CURVE SMOOTH",
"162 393 OFFCURVE",
"149 385 OFFCURVE",
"143 369 CURVE SMOOTH",
"132 338 OFFCURVE",
"115 322 OFFCURVE",
"92 322 CURVE SMOOTH",
"68 322 OFFCURVE",
"56 335 OFFCURVE",
"56 360 CURVE SMOOTH",
"56 366 OFFCURVE",
"57 372 OFFCURVE",
"60 378 CURVE",
"75 414 OFFCURVE",
"107 432 OFFCURVE",
"154 432 CURVE SMOOTH"
);
}
);
width = 598;
},
{
layerId = "AA78C373-A874-4B43-A7A1-B39102DDD1E4";
name = Bold;
width = 600;
}
);
unicode = 0DA2;
},
{
export = 0;
glyphname = si_Jha;
lastChange = "2015-06-22 15:06:21 +0000";
layers = (
{
layerId = "C18F3EFD-FA9C-4751-AD2F-5B966120D1A5";
name = Regular;
paths = (
{
closed = 1;
nodes = (
"574 399 OFFCURVE",
"538 404 OFFCURVE",
"492 404 CURVE SMOOTH",
"384 404 OFFCURVE",
"293 370 OFFCURVE",
"219 303 CURVE",
"249 310 OFFCURVE",
"278 313 OFFCURVE",
"305 313 CURVE SMOOTH",
"382 313 OFFCURVE",
"441 287 OFFCURVE",
"482 236 CURVE",
"490 308 OFFCURVE",
"537 362 OFFCURVE",
"601 389 CURVE"
);
},
{
closed = 1;
nodes = (
"576 0 OFFCURVE",
"527 36 OFFCURVE",
"508 80 CURVE",
"492 26 OFFCURVE",
"455 -1 OFFCURVE",
"397 -1 CURVE SMOOTH",
"351 -1 OFFCURVE",
"317 20 OFFCURVE",
"296 63 CURVE",
"259 -21 OFFCURVE",
"176 -14 OFFCURVE",
"124 37 CURVE SMOOTH",
"123 38 OFFCURVE",
"118 46 OFFCURVE",
"110 59 CURVE",
"104 68 OFFCURVE",
"97 73 OFFCURVE",
"90 73 CURVE SMOOTH",
"66 73 OFFCURVE",
"46 39 OFFCURVE",
"47 11 CURVE",
"21 22 LINE",
"28 86 OFFCURVE",
"70 179 OFFCURVE",
"109 232 CURVE SMOOTH",
"135 268 OFFCURVE",
"163 299 OFFCURVE",
"193 326 CURVE",
"194 333 OFFCURVE",
"194 339 OFFCURVE",
"194 345 CURVE SMOOTH",
"194 376 OFFCURVE",
"181 392 OFFCURVE",
"154 392 CURVE SMOOTH",
"136 392 OFFCURVE",
"126 382 OFFCURVE",
"123 363 CURVE SMOOTH",
"118 332 OFFCURVE",
"110 312 OFFCURVE",
"101 303 CURVE",
"94 297 OFFCURVE",
"85 294 OFFCURVE",
"72 294 CURVE SMOOTH",
"42 294 OFFCURVE",
"27 308 OFFCURVE",
"27 336 CURVE SMOOTH",
"27 376 OFFCURVE",
"63 416 OFFCURVE",
"100 428 CURVE",
"111 431 OFFCURVE",
"123 433 OFFCURVE",
"136 433 CURVE SMOOTH",
"188 433 OFFCURVE",
"226 403 OFFCURVE",
"226 355 CURVE SMOOTH",
"226 351 OFFCURVE",
"226 347 OFFCURVE",
"225 343 CURVE",
"268 392 OFFCURVE",
"388 434 OFFCURVE",
"481 434 CURVE SMOOTH",
"554 434 OFFCURVE",
"615 422 OFFCURVE",
"666 398 CURVE",
"666 373 LINE",
"662 373 OFFCURVE",
"658 373 OFFCURVE",
"655 373 CURVE SMOOTH",
"586 373 OFFCURVE",
"512 305 OFFCURVE",
"512 218 CURVE SMOOTH",
"512 139 OFFCURVE",
"561 71 OFFCURVE",
"632 71 CURVE SMOOTH",
"687 71 OFFCURVE",
"733 99 OFFCURVE",
"733 143 CURVE SMOOTH",
"733 196 LINE",
"764 196 LINE",
"764 143 LINE SMOOTH",
"764 98 OFFCURVE",
"809 71 OFFCURVE",
"862 71 CURVE SMOOTH",
"923 71 OFFCURVE",
"968 123 OFFCURVE",
"987 188 CURVE SMOOTH",
"996 221 OFFCURVE",
"1001 256 OFFCURVE",
"1001 295 CURVE SMOOTH",
"1001 432 OFFCURVE",
"887 557 OFFCURVE",
"738 557 CURVE SMOOTH",
"658 557 OFFCURVE",
"592 527 OFFCURVE",
"539 468 CURVE",
"510 468 LINE",
"567 543 OFFCURVE",
"645 580 OFFCURVE",
"744 580 CURVE SMOOTH",
"823 580 OFFCURVE",
"890 551 OFFCURVE",
"945 494 CURVE SMOOTH",
"1005 431 OFFCURVE",
"1033 359 OFFCURVE",
"1033 258 CURVE SMOOTH",
"1033 134 OFFCURVE",
"990 0 OFFCURVE",
"867 0 CURVE SMOOTH",
"818 0 OFFCURVE",
"778 20 OFFCURVE",
"748 59 CURVE",
"717 20 OFFCURVE",
"678 0 OFFCURVE",
"631 0 CURVE SMOOTH"
);
},
{
closed = 1;
nodes = (
"475 236 OFFCURVE",
"406 285 OFFCURVE",
"301 285 CURVE SMOOTH",
"244 285 OFFCURVE",
"204 279 OFFCURVE",
"179 267 CURVE",
"135 230 OFFCURVE",
"86 152 OFFCURVE",
"70 95 CURVE",
"76 98 OFFCURVE",
"82 100 OFFCURVE",
"89 100 CURVE SMOOTH",
"94 100 OFFCURVE",
"107 96 OFFCURVE",
"126 88 CURVE SMOOTH",
"153 77 OFFCURVE",
"176 71 OFFCURVE",
"195 71 CURVE SMOOTH",
"247 71 OFFCURVE",
"279 102 OFFCURVE",
"279 158 CURVE SMOOTH",
"279 159 OFFCURVE",
"279 161 OFFCURVE",
"279 163 CURVE",
"309 163 LINE",
"309 161 OFFCURVE",
"309 159 OFFCURVE",
"309 157 CURVE SMOOTH",
"309 100 OFFCURVE",
"337 71 OFFCURVE",
"392 71 CURVE SMOOTH",
"447 71 OFFCURVE",
"475 117 OFFCURVE",
"475 156 CURVE SMOOTH"
);
}
);
width = 1079;
},
{
layerId = "AA78C373-A874-4B43-A7A1-B39102DDD1E4";
name = Bold;
width = 600;
}
);
unicode = 0DA3;
},
{
export = 0;
glyphname = si_Nya;
lastChange = "2015-06-22 15:06:21 +0000";
layers = (
{
layerId = "C18F3EFD-FA9C-4751-AD2F-5B966120D1A5";
name = Regular;
paths = (
{
closed = 1;
nodes = (
"722 -1 OFFCURVE",
"654 32 OFFCURVE",
"629 71 CURVE",
"610 23 OFFCURVE",
"575 -1 OFFCURVE",
"522 -1 CURVE SMOOTH",
"476 -1 OFFCURVE",
"442 20 OFFCURVE",
"420 63 CURVE",
"385 -21 OFFCURVE",
"300 -14 OFFCURVE",
"249 37 CURVE SMOOTH",
"248 38 OFFCURVE",
"243 45 OFFCURVE",
"234 59 CURVE SMOOTH",
"228 68 OFFCURVE",
"221 73 OFFCURVE",
"213 73 CURVE SMOOTH",
"190 73 OFFCURVE",
"176 44 OFFCURVE",
"171 13 CURVE",
"146 21 LINE",
"156 92 OFFCURVE",
"185 162 OFFCURVE",
"233 230 CURVE SMOOTH",
"251 255 OFFCURVE",
"280 288 OFFCURVE",
"319 327 CURVE",
"319 329 OFFCURVE",
"319 331 OFFCURVE",
"319 334 CURVE SMOOTH",
"319 373 OFFCURVE",
"307 392 OFFCURVE",
"280 392 CURVE SMOOTH",
"262 392 OFFCURVE",
"251 382 OFFCURVE",
"248 363 CURVE SMOOTH",
"243 332 OFFCURVE",
"235 312 OFFCURVE",
"225 303 CURVE SMOOTH",
"218 297 OFFCURVE",
"208 294 OFFCURVE",
"195 294 CURVE SMOOTH",
"166 294 OFFCURVE",
"151 308 OFFCURVE",
"151 335 CURVE SMOOTH",
"151 360 OFFCURVE",
"162 383 OFFCURVE",
"185 404 CURVE",
"120 396 OFFCURVE",
"57 333 OFFCURVE",
"57 218 CURVE SMOOTH",
"57 137 OFFCURVE",
"83 74 OFFCURVE",
"135 29 CURVE",
"135 0 LINE",
"68 33 OFFCURVE",
"27 120 OFFCURVE",
"27 221 CURVE SMOOTH",
"27 298 OFFCURVE",
"52 357 OFFCURVE",
"102 398 CURVE SMOOTH",
"123 415 OFFCURVE",
"141 424 OFFCURVE",
"163 429 CURVE",
"174 431 OFFCURVE",
"186 432 OFFCURVE",
"200 432 CURVE SMOOTH",
"210 432 OFFCURVE",
"221 431 OFFCURVE",
"232 430 CURVE",
"241 432 OFFCURVE",
"250 433 OFFCURVE",
"260 433 CURVE SMOOTH",
"316 433 OFFCURVE",
"351 403 OFFCURVE",
"351 351 CURVE SMOOTH",
"351 349 OFFCURVE",
"351 347 OFFCURVE",
"351 345 CURVE",
"383 380 OFFCURVE",
"458 412 OFFCURVE",
"526 425 CURVE SMOOTH",
"552 430 OFFCURVE",
"579 433 OFFCURVE",
"606 433 CURVE SMOOTH",
"654 433 OFFCURVE",
"702 425 OFFCURVE",
"733 412 CURVE",
"750 426 OFFCURVE",
"773 433 OFFCURVE",
"803 433 CURVE SMOOTH",
"888 433 OFFCURVE",
"931 390 OFFCURVE",
"951 294 CURVE",
"820 294 LINE SMOOTH",
"726 294 OFFCURVE",
"679 256 OFFCURVE",
"679 179 CURVE SMOOTH",
"679 68 OFFCURVE",
"766 27 OFFCURVE",
"833 27 CURVE SMOOTH",
"876 27 OFFCURVE",
"917 49 OFFCURVE",
"955 92 CURVE",
"978 75 LINE",
"970 66 OFFCURVE",
"957 51 OFFCURVE",
"939 32 CURVE",
"902 -16 OFFCURVE",
"878 -61 OFFCURVE",
"878 -104 CURVE SMOOTH",
"878 -153 OFFCURVE",
"901 -191 OFFCURVE",
"980 -210 CURVE",
"980 -238 LINE",
"952 -243 OFFCURVE",
"896 -243 OFFCURVE",
"877 -234 CURVE",
"839 -214 OFFCURVE",
"820 -183 OFFCURVE",
"820 -142 CURVE SMOOTH",
"820 -134 OFFCURVE",
"821 -126 OFFCURVE",
"822 -117 CURVE SMOOTH",
"826 -89 OFFCURVE",
"849 -47 OFFCURVE",
"890 10 CURVE",
"855 3 OFFCURVE",
"823 -1 OFFCURVE",
"795 -1 CURVE SMOOTH"
);
},
{
closed = 1;
nodes = (
"701 397 OFFCURVE",
"645 406 OFFCURVE",
"617 406 CURVE SMOOTH",
"549 406 OFFCURVE",
"468 382 OFFCURVE",
"408 349 CURVE SMOOTH",
"377 332 OFFCURVE",
"356 316 OFFCURVE",
"345 303 CURVE",
"374 310 OFFCURVE",
"403 313 OFFCURVE",
"431 313 CURVE SMOOTH",
"519 313 OFFCURVE",
"579 286 OFFCURVE",
"611 231 CURVE",
"631 282 OFFCURVE",
"671 317 OFFCURVE",
"819 317 CURVE SMOOTH",
"914 317 LINE",
"905 362 OFFCURVE",
"876 397 OFFCURVE",
"832 397 CURVE SMOOTH",
"808 397 OFFCURVE",
"799 390 OFFCURVE",
"784 366 CURVE",
"773 346 OFFCURVE",
"758 336 OFFCURVE",
"739 336 CURVE SMOOTH",
"720 336 OFFCURVE",
"711 347 OFFCURVE",
"711 368 CURVE SMOOTH",
"711 371 OFFCURVE",
"712 374 OFFCURVE",
"714 379 CURVE",
"715 384 OFFCURVE",
"716 387 OFFCURVE",
"716 389 CURVE"
);
},
{
closed = 1;
nodes = (
"600 235 OFFCURVE",
"530 285 OFFCURVE",
"426 285 CURVE SMOOTH",
"375 285 OFFCURVE",
"333 279 OFFCURVE",
"300 266 CURVE",
"269 238 OFFCURVE",
"230 184 OFFCURVE",
"195 95 CURVE",
"200 99 OFFCURVE",
"206 101 OFFCURVE",
"213 101 CURVE SMOOTH",
"219 101 OFFCURVE",
"232 97 OFFCURVE",
"252 88 CURVE",
"279 77 OFFCURVE",
"301 71 OFFCURVE",
"319 71 CURVE SMOOTH",
"360 71 OFFCURVE",
"399 98 OFFCURVE",
"404 135 CURVE",
"404 163 LINE",
"434 163 LINE",
"434 161 OFFCURVE",
"434 159 OFFCURVE",
"434 158 CURVE SMOOTH",
"434 102 OFFCURVE",
"460 70 OFFCURVE",
"512 70 CURVE SMOOTH",
"542 70 OFFCURVE",
"565 81 OFFCURVE",
"582 102 CURVE",
"594 119 OFFCURVE",
"600 137 OFFCURVE",
"600 156 CURVE SMOOTH"
);
}
);
width = 1024;
},
{
layerId = "AA78C373-A874-4B43-A7A1-B39102DDD1E4";
name = Bold;
width = 600;
}
);
unicode = 0DA4;
},
{
export = 0;
glyphname = si_Jnya;
lastChange = "2015-06-22 15:06:21 +0000";
layers = (
{
layerId = "C18F3EFD-FA9C-4751-AD2F-5B966120D1A5";
name = Regular;
paths = (
{
closed = 1;
nodes = (
"535 -1 OFFCURVE",
"467 33 OFFCURVE",
"442 80 CURVE",
"420 25 OFFCURVE",
"377 -2 OFFCURVE",
"312 -2 CURVE SMOOTH",
"195 -2 OFFCURVE",
"134 96 OFFCURVE",
"134 204 CURVE SMOOTH",
"134 298 OFFCURVE",
"168 365 OFFCURVE",
"235 406 CURVE",
"229 407 OFFCURVE",
"223 407 OFFCURVE",
"217 407 CURVE SMOOTH",
"121 407 OFFCURVE",
"57 333 OFFCURVE",
"57 218 CURVE SMOOTH",
"57 137 OFFCURVE",
"83 74 OFFCURVE",
"135 29 CURVE",
"135 0 LINE",
"68 33 OFFCURVE",
"27 120 OFFCURVE",
"27 221 CURVE SMOOTH",
"27 330 OFFCURVE",
"87 418 OFFCURVE",
"178 429 CURVE SMOOTH",
"199 432 OFFCURVE",
"225 433 OFFCURVE",
"256 433 CURVE SMOOTH",
"283 433 OFFCURVE",
"315 432 OFFCURVE",
"351 430 CURVE",
"351 407 LINE",
"344 408 OFFCURVE",
"336 409 OFFCURVE",
"329 409 CURVE SMOOTH",
"298 409 OFFCURVE",
"268 400 OFFCURVE",
"245 384 CURVE SMOOTH",
"221 368 OFFCURVE",
"201 345 OFFCURVE",
"187 318 CURVE SMOOTH",
"173 291 OFFCURVE",
"165 260 OFFCURVE",
"165 229 CURVE SMOOTH",
"165 152 OFFCURVE",
"209 68 OFFCURVE",
"310 68 CURVE SMOOTH",
"374 68 OFFCURVE",
"419 98 OFFCURVE",
"419 153 CURVE SMOOTH",
"419 186 OFFCURVE",
"398 217 OFFCURVE",
"367 217 CURVE SMOOTH",
"360 217 OFFCURVE",
"352 216 OFFCURVE",
"345 213 CURVE",
"342 202 OFFCURVE",
"341 195 OFFCURVE",
"341 192 CURVE",
"316 192 LINE",
"319 231 OFFCURVE",
"328 270 OFFCURVE",
"344 306 CURVE SMOOTH",
"360 342 OFFCURVE",
"382 374 OFFCURVE",
"410 396 CURVE SMOOTH",
"437 418 OFFCURVE",
"473 432 OFFCURVE",
"510 432 CURVE SMOOTH",
"521 432 OFFCURVE",
"532 430 OFFCURVE",
"542 429 CURVE SMOOTH",
"552 428 OFFCURVE",
"560 425 OFFCURVE",
"567 422 CURVE",
"582 429 OFFCURVE",
"600 433 OFFCURVE",
"623 433 CURVE SMOOTH",
"707 433 OFFCURVE",
"750 390 OFFCURVE",
"769 294 CURVE",
"639 294 LINE SMOOTH",
"594 294 OFFCURVE",
"560 286 OFFCURVE",
"536 268 CURVE SMOOTH",
"511 250 OFFCURVE",
"498 220 OFFCURVE",
"498 179 CURVE SMOOTH",
"498 91 OFFCURVE",
"563 25 OFFCURVE",
"650 25 CURVE SMOOTH",
"693 25 OFFCURVE",
"734 47 OFFCURVE",
"773 92 CURVE",
"797 75 LINE",
"760 38 OFFCURVE",
"731 0 OFFCURVE",
"712 -39 CURVE SMOOTH",
"701 -60 OFFCURVE",
"696 -82 OFFCURVE",
"696 -103 CURVE SMOOTH",
"696 -154 OFFCURVE",
"719 -191 OFFCURVE",
"799 -210 CURVE",
"799 -238 LINE",
"770 -243 OFFCURVE",
"713 -243 OFFCURVE",
"696 -234 CURVE SMOOTH",
"658 -214 OFFCURVE",
"639 -184 OFFCURVE",
"639 -143 CURVE SMOOTH",
"639 -104 OFFCURVE",
"662 -53 OFFCURVE",
"709 10 CURVE",
"674 3 OFFCURVE",
"642 -1 OFFCURVE",
"614 -1 CURVE SMOOTH"
);
},
{
closed = 1;
nodes = (
"529 376 OFFCURVE",
"533 386 OFFCURVE",
"540 399 CURVE",
"530 402 OFFCURVE",
"520 403 OFFCURVE",
"510 403 CURVE SMOOTH",
"431 403 OFFCURVE",
"371 327 OFFCURVE",
"350 239 CURVE",
"357 240 OFFCURVE",
"363 241 OFFCURVE",
"369 241 CURVE SMOOTH",
"392 241 OFFCURVE",
"410 233 OFFCURVE",
"425 218 CURVE",
"444 282 OFFCURVE",
"490 317 OFFCURVE",
"637 317 CURVE SMOOTH",
"732 317 LINE",
"721 365 OFFCURVE",
"695 397 OFFCURVE",
"651 397 CURVE SMOOTH",
"626 397 OFFCURVE",
"617 390 OFFCURVE",
"604 366 CURVE SMOOTH",
"593 346 OFFCURVE",
"577 336 OFFCURVE",
"557 336 CURVE SMOOTH",
"538 336 OFFCURVE",
"529 347 OFFCURVE",
"529 368 CURVE SMOOTH"
);
}
);
width = 842;
},
{
layerId = "AA78C373-A874-4B43-A7A1-B39102DDD1E4";
name = Bold;
width = 600;
}
);
unicode = 0DA5;
},
{
export = 0;
glyphname = si_Ndja;
lastChange = "2015-06-22 15:06:21 +0000";
layers = (
{
layerId = "C18F3EFD-FA9C-4751-AD2F-5B966120D1A5";
name = Regular;
paths = (
{
closed = 1;
nodes = (
"448 406 OFFCURVE",
"426 386 OFFCURVE",
"426 359 CURVE SMOOTH",
"426 331 OFFCURVE",
"450 308 OFFCURVE",
"478 308 CURVE SMOOTH",
"505 308 OFFCURVE",
"527 328 OFFCURVE",
"527 355 CURVE SMOOTH",
"527 383 OFFCURVE",
"504 406 OFFCURVE",
"475 406 CURVE SMOOTH"
);
},
{
closed = 1;
nodes = (
"406 319 OFFCURVE",
"397 337 OFFCURVE",
"397 363 CURVE SMOOTH",
"397 376 OFFCURVE",
"400 391 OFFCURVE",
"406 406 CURVE",
"376 389 OFFCURVE",
"361 365 OFFCURVE",
"361 334 CURVE SMOOTH",
"361 327 OFFCURVE",
"362 318 OFFCURVE",
"364 309 CURVE",
"379 310 OFFCURVE",
"402 312 OFFCURVE",
"423 309 CURVE"
);
},
{
closed = 1;
nodes = (
"227 432 OFFCURVE",
"254 422 OFFCURVE",
"274 404 CURVE SMOOTH",
"293 386 OFFCURVE",
"304 359 OFFCURVE",
"304 326 CURVE SMOOTH",
"304 314 OFFCURVE",
"303 301 OFFCURVE",
"300 288 CURVE",
"289 289 OFFCURVE",
"278 290 OFFCURVE",
"267 290 CURVE SMOOTH",
"205 290 OFFCURVE",
"161 276 OFFCURVE",
"134 248 CURVE",
"117 229 OFFCURVE",
"108 209 OFFCURVE",
"108 186 CURVE SMOOTH",
"108 143 OFFCURVE",
"138 112 OFFCURVE",
"184 96 CURVE SMOOTH",
"230 79 OFFCURVE",
"280 71 OFFCURVE",
"336 71 CURVE SMOOTH",
"480 71 OFFCURVE",
"552 110 OFFCURVE",
"552 188 CURVE SMOOTH",
"552 213 OFFCURVE",
"544 235 OFFCURVE",
"529 249 CURVE SMOOTH",
"513 263 OFFCURVE",
"494 275 OFFCURVE",
"470 281 CURVE SMOOTH",
"445 287 OFFCURVE",
"421 290 OFFCURVE",
"393 290 CURVE SMOOTH",
"374 290 OFFCURVE",
"356 288 OFFCURVE",
"338 285 CURVE",
"333 301 OFFCURVE",
"331 316 OFFCURVE",
"331 331 CURVE SMOOTH",
"331 384 OFFCURVE",
"359 418 OFFCURVE",
"416 433 CURVE",
"441 504 OFFCURVE",
"530 619 OFFCURVE",
"582 619 CURVE SMOOTH",
"598 619 OFFCURVE",
"606 612 OFFCURVE",
"606 597 CURVE SMOOTH",
"606 590 OFFCURVE",
"603 584 OFFCURVE",
"596 580 CURVE SMOOTH",
"576 569 OFFCURVE",
"547 549 OFFCURVE",
"510 522 CURVE",
"477 493 OFFCURVE",
"455 464 OFFCURVE",
"444 433 CURVE",
"468 433 LINE SMOOTH",
"469 433 OFFCURVE",
"470 433 OFFCURVE",
"471 433 CURVE SMOOTH",
"518 433 OFFCURVE",
"558 400 OFFCURVE",
"558 357 CURVE SMOOTH",
"558 325 OFFCURVE",
"543 302 OFFCURVE",
"512 289 CURVE",
"533 281 OFFCURVE",
"552 263 OFFCURVE",
"565 242 CURVE SMOOTH",
"578 221 OFFCURVE",
"587 192 OFFCURVE",
"587 164 CURVE SMOOTH",
"587 107 OFFCURVE",
"557 62 OFFCURVE",
"509 38 CURVE SMOOTH",
"461 13 OFFCURVE",
"403 0 OFFCURVE",
"336 0 CURVE SMOOTH",
"259 0 OFFCURVE",
"198 13 OFFCURVE",
"151 39 CURVE",
"150 40 OFFCURVE",
"149 41 OFFCURVE",
"148 42 CURVE",
"143 24 LINE",
"116 37 OFFCURVE",
"90 58 OFFCURVE",
"64 87 CURVE",
"39 129 OFFCURVE",
"27 174 OFFCURVE",
"27 221 CURVE SMOOTH",
"27 309 OFFCURVE",
"58 372 OFFCURVE",
"121 411 CURVE",
"136 425 OFFCURVE",
"157 432 OFFCURVE",
"182 432 CURVE SMOOTH",
"184 432 OFFCURVE",
"186 432 OFFCURVE",
"189 432 CURVE SMOOTH",
"190 432 OFFCURVE",
"191 432 OFFCURVE",
"192 432 CURVE SMOOTH"
);
},
{
closed = 1;
nodes = (
"275 359 OFFCURVE",
"267 377 OFFCURVE",
"251 386 CURVE",
"243 391 OFFCURVE",
"233 393 OFFCURVE",
"220 393 CURVE SMOOTH",
"200 393 OFFCURVE",
"187 385 OFFCURVE",
"181 369 CURVE SMOOTH",
"170 338 OFFCURVE",
"153 322 OFFCURVE",
"130 322 CURVE SMOOTH",
"110 322 OFFCURVE",
"98 331 OFFCURVE",
"95 349 CURVE",
"70 320 OFFCURVE",
"57 276 OFFCURVE",
"57 218 CURVE SMOOTH",
"57 150 OFFCURVE",
"79 100 OFFCURVE",
"124 68 CURVE",
"102 95 OFFCURVE",
"84 129 OFFCURVE",
"71 168 CURVE",
"70 256 OFFCURVE",
"146 312 OFFCURVE",
"246 312 CURVE SMOOTH",
"255 312 OFFCURVE",
"264 312 OFFCURVE",
"273 311 CURVE",
"274 318 OFFCURVE",
"275 324 OFFCURVE",
"275 331 CURVE SMOOTH"
);
}
);
width = 637;
},
{
layerId = "AA78C373-A874-4B43-A7A1-B39102DDD1E4";
name = Bold;
width = 600;
}
);
unicode = 0DA6;
},
{
color = 6;
export = 0;
glyphname = si_Tta;
lastChange = "2015-06-22 15:06:21 +0000";
layers = (
{
background = {
paths = (
{
closed = 1;
nodes = (
"57 470 LINE",
"106 541 OFFCURVE",
"179 577 OFFCURVE",
"276 577 CURVE SMOOTH",
"436 577 OFFCURVE",
"557 440 OFFCURVE",
"557 275 CURVE SMOOTH",
"557 123 OFFCURVE",
"456 0 OFFCURVE",
"288 0 CURVE SMOOTH",
"189 0 OFFCURVE",
"116 27 OFFCURVE",
"72 87 CURVE",
"49 116 OFFCURVE",
"36 152 OFFCURVE",
"33 195 CURVE",
"32 200 OFFCURVE",
"32 206 OFFCURVE",
"32 211 CURVE SMOOTH",
"32 252 OFFCURVE",
"46 289 OFFCURVE",
"74 323 CURVE SMOOTH",
"101 356 OFFCURVE",
"133 376 OFFCURVE",
"173 385 CURVE SMOOTH",
"192 389 OFFCURVE",
"215 391 OFFCURVE",
"241 391 CURVE SMOOTH",
"278 391 OFFCURVE",
"305 386 OFFCURVE",
"321 375 CURVE",
"321 346 LINE",
"304 359 OFFCURVE",
"274 365 OFFCURVE",
"232 365 CURVE SMOOTH",
"117 365 OFFCURVE",
"67 288 OFFCURVE",
"66 223 CURVE SMOOTH",
"66 110 OFFCURVE",
"177 71 OFFCURVE",
"276 71 CURVE SMOOTH",
"425 71 OFFCURVE",
"524 157 OFFCURVE",
"524 300 CURVE SMOOTH",
"524 429 OFFCURVE",
"414 553 OFFCURVE",
"277 553 CURVE SMOOTH",
"185 553 OFFCURVE",
"137 529 OFFCURVE",
"90 470 CURVE"
);
}
);
};
layerId = "C18F3EFD-FA9C-4751-AD2F-5B966120D1A5";
name = Regular;
paths = (
{
closed = 1;
nodes = (
"65.904 115.897 OFFCURVE",
"175.908 70.753 OFFCURVE",
"276.18 70.753 CURVE SMOOTH",
"418.412 70.753 OFFCURVE",
"523.085 148.526 OFFCURVE",
"523.085 295.66 CURVE SMOOTH",
"523.085 431.78 OFFCURVE",
"415.577 553.085 OFFCURVE",
"275.44 553.085 CURVE SMOOTH",
"194.708 553.085 OFFCURVE",
"132.782 525.005 OFFCURVE",
"90 470 CURVE",
"57 470 LINE",
"103.928 539.372 OFFCURVE",
"176.65 577.08 OFFCURVE",
"273.087 577.08 CURVE SMOOTH",
"446.243 577.08 OFFCURVE",
"557.007 433.237 OFFCURVE",
"557.007 271.183 CURVE SMOOTH",
"557.007 115.251 OFFCURVE",
"447.244 -1.154 OFFCURVE",
"285.242 -1.154 CURVE SMOOTH",
"132.918 -1.154 OFFCURVE",
"31.596 80.639 OFFCURVE",
"31.596 207.87 CURVE SMOOTH",
"31.596 322.618 OFFCURVE",
"126.17 391.379 OFFCURVE",
"232 391.379 CURVE SMOOTH",
"259 391.379 OFFCURVE",
"291.655 386.086 OFFCURVE",
"321 375 CURVE",
"321 346 LINE",
"293.887 358.911 OFFCURVE",
"266 365.352 OFFCURVE",
"234 365.352 CURVE SMOOTH",
"148.492 365.352 OFFCURVE",
"65.904 314.123 OFFCURVE",
"65.904 217.757 CURVE SMOOTH"
);
}
);
width = 603;
},
{
layerId = "AA78C373-A874-4B43-A7A1-B39102DDD1E4";
name = Bold;
paths = (
{
closed = 1;
nodes = (
"92.904 168 OFFCURVE",
"188 132 OFFCURVE",
"278 132 CURVE SMOOTH",
"401 132 OFFCURVE",
"495.086 192 OFFCURVE",
"495.086 316.66 CURVE SMOOTH",
"495.086 443 OFFCURVE",
"418 553.085 OFFCURVE",
"275.44 553.085 CURVE SMOOTH",
"194.708 553.085 OFFCURVE",
"132.782 525.005 OFFCURVE",
"90 470 CURVE",
"57 470 LINE",
"103.928 539.372 OFFCURVE",
"176.65 577.08 OFFCURVE",
"273.087 577.08 CURVE SMOOTH",
"446.243 577.08 OFFCURVE",
"557.007 433.237 OFFCURVE",
"557.007 271.183 CURVE SMOOTH",
"557.007 115.251 OFFCURVE",
"447.244 -1.154 OFFCURVE",
"285.242 -1.154 CURVE SMOOTH",
"132.918 -1.154 OFFCURVE",
"31.596 80.639 OFFCURVE",
"31.596 207.87 CURVE SMOOTH",
"31.596 322.618 OFFCURVE",
"126.17 391.379 OFFCURVE",
"232 391.379 CURVE SMOOTH",
"259 391.379 OFFCURVE",
"291.655 386.086 OFFCURVE",
"321 375 CURVE",
"321 346 LINE",
"293.887 358.911 OFFCURVE",
"266 365.352 OFFCURVE",
"234 365.352 CURVE SMOOTH",
"148.492 365.352 OFFCURVE",
"92.904 322 OFFCURVE",
"92.904 255.757 CURVE SMOOTH"
);
}
);
width = 603;
}
);
unicode = 0DA7;
},
{
export = 0;
glyphname = si_Ttha;
lastChange = "2015-06-22 15:06:21 +0000";
layers = (
{
layerId = "C18F3EFD-FA9C-4751-AD2F-5B966120D1A5";
name = Regular;
paths = (
{
closed = 1;
nodes = (
"338 430 OFFCURVE",
"365 398 OFFCURVE",
"412 398 CURVE SMOOTH",
"446 398 OFFCURVE",
"471 415 OFFCURVE",
"487 450 CURVE",
"454 499 OFFCURVE",
"413 533 OFFCURVE",
"398 545 CURVE SMOOTH",
"385 556 OFFCURVE",
"373 564 OFFCURVE",
"362 569 CURVE",
"346 548 OFFCURVE",
"338 518 OFFCURVE",
"338 479 CURVE SMOOTH"
);
},
{
closed = 1;
nodes = (
"317 139 LINE SMOOTH",
"317 96 OFFCURVE",
"365 71 OFFCURVE",
"417 71 CURVE SMOOTH",
"514 71 OFFCURVE",
"556 168 OFFCURVE",
"556 259 CURVE SMOOTH",
"556 296 OFFCURVE",
"548 334 OFFCURVE",
"533 372 CURVE SMOOTH",
"522 398 OFFCURVE",
"513 415 OFFCURVE",
"505 423 CURVE",
"483 383 OFFCURVE",
"452 363 OFFCURVE",
"413 363 CURVE SMOOTH",
"360 363 OFFCURVE",
"313 403 OFFCURVE",
"309 452 CURVE",
"309 457 OFFCURVE",
"309 462 OFFCURVE",
"309 467 CURVE SMOOTH",
"309 514 OFFCURVE",
"323 560 OFFCURVE",
"350 603 CURVE",
"453 562 OFFCURVE",
"568 425 OFFCURVE",
"584 289 CURVE SMOOTH",
"586 272 OFFCURVE",
"587 255 OFFCURVE",
"587 238 CURVE SMOOTH",
"587 106 OFFCURVE",
"529 0 OFFCURVE",
"422 0 CURVE SMOOTH",
"373 0 OFFCURVE",
"333 20 OFFCURVE",
"303 59 CURVE",
"272 20 OFFCURVE",
"233 0 OFFCURVE",
"188 0 CURVE SMOOTH",
"88 0 OFFCURVE",
"33 100 OFFCURVE",
"33 191 CURVE SMOOTH",
"33 286 OFFCURVE",
"80 359 OFFCURVE",
"152 387 CURVE",
"173 394 OFFCURVE",
"196 398 OFFCURVE",
"221 398 CURVE",
"221 374 LINE",
"219 374 OFFCURVE",
"217 374 OFFCURVE",
"216 374 CURVE SMOOTH",
"136 374 OFFCURVE",
"69 301 OFFCURVE",
"69 218 CURVE SMOOTH",
"69 138 OFFCURVE",
"118 70 OFFCURVE",
"190 70 CURVE SMOOTH",
"243 70 OFFCURVE",
"288 95 OFFCURVE",
"288 139 CURVE SMOOTH",
"288 190 LINE",
"317 190 LINE"
);
}
);
width = 638;
},
{
layerId = "AA78C373-A874-4B43-A7A1-B39102DDD1E4";
name = Bold;
width = 600;
}
);
unicode = 0DA8;
},
{
color = 6;
export = 0;
glyphname = si_Dda;
lastChange = "2015-06-22 15:06:21 +0000";
layers = (
{
background = {
paths = (
{
closed = 1;
nodes = (
"515 71 OFFCURVE",
"563 159 OFFCURVE",
"563 274 CURVE SMOOTH",
"563 433 OFFCURVE",
"449 556 OFFCURVE",
"306 556 CURVE SMOOTH",
"221 556 OFFCURVE",
"155 527 OFFCURVE",
"106 468 CURVE",
"73 468 LINE",
"130 544 OFFCURVE",
"209 582 OFFCURVE",
"308 582 CURVE SMOOTH",
"387 582 OFFCURVE",
"454 553 OFFCURVE",
"509 495 CURVE SMOOTH",
"521 482 OFFCURVE",
"533 470 OFFCURVE",
"542 456 CURVE SMOOTH",
"551 442 OFFCURVE",
"560 428 OFFCURVE",
"567 413 CURVE SMOOTH",
"574 398 OFFCURVE",
"580 382 OFFCURVE",
"585 366 CURVE",
"589 349 OFFCURVE",
"593 332 OFFCURVE",
"595 314 CURVE SMOOTH",
"597 296 OFFCURVE",
"598 275 OFFCURVE",
"598 255 CURVE SMOOTH",
"598 134 OFFCURVE",
"554 0 OFFCURVE",
"431 0 CURVE SMOOTH",
"374 0 OFFCURVE",
"348 16 OFFCURVE",
"313 59 CURVE",
"281 20 OFFCURVE",
"242 0 OFFCURVE",
"197 0 CURVE SMOOTH",
"113 0 OFFCURVE",
"46 73 OFFCURVE",
"46 158 CURVE SMOOTH",
"46 197 OFFCURVE",
"59 231 OFFCURVE",
"84 258 CURVE",
"99 273 OFFCURVE",
"112 283 OFFCURVE",
"125 288 CURVE",
"15 288 LINE",
"15 315 LINE",
"261 315 LINE",
"260 352 OFFCURVE",
"231 392 OFFCURVE",
"198 392 CURVE SMOOTH",
"177 392 OFFCURVE",
"159 381 OFFCURVE",
"146 358 CURVE SMOOTH",
"137 341 OFFCURVE",
"109 334 OFFCURVE",
"90 345 CURVE",
"80 350 OFFCURVE",
"75 359 OFFCURVE",
"75 371 CURVE SMOOTH",
"75 376 OFFCURVE",
"76 381 OFFCURVE",
"79 386 CURVE",
"94 417 OFFCURVE",
"126 432 OFFCURVE",
"175 432 CURVE SMOOTH",
"248 432 OFFCURVE",
"294 371 OFFCURVE",
"295 288 CURVE",
"199 288 LINE SMOOTH",
"140 288 OFFCURVE",
"83 233 OFFCURVE",
"83 176 CURVE SMOOTH",
"83 117 OFFCURVE",
"135 71 OFFCURVE",
"198 71 CURVE SMOOTH",
"251 71 OFFCURVE",
"299 98 OFFCURVE",
"299 143 CURVE SMOOTH",
"299 178 LINE",
"326 178 LINE",
"326 143 LINE SMOOTH",
"326 99 OFFCURVE",
"371 71 OFFCURVE",
"424 71 CURVE SMOOTH"
);
}
);
};
guideLines = (
{
position = "{582, 0}";
},
{
position = "{530, 432}";
}
);
layerId = "C18F3EFD-FA9C-4751-AD2F-5B966120D1A5";
name = Regular;
paths = (
{
closed = 1;
nodes = (
"76.211 353 OFFCURVE",
"93 339.264 OFFCURVE",
"113 339.264 CURVE SMOOTH",
"126.646 339.264 OFFCURVE",
"140.189 344.38 OFFCURVE",
"148 360 CURVE SMOOTH",
"162 388 OFFCURVE",
"178.365 392.267 OFFCURVE",
"196 392.267 CURVE SMOOTH",
"228 392.267 OFFCURVE",
"258.164 357.533 OFFCURVE",
"261 315 CURVE",
"15 315 LINE",
"15 288 LINE",
"125 288 LINE",
"71.049 264.198 OFFCURVE",
"45.881 212 OFFCURVE",
"45.881 162 CURVE SMOOTH",
"45.881 81.19 OFFCURVE",
"97.984 0 OFFCURVE",
"199 0 CURVE SMOOTH",
"250 0 OFFCURVE",
"283.406 21.686 OFFCURVE",
"313 59 CURVE",
"334.63 28.521 OFFCURVE",
"363.028 -0.025 OFFCURVE",
"427.656 -0.025 CURVE SMOOTH",
"547.007 -0.025 OFFCURVE",
"597.987 126.286 OFFCURVE",
"597.987 258.222 CURVE SMOOTH",
"597.987 444 OFFCURVE",
"478.636 582.02 OFFCURVE",
"304.119 582.02 CURVE SMOOTH",
"209.737 582.02 OFFCURVE",
"127.258 545.934 OFFCURVE",
"73 468 CURVE",
"106 468 LINE",
"153.203 524.902 OFFCURVE",
"217.966 556.09 OFFCURVE",
"298.465 556.09 CURVE SMOOTH",
"456 556.09 OFFCURVE",
"562.143 428 OFFCURVE",
"562.143 273.218 CURVE SMOOTH",
"562.143 167.485 OFFCURVE",
"520.489 71 OFFCURVE",
"424 71 CURVE SMOOTH",
"373.775 71 OFFCURVE",
"326 97.086 OFFCURVE",
"326 143 CURVE SMOOTH",
"326 178 LINE",
"299 178 LINE",
"299 143 LINE SMOOTH",
"299 95.165 OFFCURVE",
"247.046 71 OFFCURVE",
"198 71 CURVE SMOOTH",
"123.262 71 OFFCURVE",
"83.391 121.642 OFFCURVE",
"83.391 174 CURVE SMOOTH",
"83.391 230 OFFCURVE",
"126.957 288 OFFCURVE",
"220 288 CURVE SMOOTH",
"295 288 LINE",
"293.627 373.979 OFFCURVE",
"249.407 432.167 OFFCURVE",
"165.279 432.167 CURVE SMOOTH",
"123.101 432.167 OFFCURVE",
"76.211 415.531 OFFCURVE",
"76.211 374.122 CURVE SMOOTH"
);
}
);
width = 647;
},
{
layerId = "AA78C373-A874-4B43-A7A1-B39102DDD1E4";
name = Bold;
paths = (
{
closed = 1;
nodes = (
"76.211 353 OFFCURVE",
"93 339.264 OFFCURVE",
"113 339.264 CURVE SMOOTH",
"126.646 339.264 OFFCURVE",
"140.189 344.38 OFFCURVE",
"148 360 CURVE SMOOTH",
"162 388 OFFCURVE",
"178.365 392.267 OFFCURVE",
"196 392.267 CURVE SMOOTH",
"228 392.267 OFFCURVE",
"258.164 357.533 OFFCURVE",
"261 315 CURVE",
"15 315 LINE",
"15 288 LINE",
"125 288 LINE",
"71.049 264.198 OFFCURVE",
"45.881 212 OFFCURVE",
"45.881 162 CURVE SMOOTH",
"45.881 81.19 OFFCURVE",
"97.984 0 OFFCURVE",
"199 0 CURVE SMOOTH",
"250 0 OFFCURVE",
"283.406 21.686 OFFCURVE",
"313 59 CURVE",
"334.63 28.521 OFFCURVE",
"363.028 -0.025 OFFCURVE",
"427.656 -0.025 CURVE SMOOTH",
"547.007 -0.025 OFFCURVE",
"597.987 126.286 OFFCURVE",
"597.987 258.222 CURVE SMOOTH",
"597.987 444 OFFCURVE",
"478.636 582.02 OFFCURVE",
"304.119 582.02 CURVE SMOOTH",
"209.737 582.02 OFFCURVE",
"127.258 545.934 OFFCURVE",
"73 468 CURVE",
"106 468 LINE",
"153.203 524.902 OFFCURVE",
"217.966 556.09 OFFCURVE",
"298.465 556.09 CURVE SMOOTH",
"456 556.09 OFFCURVE",
"542.143 443 OFFCURVE",
"542.143 288.218 CURVE SMOOTH",
"542.143 195 OFFCURVE",
"489 131 OFFCURVE",
"414 131 CURVE SMOOTH",
"353 131 OFFCURVE",
"326 155 OFFCURVE",
"326 191 CURVE SMOOTH",
"326 209 LINE",
"299 209 LINE",
"299 191 LINE SMOOTH",
"299 152 OFFCURVE",
"267 131 OFFCURVE",
"203 131 CURVE SMOOTH",
"149.99 131 OFFCURVE",
"104.392 155.642 OFFCURVE",
"104.392 208 CURVE SMOOTH",
"104.392 235 OFFCURVE",
"126.957 288 OFFCURVE",
"220 288 CURVE SMOOTH",
"295 288 LINE",
"293.627 373.979 OFFCURVE",
"249.407 432.167 OFFCURVE",
"165.279 432.167 CURVE SMOOTH",
"123.101 432.167 OFFCURVE",
"76.211 415.531 OFFCURVE",
"76.211 374.122 CURVE SMOOTH"
);
}
);
width = 647;
}
);
unicode = 0DA9;
},
{
export = 0;
glyphname = si_Ddha;
lastChange = "2015-06-22 15:06:21 +0000";
layers = (
{
layerId = "C18F3EFD-FA9C-4751-AD2F-5B966120D1A5";
name = Regular;
paths = (
{
closed = 1;
nodes = (
"113 0 OFFCURVE",
"46 73 OFFCURVE",
"46 158 CURVE SMOOTH",
"46 197 OFFCURVE",
"59 231 OFFCURVE",
"84 258 CURVE SMOOTH",
"98 273 OFFCURVE",
"111 283 OFFCURVE",
"124 288 CURVE",
"15 288 LINE",
"15 315 LINE",
"255 315 LINE",
"255 351 OFFCURVE",
"227 391 OFFCURVE",
"196 391 CURVE SMOOTH",
"191 391 OFFCURVE",
"185 390 OFFCURVE",
"180 387 CURVE",
"165 380 OFFCURVE",
"154 369 OFFCURVE",
"145 354 CURVE",
"136 335 OFFCURVE",
"107 329 OFFCURVE",
"87 341 CURVE",
"76 346 OFFCURVE",
"71 355 OFFCURVE",
"71 368 CURVE SMOOTH",
"71 411 OFFCURVE",
"105 432 OFFCURVE",
"173 432 CURVE SMOOTH",
"248 432 OFFCURVE",
"290 372 OFFCURVE",
"289 288 CURVE",
"195 288 LINE SMOOTH",
"138 288 OFFCURVE",
"85 233 OFFCURVE",
"85 176 CURVE SMOOTH",
"85 117 OFFCURVE",
"135 71 OFFCURVE",
"198 71 CURVE SMOOTH",
"251 71 OFFCURVE",
"299 101 OFFCURVE",
"299 146 CURVE SMOOTH",
"299 190 LINE",
"326 190 LINE",
"326 146 LINE SMOOTH",
"326 101 OFFCURVE",
"373 71 OFFCURVE",
"425 71 CURVE SMOOTH",
"522 71 OFFCURVE",
"565 170 OFFCURVE",
"565 261 CURVE SMOOTH",
"565 298 OFFCURVE",
"557 336 OFFCURVE",
"541 373 CURVE SMOOTH",
"531 398 OFFCURVE",
"522 415 OFFCURVE",
"514 424 CURVE",
"493 383 OFFCURVE",
"462 363 OFFCURVE",
"422 363 CURVE SMOOTH",
"399 363 OFFCURVE",
"377 370 OFFCURVE",
"360 383 CURVE",
"343 395 OFFCURVE",
"330 412 OFFCURVE",
"323 433 CURVE",
"320 444 OFFCURVE",
"318 455 OFFCURVE",
"318 467 CURVE SMOOTH",
"318 512 OFFCURVE",
"332 558 OFFCURVE",
"359 603 CURVE",
"492 550 OFFCURVE",
"598 385 OFFCURVE",
"598 240 CURVE SMOOTH",
"598 108 OFFCURVE",
"538 0 OFFCURVE",
"431 0 CURVE SMOOTH",
"374 0 OFFCURVE",
"348 16 OFFCURVE",
"313 59 CURVE",
"281 20 OFFCURVE",
"242 0 OFFCURVE",
"197 0 CURVE SMOOTH"
);
},
{
closed = 1;
nodes = (
"355 545 OFFCURVE",
"347 515 OFFCURVE",
"347 476 CURVE SMOOTH",
"347 413 OFFCURVE",
"395 393 OFFCURVE",
"424 393 CURVE SMOOTH",
"452 393 OFFCURVE",
"477 412 OFFCURVE",
"498 450 CURVE",
"475 485 OFFCURVE",
"417 547 OFFCURVE",
"372 567 CURVE"
);
}
);
width = 647;
},
{
layerId = "AA78C373-A874-4B43-A7A1-B39102DDD1E4";
name = Bold;
width = 600;
}
);
unicode = 0DAA;
},
{
export = 0;
glyphname = si_Nna;
lastChange = "2015-06-22 15:06:21 +0000";
layers = (
{
layerId = "C18F3EFD-FA9C-4751-AD2F-5B966120D1A5";
name = Regular;
paths = (
{
closed = 1;
nodes = (
"385 312 OFFCURVE",
"370 318 OFFCURVE",
"353 318 CURVE SMOOTH",
"318 318 OFFCURVE",
"292 291 OFFCURVE",
"292 258 CURVE SMOOTH",
"292 225 OFFCURVE",
"321 197 OFFCURVE",
"354 197 CURVE SMOOTH",
"386 197 OFFCURVE",
"415 224 OFFCURVE",
"415 257 CURVE SMOOTH",
"415 274 OFFCURVE",
"409 289 OFFCURVE",
"397 301 CURVE"
);
},
{
closed = 1;
nodes = (
"851 241 OFFCURVE",
"833 283 OFFCURVE",
"796 283 CURVE SMOOTH",
"763 283 OFFCURVE",
"743 257 OFFCURVE",
"737 206 CURVE",
"740 196 OFFCURVE",
"742 184 OFFCURVE",
"742 170 CURVE SMOOTH",
"742 145 OFFCURVE",
"738 121 OFFCURVE",
"729 97 CURVE",
"733 64 OFFCURVE",
"763 29 OFFCURVE",
"796 29 CURVE SMOOTH",
"833 29 OFFCURVE",
"851 72 OFFCURVE",
"851 157 CURVE SMOOTH"
);
},
{
closed = 1;
nodes = (
"709 229 OFFCURVE",
"690 258 OFFCURVE",
"651 258 CURVE SMOOTH",
"618 258 OFFCURVE",
"594 241 OFFCURVE",
"581 206 CURVE",
"581 190 OFFCURVE",
"578 171 OFFCURVE",
"573 150 CURVE",
"573 137 OFFCURVE",
"577 124 OFFCURVE",
"584 112 CURVE SMOOTH",
"591 100 OFFCURVE",
"599 89 OFFCURVE",
"610 81 CURVE SMOOTH",
"621 73 OFFCURVE",
"634 69 OFFCURVE",
"647 69 CURVE SMOOTH",
"688 69 OFFCURVE",
"709 103 OFFCURVE",
"709 170 CURVE SMOOTH"
);
},
{
closed = 1;
nodes = (
"279 197 OFFCURVE",
"261 220 OFFCURVE",
"261 255 CURVE SMOOTH",
"261 268 OFFCURVE",
"265 281 OFFCURVE",
"273 293 CURVE",
"205 258 LINE",
"218 217 OFFCURVE",
"264 187 OFFCURVE",
"315 184 CURVE"
);
},
{
closed = 1;
nodes = (
"445 216 OFFCURVE",
"417 185 OFFCURVE",
"378 170 CURVE SMOOTH",
"359 163 OFFCURVE",
"338 159 OFFCURVE",
"317 159 CURVE SMOOTH",
"247 159 OFFCURVE",
"200 187 OFFCURVE",
"177 242 CURVE",
"163 235 OFFCURVE",
"142 223 OFFCURVE",
"115 208 CURVE",
"150 204 OFFCURVE",
"169 172 OFFCURVE",
"189 147 CURVE",
"238 98 OFFCURVE",
"291 73 OFFCURVE",
"350 73 CURVE SMOOTH",
"467 73 OFFCURVE",
"550 137 OFFCURVE",
"550 242 CURVE SMOOTH",
"550 304 OFFCURVE",
"521 350 OFFCURVE",
"463 379 CURVE",
"452 375 OFFCURVE",
"437 369 OFFCURVE",
"418 361 CURVE",
"399 352 OFFCURVE",
"384 346 OFFCURVE",
"372 341 CURVE",
"413 332 OFFCURVE",
"445 299 OFFCURVE",
"445 255 CURVE SMOOTH"
);
},
{
closed = 1;
nodes = (
"224 299 OFFCURVE",
"261 318 OFFCURVE",
"313 343 CURVE SMOOTH",
"356 362 OFFCURVE",
"396 379 OFFCURVE",
"435 394 CURVE",
"413 403 OFFCURVE",
"387 407 OFFCURVE",
"356 407 CURVE SMOOTH",
"275 407 OFFCURVE",
"201 370 OFFCURVE",
"201 293 CURVE SMOOTH",
"201 291 OFFCURVE",
"201 289 OFFCURVE",
"201 287 CURVE"
);
},
{
closed = 1;
nodes = (
"79 181 OFFCURVE",
"64 176 OFFCURVE",
"55 170 CURVE",
"50 167 OFFCURVE",
"43 161 OFFCURVE",
"33 154 CURVE",
"22 178 LINE",
"43 195 OFFCURVE",
"92 225 OFFCURVE",
"171 269 CURVE",
"170 275 OFFCURVE",
"170 281 OFFCURVE",
"170 286 CURVE SMOOTH",
"170 377 OFFCURVE",
"251 433 OFFCURVE",
"356 433 CURVE SMOOTH",
"404 433 OFFCURVE",
"441 424 OFFCURVE",
"467 405 CURVE",
"580 460 OFFCURVE",
"764 527 OFFCURVE",
"828 527 CURVE SMOOTH",
"851 527 OFFCURVE",
"863 518 OFFCURVE",
"863 500 CURVE SMOOTH",
"863 485 OFFCURVE",
"851 475 OFFCURVE",
"828 470 CURVE",
"799 465 OFFCURVE",
"750 456 OFFCURVE",
"683 443 CURVE SMOOTH",
"624 430 OFFCURVE",
"562 412 OFFCURVE",
"497 390 CURVE",
"540 365 OFFCURVE",
"580 307 OFFCURVE",
"580 250 CURVE",
"595 275 OFFCURVE",
"618 287 OFFCURVE",
"649 287 CURVE SMOOTH",
"681 287 OFFCURVE",
"705 275 OFFCURVE",
"721 250 CURVE",
"732 298 OFFCURVE",
"763 322 OFFCURVE",
"814 322 CURVE SMOOTH",
"894 322 OFFCURVE",
"915 232 OFFCURVE",
"915 155 CURVE SMOOTH",
"915 96 OFFCURVE",
"899 51 OFFCURVE",
"866 22 CURVE",
"827 -9 OFFCURVE",
"745 -24 OFFCURVE",
"712 65 CURVE",
"696 46 OFFCURVE",
"674 36 OFFCURVE",
"647 36 CURVE SMOOTH",
"606 36 OFFCURVE",
"576 58 OFFCURVE",
"557 103 CURVE",
"510 32 OFFCURVE",
"458 0 OFFCURVE",
"361 0 CURVE SMOOTH",
"258 0 OFFCURVE",
"224 36 OFFCURVE",
"159 133 CURVE",
"158 136 OFFCURVE",
"148 151 OFFCURVE",
"145 155 CURVE",
"141 159 OFFCURVE",
"132 170 OFFCURVE",
"126 174 CURVE",
"120 177 OFFCURVE",
"109 181 OFFCURVE",
"98 181 CURVE SMOOTH"
);
}
);
width = 963;
},
{
layerId = "AA78C373-A874-4B43-A7A1-B39102DDD1E4";
name = Bold;
width = 600;
}
);
unicode = 0DAB;
},
{
export = 0;
glyphname = si_Ndda;
lastChange = "2015-06-22 15:06:21 +0000";
layers = (
{
layerId = "C18F3EFD-FA9C-4751-AD2F-5B966120D1A5";
name = Regular;
paths = (
{
closed = 1;
nodes = (
"349 315 LINE",
"348 352 OFFCURVE",
"318 392 OFFCURVE",
"285 392 CURVE SMOOTH",
"262 392 OFFCURVE",
"245 381 OFFCURVE",
"234 358 CURVE",
"225 341 OFFCURVE",
"197 334 OFFCURVE",
"178 345 CURVE",
"168 350 OFFCURVE",
"163 359 OFFCURVE",
"163 371 CURVE SMOOTH",
"163 383 OFFCURVE",
"167 393 OFFCURVE",
"176 402 CURVE",
"97 377 OFFCURVE",
"57 316 OFFCURVE",
"57 218 CURVE SMOOTH",
"57 137 OFFCURVE",
"83 74 OFFCURVE",
"135 29 CURVE",
"135 0 LINE",
"68 33 OFFCURVE",
"27 120 OFFCURVE",
"27 221 CURVE SMOOTH",
"27 298 OFFCURVE",
"52 357 OFFCURVE",
"102 398 CURVE",
"123 414 OFFCURVE",
"140 424 OFFCURVE",
"161 429 CURVE",
"172 431 OFFCURVE",
"184 432 OFFCURVE",
"197 432 CURVE SMOOTH",
"208 432 OFFCURVE",
"221 431 OFFCURVE",
"236 430 CURVE",
"239 431 OFFCURVE",
"247 432 OFFCURVE",
"260 432 CURVE SMOOTH",
"261 432 OFFCURVE",
"262 432 OFFCURVE",
"263 432 CURVE SMOOTH",
"312 432 OFFCURVE",
"350 404 OFFCURVE",
"368 361 CURVE SMOOTH",
"377 339 OFFCURVE",
"381 315 OFFCURVE",
"382 288 CURVE",
"287 288 LINE SMOOTH",
"228 288 OFFCURVE",
"170 234 OFFCURVE",
"170 177 CURVE SMOOTH",
"170 117 OFFCURVE",
"223 71 OFFCURVE",
"286 71 CURVE SMOOTH",
"339 71 OFFCURVE",
"387 98 OFFCURVE",
"387 143 CURVE SMOOTH",
"387 178 LINE",
"414 178 LINE",
"414 143 LINE SMOOTH",
"414 99 OFFCURVE",
"459 71 OFFCURVE",
"512 71 CURVE SMOOTH",
"603 71 OFFCURVE",
"651 159 OFFCURVE",
"651 274 CURVE SMOOTH",
"651 433 OFFCURVE",
"537 556 OFFCURVE",
"394 556 CURVE SMOOTH",
"309 556 OFFCURVE",
"243 527 OFFCURVE",
"194 468 CURVE",
"161 468 LINE",
"218 544 OFFCURVE",
"296 582 OFFCURVE",
"396 582 CURVE SMOOTH",
"569 582 OFFCURVE",
"685 434 OFFCURVE",
"685 258 CURVE SMOOTH",
"685 114 OFFCURVE",
"630 0 OFFCURVE",
"519 0 CURVE SMOOTH",
"472 0 OFFCURVE",
"432 20 OFFCURVE",
"401 59 CURVE",
"368 20 OFFCURVE",
"330 0 OFFCURVE",
"285 0 CURVE SMOOTH",
"201 0 OFFCURVE",
"134 73 OFFCURVE",
"134 158 CURVE SMOOTH",
"134 197 OFFCURVE",
"147 231 OFFCURVE",
"172 258 CURVE",
"187 273 OFFCURVE",
"200 283 OFFCURVE",
"213 288 CURVE",
"103 288 LINE",
"103 315 LINE"
);
}
);
width = 731;
},
{
layerId = "AA78C373-A874-4B43-A7A1-B39102DDD1E4";
name = Bold;
width = 600;
}
);
unicode = 0DAC;
},
{
export = 0;
glyphname = si_Ta;
lastChange = "2015-06-22 15:06:21 +0000";
layers = (
{
background = {
paths = (
{
closed = 1;
nodes = (
"350 73 OFFCURVE",
"417 108 OFFCURVE",
"417 188 CURVE SMOOTH",
"417 269 OFFCURVE",
"339 296 OFFCURVE",
"283 296 CURVE SMOOTH",
"233 296 OFFCURVE",
"192 286 OFFCURVE",
"159 265 CURVE",
"124 223 OFFCURVE",
"95 168 OFFCURVE",
"72 100 CURVE",
"81 106 OFFCURVE",
"92 109 OFFCURVE",
"103 109 CURVE SMOOTH",
"119 109 OFFCURVE",
"141 102 OFFCURVE",
"170 88 CURVE SMOOTH",
"190 78 OFFCURVE",
"218 73 OFFCURVE",
"254 73 CURVE SMOOTH"
);
},
{
closed = 1;
nodes = (
"76 79 OFFCURVE",
"67 74 OFFCURVE",
"61 63 CURVE",
"54 52 OFFCURVE",
"49 34 OFFCURVE",
"44 9 CURVE",
"22 25 LINE",
"33 95 OFFCURVE",
"58 162 OFFCURVE",
"98 226 CURVE SMOOTH",
"127 271 OFFCURVE",
"152 303 OFFCURVE",
"174 322 CURVE",
"177 331 OFFCURVE",
"178 341 OFFCURVE",
"178 350 CURVE SMOOTH",
"178 376 OFFCURVE",
"170 389 OFFCURVE",
"153 389 CURVE SMOOTH",
"136 389 OFFCURVE",
"125 378 OFFCURVE",
"121 358 CURVE SMOOTH",
"113 317 OFFCURVE",
"116 295 OFFCURVE",
"73 295 CURVE SMOOTH",
"49 295 OFFCURVE",
"37 311 OFFCURVE",
"37 342 CURVE SMOOTH",
"37 387 OFFCURVE",
"81 433 OFFCURVE",
"126 433 CURVE SMOOTH",
"178 433 OFFCURVE",
"205 405 OFFCURVE",
"206 348 CURVE",
"251 400 OFFCURVE",
"340 435 OFFCURVE",
"435 435 CURVE SMOOTH",
"450 435 OFFCURVE",
"465 434 OFFCURVE",
"479 432 CURVE SMOOTH",
"579 417 OFFCURVE",
"664 304 OFFCURVE",
"664 188 CURVE SMOOTH",
"664 103 OFFCURVE",
"626 40 OFFCURVE",
"590 17 CURVE SMOOTH",
"572 5 OFFCURVE",
"549 -1 OFFCURVE",
"521 -1 CURVE SMOOTH",
"493 -1 OFFCURVE",
"471 5 OFFCURVE",
"455 16 CURVE",
"460 42 LINE",
"478 31 OFFCURVE",
"497 26 OFFCURVE",
"517 26 CURVE SMOOTH",
"531 26 OFFCURVE",
"543 29 OFFCURVE",
"554 34 CURVE SMOOTH",
"593 53 OFFCURVE",
"612 92 OFFCURVE",
"612 149 CURVE SMOOTH",
"612 317 OFFCURVE",
"462 379 OFFCURVE",
"367 379 CURVE SMOOTH",
"296 379 OFFCURVE",
"241 355 OFFCURVE",
"201 306 CURVE",
"222 315 OFFCURVE",
"249 320 OFFCURVE",
"281 320 CURVE SMOOTH",
"390 320 OFFCURVE",
"459 262 OFFCURVE",
"459 161 CURVE SMOOTH",
"459 30 OFFCURVE",
"351 -2 OFFCURVE",
"276 -2 CURVE SMOOTH",
"223 -2 OFFCURVE",
"182 11 OFFCURVE",
"151 36 CURVE",
"148 39 OFFCURVE",
"140 47 OFFCURVE",
"136 52 CURVE",
"132 56 OFFCURVE",
"125 63 OFFCURVE",
"119 67 CURVE SMOOTH",
"113 71 OFFCURVE",
"105 76 OFFCURVE",
"98 78 CURVE SMOOTH",
"94 79 OFFCURVE",
"90 79 OFFCURVE",
"87 79 CURVE SMOOTH"
);
}
);
};
layerId = "C18F3EFD-FA9C-4751-AD2F-5B966120D1A5";
name = Regular;
paths = (
{
closed = 1;
nodes = (
"350 73 OFFCURVE",
"417 108 OFFCURVE",
"417 188 CURVE SMOOTH",
"417 269 OFFCURVE",
"339 296 OFFCURVE",
"283 296 CURVE SMOOTH",
"233 296 OFFCURVE",
"192 286 OFFCURVE",
"159 265 CURVE",
"124 223 OFFCURVE",
"95 168 OFFCURVE",
"72 100 CURVE",
"81 106 OFFCURVE",
"92 109 OFFCURVE",
"103 109 CURVE SMOOTH",
"119 109 OFFCURVE",
"141 102 OFFCURVE",
"170 88 CURVE SMOOTH",
"190 78 OFFCURVE",
"218 73 OFFCURVE",
"254 73 CURVE SMOOTH"
);
},
{
closed = 1;
nodes = (
"76 79 OFFCURVE",
"67 74 OFFCURVE",
"61 63 CURVE",
"54 52 OFFCURVE",
"49 34 OFFCURVE",
"44 9 CURVE",
"22 25 LINE",
"33 95 OFFCURVE",
"58 162 OFFCURVE",
"98 226 CURVE SMOOTH",
"127 271 OFFCURVE",
"152 303 OFFCURVE",
"174 322 CURVE",
"177 331 OFFCURVE",
"178 341 OFFCURVE",
"178 350 CURVE SMOOTH",
"178 376 OFFCURVE",
"170 389 OFFCURVE",
"153 389 CURVE SMOOTH",
"136 389 OFFCURVE",
"125 378 OFFCURVE",
"121 358 CURVE SMOOTH",
"113 317 OFFCURVE",
"116 295 OFFCURVE",
"73 295 CURVE SMOOTH",
"49 295 OFFCURVE",
"37 311 OFFCURVE",
"37 342 CURVE SMOOTH",
"37 387 OFFCURVE",
"81 433 OFFCURVE",
"126 433 CURVE SMOOTH",
"178 433 OFFCURVE",
"205 405 OFFCURVE",
"206 348 CURVE",
"251 400 OFFCURVE",
"340 435 OFFCURVE",
"435 435 CURVE SMOOTH",
"450 435 OFFCURVE",
"465 434 OFFCURVE",
"479 432 CURVE SMOOTH",
"579 417 OFFCURVE",
"664 304 OFFCURVE",
"664 188 CURVE SMOOTH",
"664 103 OFFCURVE",
"626 40 OFFCURVE",
"590 17 CURVE SMOOTH",
"572 5 OFFCURVE",
"549 -1 OFFCURVE",
"521 -1 CURVE SMOOTH",
"493 -1 OFFCURVE",
"471 5 OFFCURVE",
"455 16 CURVE",
"460 42 LINE",
"478 31 OFFCURVE",
"497 26 OFFCURVE",
"517 26 CURVE SMOOTH",
"531 26 OFFCURVE",
"543 29 OFFCURVE",
"554 34 CURVE SMOOTH",
"593 53 OFFCURVE",
"612 92 OFFCURVE",
"612 149 CURVE SMOOTH",
"612 317 OFFCURVE",
"462 379 OFFCURVE",
"367 379 CURVE SMOOTH",
"296 379 OFFCURVE",
"241 355 OFFCURVE",
"201 306 CURVE",
"222 315 OFFCURVE",
"249 320 OFFCURVE",
"281 320 CURVE SMOOTH",
"390 320 OFFCURVE",
"459 262 OFFCURVE",
"459 161 CURVE SMOOTH",
"459 30 OFFCURVE",
"351 -2 OFFCURVE",
"276 -2 CURVE SMOOTH",
"223 -2 OFFCURVE",
"182 11 OFFCURVE",
"151 36 CURVE",
"148 39 OFFCURVE",
"140 47 OFFCURVE",
"136 52 CURVE",
"132 56 OFFCURVE",
"125 63 OFFCURVE",
"119 67 CURVE SMOOTH",
"113 71 OFFCURVE",
"105 76 OFFCURVE",
"98 78 CURVE SMOOTH",
"94 79 OFFCURVE",
"90 79 OFFCURVE",
"87 79 CURVE SMOOTH"
);
}
);
width = 704;
},
{
layerId = "AA78C373-A874-4B43-A7A1-B39102DDD1E4";
name = Bold;
width = 600;
}
);
unicode = 0DAD;
},
{
export = 0;
glyphname = si_Tha;
lastChange = "2015-06-22 15:06:21 +0000";
layers = (
{
layerId = "C18F3EFD-FA9C-4751-AD2F-5B966120D1A5";
name = Regular;
paths = (
{
closed = 1;
nodes = (
"339 430 OFFCURVE",
"365 395 OFFCURVE",
"409 395 CURVE SMOOTH",
"437 395 OFFCURVE",
"460 411 OFFCURVE",
"477 444 CURVE",
"457 483 OFFCURVE",
"395 549 OFFCURVE",
"363 565 CURVE",
"347 549 OFFCURVE",
"339 520 OFFCURVE",
"339 478 CURVE SMOOTH"
);
},
{
closed = 1;
nodes = (
"67 168 OFFCURVE",
"114 113 OFFCURVE",
"182 89 CURVE SMOOTH",
"216 77 OFFCURVE",
"255 71 OFFCURVE",
"299 71 CURVE SMOOTH",
"439 71 OFFCURVE",
"530 156 OFFCURVE",
"530 283 CURVE SMOOTH",
"530 335 OFFCURVE",
"518 378 OFFCURVE",
"493 412 CURVE",
"474 379 OFFCURVE",
"448 363 OFFCURVE",
"413 363 CURVE SMOOTH",
"360 363 OFFCURVE",
"313 403 OFFCURVE",
"309 452 CURVE",
"309 457 OFFCURVE",
"309 462 OFFCURVE",
"309 467 CURVE SMOOTH",
"309 514 OFFCURVE",
"323 560 OFFCURVE",
"350 603 CURVE",
"453 562 OFFCURVE",
"566 401 OFFCURVE",
"566 254 CURVE SMOOTH",
"566 107 OFFCURVE",
"451 -1 OFFCURVE",
"295 -1 CURVE SMOOTH",
"150 -1 OFFCURVE",
"33 97 OFFCURVE",
"33 238 CURVE SMOOTH",
"33 345 OFFCURVE",
"130 426 OFFCURVE",
"245 430 CURVE",
"245 405 LINE",
"182 404 OFFCURVE",
"125 376 OFFCURVE",
"92 327 CURVE SMOOTH",
"75 302 OFFCURVE",
"67 275 OFFCURVE",
"67 245 CURVE SMOOTH"
);
}
);
width = 614;
},
{
layerId = "AA78C373-A874-4B43-A7A1-B39102DDD1E4";
name = Bold;
width = 600;
}
);
unicode = 0DAE;
},
{
export = 0;
glyphname = si_Da;
lastChange = "2015-06-22 15:06:21 +0000";
layers = (
{
layerId = "C18F3EFD-FA9C-4751-AD2F-5B966120D1A5";
name = Regular;
paths = (
{
closed = 1;
nodes = (
"343 317 LINE",
"334 362 OFFCURVE",
"305 397 OFFCURVE",
"261 397 CURVE SMOOTH",
"252 397 OFFCURVE",
"244 396 OFFCURVE",
"238 393 CURVE SMOOTH",
"232 390 OFFCURVE",
"226 385 OFFCURVE",
"222 378 CURVE",
"219 375 OFFCURVE",
"217 371 OFFCURVE",
"214 366 CURVE SMOOTH",
"202 345 OFFCURVE",
"190 336 OFFCURVE",
"167 336 CURVE SMOOTH",
"149 336 OFFCURVE",
"140 347 OFFCURVE",
"140 368 CURVE SMOOTH",
"140 373 OFFCURVE",
"141 377 OFFCURVE",
"142 382 CURVE",
"155 416 OFFCURVE",
"185 433 OFFCURVE",
"232 433 CURVE SMOOTH",
"317 433 OFFCURVE",
"360 390 OFFCURVE",
"379 294 CURVE",
"249 294 LINE SMOOTH",
"155 294 OFFCURVE",
"108 256 OFFCURVE",
"108 179 CURVE SMOOTH",
"108 90 OFFCURVE",
"172 27 OFFCURVE",
"263 27 CURVE SMOOTH",
"306 27 OFFCURVE",
"346 49 OFFCURVE",
"384 92 CURVE",
"407 75 LINE",
"370 38 OFFCURVE",
"341 0 OFFCURVE",
"322 -39 CURVE SMOOTH",
"311 -60 OFFCURVE",
"306 -82 OFFCURVE",
"306 -104 CURVE SMOOTH",
"306 -167 OFFCURVE",
"342 -194 OFFCURVE",
"409 -210 CURVE",
"409 -238 LINE",
"381 -243 OFFCURVE",
"323 -243 OFFCURVE",
"306 -234 CURVE SMOOTH",
"268 -214 OFFCURVE",
"249 -183 OFFCURVE",
"249 -142 CURVE SMOOTH",
"249 -103 OFFCURVE",
"272 -53 OFFCURVE",
"319 10 CURVE",
"283 3 OFFCURVE",
"251 -1 OFFCURVE",
"224 -1 CURVE SMOOTH",
"202 -1 OFFCURVE",
"182 1 OFFCURVE",
"165 6 CURVE SMOOTH",
"76 31 OFFCURVE",
"31 85 OFFCURVE",
"31 170 CURVE SMOOTH",
"31 283 OFFCURVE",
"100 317 OFFCURVE",
"248 317 CURVE SMOOTH"
);
}
);
width = 456;
},
{
layerId = "AA78C373-A874-4B43-A7A1-B39102DDD1E4";
name = Bold;
width = 600;
}
);
unicode = 0DAF;
},
{
export = 0;
glyphname = si_Dha;
lastChange = "2015-06-22 15:06:21 +0000";
layers = (
{
layerId = "C18F3EFD-FA9C-4751-AD2F-5B966120D1A5";
name = Regular;
paths = (
{
closed = 1;
nodes = (
"272 20 OFFCURVE",
"233 0 OFFCURVE",
"188 0 CURVE SMOOTH",
"88 0 OFFCURVE",
"33 100 OFFCURVE",
"33 191 CURVE SMOOTH",
"33 286 OFFCURVE",
"80 359 OFFCURVE",
"152 387 CURVE",
"173 394 OFFCURVE",
"196 398 OFFCURVE",
"221 398 CURVE",
"221 373 LINE",
"217 373 OFFCURVE",
"213 373 OFFCURVE",
"210 373 CURVE SMOOTH",
"141 373 OFFCURVE",
"67 305 OFFCURVE",
"67 218 CURVE SMOOTH",
"67 138 OFFCURVE",
"117 71 OFFCURVE",
"188 71 CURVE SMOOTH",
"243 71 OFFCURVE",
"289 99 OFFCURVE",
"289 143 CURVE SMOOTH",
"289 196 LINE",
"319 196 LINE",
"319 143 LINE SMOOTH",
"319 98 OFFCURVE",
"364 71 OFFCURVE",
"417 71 CURVE SMOOTH",
"464 71 OFFCURVE",
"502 99 OFFCURVE",
"524 143 CURVE SMOOTH",
"546 186 OFFCURVE",
"556 238 OFFCURVE",
"556 295 CURVE SMOOTH",
"556 434 OFFCURVE",
"443 557 OFFCURVE",
"294 557 CURVE SMOOTH",
"213 557 OFFCURVE",
"147 527 OFFCURVE",
"94 468 CURVE",
"65 468 LINE",
"122 543 OFFCURVE",
"200 580 OFFCURVE",
"299 580 CURVE SMOOTH",
"378 580 OFFCURVE",
"446 551 OFFCURVE",
"501 494 CURVE SMOOTH",
"532 462 OFFCURVE",
"553 429 OFFCURVE",
"568 390 CURVE SMOOTH",
"583 350 OFFCURVE",
"589 307 OFFCURVE",
"589 255 CURVE SMOOTH",
"589 134 OFFCURVE",
"545 0 OFFCURVE",
"422 0 CURVE SMOOTH",
"373 0 OFFCURVE",
"333 20 OFFCURVE",
"303 59 CURVE"
);
}
);
width = 638;
},
{
layerId = "AA78C373-A874-4B43-A7A1-B39102DDD1E4";
name = Bold;
width = 600;
}
);
unicode = 0DB0;
},
